G04 #@! TF.GenerationSoftware,KiCad,Pcbnew,8.0.4*
G04 #@! TF.CreationDate,2024-12-17T15:55:10+02:00*
G04 #@! TF.ProjectId,core,636f7265-2e6b-4696-9361-645f70636258,1.0*
G04 #@! TF.SameCoordinates,Original*
G04 #@! TF.FileFunction,Soldermask,Top*
G04 #@! TF.FilePolarity,Negative*
%FSLAX46Y46*%
G04 Gerber Fmt 4.6, Leading zero omitted, Abs format (unit mm)*
G04 Created by KiCad (PCBNEW 8.0.4) date 2024-12-17 15:55:10*
%MOMM*%
%LPD*%
G01*
G04 APERTURE LIST*
G04 Aperture macros list*
%AMRoundRect*
0 Rectangle with rounded corners*
0 $1 Rounding radius*
0 $2 $3 $4 $5 $6 $7 $8 $9 X,Y pos of 4 corners*
0 Add a 4 corners polygon primitive as box body*
4,1,4,$2,$3,$4,$5,$6,$7,$8,$9,$2,$3,0*
0 Add four circle primitives for the rounded corners*
1,1,$1+$1,$2,$3*
1,1,$1+$1,$4,$5*
1,1,$1+$1,$6,$7*
1,1,$1+$1,$8,$9*
0 Add four rect primitives between the rounded corners*
20,1,$1+$1,$2,$3,$4,$5,0*
20,1,$1+$1,$4,$5,$6,$7,0*
20,1,$1+$1,$6,$7,$8,$9,0*
20,1,$1+$1,$8,$9,$2,$3,0*%
G04 Aperture macros list end*
%ADD10RoundRect,0.150000X0.150000X-0.650000X0.150000X0.650000X-0.150000X0.650000X-0.150000X-0.650000X0*%
%ADD11RoundRect,0.050000X-0.387500X-0.050000X0.387500X-0.050000X0.387500X0.050000X-0.387500X0.050000X0*%
%ADD12RoundRect,0.050000X-0.050000X-0.387500X0.050000X-0.387500X0.050000X0.387500X-0.050000X0.387500X0*%
%ADD13RoundRect,0.144000X-1.456000X-1.456000X1.456000X-1.456000X1.456000X1.456000X-1.456000X1.456000X0*%
%ADD14RoundRect,0.250000X-0.337500X-0.475000X0.337500X-0.475000X0.337500X0.475000X-0.337500X0.475000X0*%
%ADD15RoundRect,0.104987X0.295013X0.295013X-0.295013X0.295013X-0.295013X-0.295013X0.295013X-0.295013X0*%
%ADD16RoundRect,0.375000X0.625000X0.375000X-0.625000X0.375000X-0.625000X-0.375000X0.625000X-0.375000X0*%
%ADD17RoundRect,0.500000X0.500000X1.400000X-0.500000X1.400000X-0.500000X-1.400000X0.500000X-1.400000X0*%
%ADD18R,1.400000X1.200000*%
%ADD19O,2.800000X1.800000*%
%ADD20R,1.846667X3.480000*%
%ADD21RoundRect,0.250000X-0.450000X0.350000X-0.450000X-0.350000X0.450000X-0.350000X0.450000X0.350000X0*%
%ADD22RoundRect,0.250000X-0.350000X-0.450000X0.350000X-0.450000X0.350000X0.450000X-0.350000X0.450000X0*%
%ADD23C,2.700000*%
%ADD24RoundRect,0.250000X0.475000X-0.337500X0.475000X0.337500X-0.475000X0.337500X-0.475000X-0.337500X0*%
%ADD25RoundRect,0.250000X-0.475000X0.337500X-0.475000X-0.337500X0.475000X-0.337500X0.475000X0.337500X0*%
%ADD26R,1.600000X1.600000*%
%ADD27C,1.600000*%
%ADD28O,1.000000X1.600000*%
%ADD29O,1.000000X2.100000*%
%ADD30R,0.600000X1.450000*%
%ADD31R,0.300000X1.450000*%
%ADD32C,0.650000*%
%ADD33O,2.000000X3.500000*%
%ADD34O,4.000000X2.000000*%
%ADD35RoundRect,0.250000X0.350000X0.450000X-0.350000X0.450000X-0.350000X-0.450000X0.350000X-0.450000X0*%
%ADD36O,1.700000X1.700000*%
%ADD37C,1.700000*%
%ADD38RoundRect,0.250000X-0.325000X-0.450000X0.325000X-0.450000X0.325000X0.450000X-0.325000X0.450000X0*%
%ADD39RoundRect,0.250000X0.337500X0.475000X-0.337500X0.475000X-0.337500X-0.475000X0.337500X-0.475000X0*%
%ADD40R,1.150000X1.200000*%
%ADD41R,1.450000X1.200000*%
%ADD42R,1.000000X0.700000*%
%ADD43R,1.400000X0.900000*%
%ADD44R,0.700000X1.000000*%
%ADD45RoundRect,0.250000X0.450000X-0.350000X0.450000X0.350000X-0.450000X0.350000X-0.450000X-0.350000X0*%
%ADD46RoundRect,0.250000X-0.450000X0.325000X-0.450000X-0.325000X0.450000X-0.325000X0.450000X0.325000X0*%
%ADD47R,2.600000X0.300000*%
%ADD48RoundRect,0.350000X-1.300000X0.350000X-1.300000X-0.350000X1.300000X-0.350000X1.300000X0.350000X0*%
%ADD49RoundRect,0.350000X-0.700000X0.350000X-0.700000X-0.350000X0.700000X-0.350000X0.700000X0.350000X0*%
%ADD50RoundRect,0.250000X0.325000X0.450000X-0.325000X0.450000X-0.325000X-0.450000X0.325000X-0.450000X0*%
G04 APERTURE END LIST*
D10*
X142600000Y-67400000D03*
X143870000Y-67400000D03*
X145140000Y-67400000D03*
X146410000Y-67400000D03*
X146410000Y-60200000D03*
X145140000Y-60200000D03*
X143870000Y-60200000D03*
X142600000Y-60200000D03*
D11*
X153925000Y-71800000D03*
X153925000Y-72200000D03*
X153925000Y-72600000D03*
X153925000Y-73000000D03*
X153925000Y-73400000D03*
X153925000Y-73800000D03*
X153925000Y-74200000D03*
X153925000Y-74600000D03*
X153925000Y-75000000D03*
X153925000Y-75400000D03*
X153925000Y-75800000D03*
X153925000Y-76200000D03*
X153925000Y-76600000D03*
X153925000Y-77000000D03*
D12*
X154762500Y-77837500D03*
X155162500Y-77837500D03*
X155562500Y-77837500D03*
X155962500Y-77837500D03*
X156362500Y-77837500D03*
X156762500Y-77837500D03*
X157162500Y-77837500D03*
X157562500Y-77837500D03*
X157962500Y-77837500D03*
X158362500Y-77837500D03*
X158762500Y-77837500D03*
X159162500Y-77837500D03*
X159562500Y-77837500D03*
X159962500Y-77837500D03*
D11*
X160800000Y-77000000D03*
X160800000Y-76600000D03*
X160800000Y-76200000D03*
X160800000Y-75800000D03*
X160800000Y-75400000D03*
X160800000Y-75000000D03*
X160800000Y-74600000D03*
X160800000Y-74200000D03*
X160800000Y-73800000D03*
X160800000Y-73400000D03*
X160800000Y-73000000D03*
X160800000Y-72600000D03*
X160800000Y-72200000D03*
X160800000Y-71800000D03*
D12*
X159962500Y-70962500D03*
X159562500Y-70962500D03*
X159162500Y-70962500D03*
X158762500Y-70962500D03*
X158362500Y-70962500D03*
X157962500Y-70962500D03*
X157562500Y-70962500D03*
X157162500Y-70962500D03*
X156762500Y-70962500D03*
X156362500Y-70962500D03*
X155962500Y-70962500D03*
X155562500Y-70962500D03*
X155162500Y-70962500D03*
X154762500Y-70962500D03*
D13*
X157362500Y-74400000D03*
D14*
X167375000Y-77950000D03*
X169450000Y-77950000D03*
D15*
X127200000Y-88455000D03*
X122990000Y-88455000D03*
X127200000Y-86200000D03*
X122990000Y-86200000D03*
X127255000Y-83655000D03*
X123045000Y-83655000D03*
X127255000Y-81400000D03*
X123045000Y-81400000D03*
D16*
X173700000Y-68400000D03*
X173700000Y-66100000D03*
D17*
X167400000Y-66100000D03*
D16*
X173700000Y-63800000D03*
D18*
X157100000Y-88550000D03*
X154900000Y-88550000D03*
X154900000Y-90250000D03*
X157100000Y-90250000D03*
D19*
X181600000Y-57700000D03*
X179600000Y-55900000D03*
X179600000Y-49800000D03*
X181600000Y-52200000D03*
X179600000Y-61400000D03*
D20*
X179940000Y-87300000D03*
X177170000Y-87300000D03*
X174400000Y-87300000D03*
X171630000Y-87300000D03*
X168860000Y-87300000D03*
X134660000Y-87300000D03*
X137430000Y-87300000D03*
X140200000Y-87300000D03*
X142970000Y-87300000D03*
X145740000Y-87300000D03*
D21*
X157900000Y-64875000D03*
X157900000Y-66875000D03*
D22*
X135600000Y-65400000D03*
X137600000Y-65400000D03*
D23*
X189400000Y-51400000D03*
D24*
X161800000Y-66912500D03*
X161800000Y-64837500D03*
X151900000Y-66912500D03*
X151900000Y-64837500D03*
D25*
X159800000Y-88525000D03*
X159800000Y-90600000D03*
D22*
X135600000Y-73200000D03*
X137600000Y-73200000D03*
D26*
X187600000Y-67405113D03*
D27*
X187600000Y-64905113D03*
D28*
X145680000Y-49650000D03*
D29*
X145680000Y-53830000D03*
D28*
X154320000Y-49650000D03*
D29*
X154320000Y-53830000D03*
D30*
X146775000Y-54745000D03*
X147550000Y-54745000D03*
D31*
X148250000Y-54745000D03*
X148750000Y-54745000D03*
X149250000Y-54745000D03*
X149750000Y-54745000D03*
X150250000Y-54745000D03*
X150750000Y-54745000D03*
X151250000Y-54745000D03*
X151750000Y-54745000D03*
D30*
X152450000Y-54745000D03*
X153225000Y-54745000D03*
D32*
X147110000Y-53300000D03*
X152890000Y-53300000D03*
D26*
X163850000Y-57050000D03*
D27*
X166450000Y-57050000D03*
D33*
X172000000Y-54200000D03*
D34*
X165150000Y-53400000D03*
D27*
X161750000Y-57050000D03*
D33*
X158300000Y-54200000D03*
D27*
X168550000Y-57050000D03*
X161750000Y-59850000D03*
X168550000Y-59850000D03*
D24*
X152100000Y-90550000D03*
X152100000Y-88475000D03*
D22*
X135600000Y-75100000D03*
X137600000Y-75100000D03*
D35*
X139400000Y-82800000D03*
X137400000Y-82800000D03*
D14*
X125600000Y-59400000D03*
X127675000Y-59400000D03*
D36*
X189409000Y-84492000D03*
X186869000Y-84492000D03*
X189409000Y-81952000D03*
X186869000Y-81952000D03*
X189409000Y-79412000D03*
D37*
X186869000Y-79412000D03*
D24*
X163800000Y-71037500D03*
X163800000Y-68962500D03*
D25*
X156400000Y-81600000D03*
X156400000Y-83675000D03*
D22*
X186000000Y-58600000D03*
X188000000Y-58600000D03*
D38*
X167375000Y-76000000D03*
X169425000Y-76000000D03*
D22*
X135600000Y-71300000D03*
X137600000Y-71300000D03*
D39*
X137000000Y-59400000D03*
X134925000Y-59400000D03*
D21*
X159800000Y-64875000D03*
X159800000Y-66875000D03*
D24*
X155900000Y-66875000D03*
X155900000Y-64800000D03*
D35*
X133800000Y-82100000D03*
X131800000Y-82100000D03*
D25*
X153800000Y-81600000D03*
X153800000Y-83675000D03*
D36*
X184206000Y-81953000D03*
D37*
X184206000Y-79413000D03*
D39*
X148237500Y-73000000D03*
X146162500Y-73000000D03*
X188037500Y-60800000D03*
X185962500Y-60800000D03*
D14*
X176762500Y-67200000D03*
X178837500Y-67200000D03*
D25*
X150000000Y-59562500D03*
X150000000Y-61637500D03*
D40*
X141725000Y-51990000D03*
X141725000Y-49400000D03*
D41*
X131325000Y-51550000D03*
D42*
X131100000Y-50400000D03*
D43*
X131300000Y-49250000D03*
D44*
X132950000Y-53040000D03*
X134050000Y-53040000D03*
X135150000Y-53040000D03*
X136250000Y-53040000D03*
X137350000Y-53040000D03*
X138450000Y-53040000D03*
X139550000Y-53040000D03*
X140650000Y-53040000D03*
D22*
X169400000Y-83600000D03*
X171400000Y-83600000D03*
D45*
X152200000Y-61600000D03*
X152200000Y-59600000D03*
D23*
X189400000Y-91600000D03*
D46*
X161200000Y-81612500D03*
X161200000Y-83662500D03*
D47*
X130320000Y-75791000D03*
X130320000Y-75291000D03*
X130320000Y-74791000D03*
X130320000Y-74291000D03*
X130320000Y-73791000D03*
X130320000Y-73291000D03*
X130320000Y-72791000D03*
X130320000Y-72291000D03*
X130320000Y-71791000D03*
X130320000Y-71291000D03*
X130320000Y-70791000D03*
X130320000Y-70291000D03*
X130320000Y-69791000D03*
X130320000Y-69291000D03*
X130320000Y-68791000D03*
X130320000Y-68291000D03*
X130320000Y-67791000D03*
X130320000Y-67291000D03*
X130320000Y-66791000D03*
D48*
X129560000Y-64041000D03*
D49*
X123600000Y-64041000D03*
X123600000Y-78541000D03*
D48*
X129560000Y-78541000D03*
D22*
X135600000Y-67400000D03*
X137600000Y-67400000D03*
D26*
X177100000Y-74600000D03*
D27*
X179600000Y-74600000D03*
D21*
X162200000Y-88550000D03*
X162200000Y-90550000D03*
D14*
X176762500Y-64800000D03*
X178837500Y-64800000D03*
D22*
X135600000Y-69300000D03*
X137600000Y-69300000D03*
D24*
X153900000Y-66912500D03*
X153900000Y-64837500D03*
D46*
X158800000Y-81612500D03*
X158800000Y-83662500D03*
D22*
X135600000Y-78900000D03*
X137600000Y-78900000D03*
X186000000Y-56400000D03*
X188000000Y-56400000D03*
D21*
X180600000Y-79000000D03*
X180600000Y-81000000D03*
D22*
X135600000Y-77000000D03*
X137600000Y-77000000D03*
D45*
X154200000Y-61600000D03*
X154200000Y-59600000D03*
D26*
X187400000Y-73600000D03*
D27*
X187400000Y-71100000D03*
D50*
X161250000Y-93000000D03*
X159200000Y-93000000D03*
D24*
X163800000Y-66875000D03*
X163800000Y-64800000D03*
D23*
X124800000Y-91850000D03*
D14*
X125600000Y-57350000D03*
X127675000Y-57350000D03*
D35*
X155600000Y-93000000D03*
X153600000Y-93000000D03*
D39*
X148237500Y-76400000D03*
X146162500Y-76400000D03*
D23*
X124800000Y-51400000D03*
D14*
X167401000Y-71489000D03*
X169476000Y-71489000D03*
D35*
X169400000Y-73800000D03*
X167400000Y-73800000D03*
M02*
