G04 #@! TF.GenerationSoftware,KiCad,Pcbnew,8.0.4*
G04 #@! TF.CreationDate,2024-12-17T15:55:10+02:00*
G04 #@! TF.ProjectId,core,636f7265-2e6b-4696-9361-645f70636258,1.0*
G04 #@! TF.SameCoordinates,Original*
G04 #@! TF.FileFunction,Legend,Top*
G04 #@! TF.FilePolarity,Positive*
%FSLAX46Y46*%
G04 Gerber Fmt 4.6, Leading zero omitted, Abs format (unit mm)*
G04 Created by KiCad (PCBNEW 8.0.4) date 2024-12-17 15:55:10*
%MOMM*%
%LPD*%
G01*
G04 APERTURE LIST*
%ADD10C,0.100000*%
%ADD11C,0.130000*%
%ADD12C,0.140000*%
%ADD13C,0.150000*%
%ADD14C,0.120000*%
%ADD15C,0.300000*%
%ADD16C,0.200000*%
G04 APERTURE END LIST*
D10*
X128872371Y-88171428D02*
X128586657Y-88371428D01*
X128872371Y-88514285D02*
X128272371Y-88514285D01*
X128272371Y-88514285D02*
X128272371Y-88285714D01*
X128272371Y-88285714D02*
X128300942Y-88228571D01*
X128300942Y-88228571D02*
X128329514Y-88200000D01*
X128329514Y-88200000D02*
X128386657Y-88171428D01*
X128386657Y-88171428D02*
X128472371Y-88171428D01*
X128472371Y-88171428D02*
X128529514Y-88200000D01*
X128529514Y-88200000D02*
X128558085Y-88228571D01*
X128558085Y-88228571D02*
X128586657Y-88285714D01*
X128586657Y-88285714D02*
X128586657Y-88514285D01*
X128558085Y-87914285D02*
X128558085Y-87714285D01*
X128872371Y-87628571D02*
X128872371Y-87914285D01*
X128872371Y-87914285D02*
X128272371Y-87914285D01*
X128272371Y-87914285D02*
X128272371Y-87628571D01*
X128843800Y-87400000D02*
X128872371Y-87314286D01*
X128872371Y-87314286D02*
X128872371Y-87171428D01*
X128872371Y-87171428D02*
X128843800Y-87114286D01*
X128843800Y-87114286D02*
X128815228Y-87085714D01*
X128815228Y-87085714D02*
X128758085Y-87057143D01*
X128758085Y-87057143D02*
X128700942Y-87057143D01*
X128700942Y-87057143D02*
X128643800Y-87085714D01*
X128643800Y-87085714D02*
X128615228Y-87114286D01*
X128615228Y-87114286D02*
X128586657Y-87171428D01*
X128586657Y-87171428D02*
X128558085Y-87285714D01*
X128558085Y-87285714D02*
X128529514Y-87342857D01*
X128529514Y-87342857D02*
X128500942Y-87371428D01*
X128500942Y-87371428D02*
X128443800Y-87400000D01*
X128443800Y-87400000D02*
X128386657Y-87400000D01*
X128386657Y-87400000D02*
X128329514Y-87371428D01*
X128329514Y-87371428D02*
X128300942Y-87342857D01*
X128300942Y-87342857D02*
X128272371Y-87285714D01*
X128272371Y-87285714D02*
X128272371Y-87142857D01*
X128272371Y-87142857D02*
X128300942Y-87057143D01*
X128558085Y-86799999D02*
X128558085Y-86599999D01*
X128872371Y-86514285D02*
X128872371Y-86799999D01*
X128872371Y-86799999D02*
X128272371Y-86799999D01*
X128272371Y-86799999D02*
X128272371Y-86514285D01*
X128272371Y-86342857D02*
X128272371Y-86000000D01*
X128872371Y-86171428D02*
X128272371Y-86171428D01*
X128558085Y-83314284D02*
X128586657Y-83228570D01*
X128586657Y-83228570D02*
X128615228Y-83199999D01*
X128615228Y-83199999D02*
X128672371Y-83171427D01*
X128672371Y-83171427D02*
X128758085Y-83171427D01*
X128758085Y-83171427D02*
X128815228Y-83199999D01*
X128815228Y-83199999D02*
X128843800Y-83228570D01*
X128843800Y-83228570D02*
X128872371Y-83285713D01*
X128872371Y-83285713D02*
X128872371Y-83514284D01*
X128872371Y-83514284D02*
X128272371Y-83514284D01*
X128272371Y-83514284D02*
X128272371Y-83314284D01*
X128272371Y-83314284D02*
X128300942Y-83257142D01*
X128300942Y-83257142D02*
X128329514Y-83228570D01*
X128329514Y-83228570D02*
X128386657Y-83199999D01*
X128386657Y-83199999D02*
X128443800Y-83199999D01*
X128443800Y-83199999D02*
X128500942Y-83228570D01*
X128500942Y-83228570D02*
X128529514Y-83257142D01*
X128529514Y-83257142D02*
X128558085Y-83314284D01*
X128558085Y-83314284D02*
X128558085Y-83514284D01*
X128272371Y-82799999D02*
X128272371Y-82685713D01*
X128272371Y-82685713D02*
X128300942Y-82628570D01*
X128300942Y-82628570D02*
X128358085Y-82571427D01*
X128358085Y-82571427D02*
X128472371Y-82542856D01*
X128472371Y-82542856D02*
X128672371Y-82542856D01*
X128672371Y-82542856D02*
X128786657Y-82571427D01*
X128786657Y-82571427D02*
X128843800Y-82628570D01*
X128843800Y-82628570D02*
X128872371Y-82685713D01*
X128872371Y-82685713D02*
X128872371Y-82799999D01*
X128872371Y-82799999D02*
X128843800Y-82857142D01*
X128843800Y-82857142D02*
X128786657Y-82914284D01*
X128786657Y-82914284D02*
X128672371Y-82942856D01*
X128672371Y-82942856D02*
X128472371Y-82942856D01*
X128472371Y-82942856D02*
X128358085Y-82914284D01*
X128358085Y-82914284D02*
X128300942Y-82857142D01*
X128300942Y-82857142D02*
X128272371Y-82799999D01*
X128272371Y-82171428D02*
X128272371Y-82057142D01*
X128272371Y-82057142D02*
X128300942Y-81999999D01*
X128300942Y-81999999D02*
X128358085Y-81942856D01*
X128358085Y-81942856D02*
X128472371Y-81914285D01*
X128472371Y-81914285D02*
X128672371Y-81914285D01*
X128672371Y-81914285D02*
X128786657Y-81942856D01*
X128786657Y-81942856D02*
X128843800Y-81999999D01*
X128843800Y-81999999D02*
X128872371Y-82057142D01*
X128872371Y-82057142D02*
X128872371Y-82171428D01*
X128872371Y-82171428D02*
X128843800Y-82228571D01*
X128843800Y-82228571D02*
X128786657Y-82285713D01*
X128786657Y-82285713D02*
X128672371Y-82314285D01*
X128672371Y-82314285D02*
X128472371Y-82314285D01*
X128472371Y-82314285D02*
X128358085Y-82285713D01*
X128358085Y-82285713D02*
X128300942Y-82228571D01*
X128300942Y-82228571D02*
X128272371Y-82171428D01*
X128272371Y-81742857D02*
X128272371Y-81400000D01*
X128872371Y-81571428D02*
X128272371Y-81571428D01*
X188557143Y-77672371D02*
X188557143Y-77072371D01*
X188557143Y-77072371D02*
X188785714Y-77072371D01*
X188785714Y-77072371D02*
X188842857Y-77100942D01*
X188842857Y-77100942D02*
X188871428Y-77129514D01*
X188871428Y-77129514D02*
X188900000Y-77186657D01*
X188900000Y-77186657D02*
X188900000Y-77272371D01*
X188900000Y-77272371D02*
X188871428Y-77329514D01*
X188871428Y-77329514D02*
X188842857Y-77358085D01*
X188842857Y-77358085D02*
X188785714Y-77386657D01*
X188785714Y-77386657D02*
X188557143Y-77386657D01*
X189100000Y-77072371D02*
X189242857Y-77672371D01*
X189242857Y-77672371D02*
X189357143Y-77243800D01*
X189357143Y-77243800D02*
X189471428Y-77672371D01*
X189471428Y-77672371D02*
X189614286Y-77072371D01*
X189842857Y-77672371D02*
X189842857Y-77072371D01*
X189842857Y-77072371D02*
X190042857Y-77500942D01*
X190042857Y-77500942D02*
X190242857Y-77072371D01*
X190242857Y-77072371D02*
X190242857Y-77672371D01*
X183471428Y-77072371D02*
X183814286Y-77072371D01*
X183642857Y-77672371D02*
X183642857Y-77072371D01*
X184014286Y-77672371D02*
X184014286Y-77072371D01*
X184014286Y-77072371D02*
X184157143Y-77072371D01*
X184157143Y-77072371D02*
X184242857Y-77100942D01*
X184242857Y-77100942D02*
X184300000Y-77158085D01*
X184300000Y-77158085D02*
X184328571Y-77215228D01*
X184328571Y-77215228D02*
X184357143Y-77329514D01*
X184357143Y-77329514D02*
X184357143Y-77415228D01*
X184357143Y-77415228D02*
X184328571Y-77529514D01*
X184328571Y-77529514D02*
X184300000Y-77586657D01*
X184300000Y-77586657D02*
X184242857Y-77643800D01*
X184242857Y-77643800D02*
X184157143Y-77672371D01*
X184157143Y-77672371D02*
X184014286Y-77672371D01*
X184585714Y-77500942D02*
X184871429Y-77500942D01*
X184528571Y-77672371D02*
X184728571Y-77072371D01*
X184728571Y-77072371D02*
X184928571Y-77672371D01*
X182472371Y-78180074D02*
X182186657Y-78380074D01*
X182472371Y-78522931D02*
X181872371Y-78522931D01*
X181872371Y-78522931D02*
X181872371Y-78294360D01*
X181872371Y-78294360D02*
X181900942Y-78237217D01*
X181900942Y-78237217D02*
X181929514Y-78208646D01*
X181929514Y-78208646D02*
X181986657Y-78180074D01*
X181986657Y-78180074D02*
X182072371Y-78180074D01*
X182072371Y-78180074D02*
X182129514Y-78208646D01*
X182129514Y-78208646D02*
X182158085Y-78237217D01*
X182158085Y-78237217D02*
X182186657Y-78294360D01*
X182186657Y-78294360D02*
X182186657Y-78522931D01*
X182472371Y-82922931D02*
X182472371Y-83208645D01*
X182472371Y-83208645D02*
X181872371Y-83208645D01*
X183261354Y-85528085D02*
X183347068Y-85556657D01*
X183347068Y-85556657D02*
X183375639Y-85585228D01*
X183375639Y-85585228D02*
X183404211Y-85642371D01*
X183404211Y-85642371D02*
X183404211Y-85728085D01*
X183404211Y-85728085D02*
X183375639Y-85785228D01*
X183375639Y-85785228D02*
X183347068Y-85813800D01*
X183347068Y-85813800D02*
X183289925Y-85842371D01*
X183289925Y-85842371D02*
X183061354Y-85842371D01*
X183061354Y-85842371D02*
X183061354Y-85242371D01*
X183061354Y-85242371D02*
X183261354Y-85242371D01*
X183261354Y-85242371D02*
X183318497Y-85270942D01*
X183318497Y-85270942D02*
X183347068Y-85299514D01*
X183347068Y-85299514D02*
X183375639Y-85356657D01*
X183375639Y-85356657D02*
X183375639Y-85413800D01*
X183375639Y-85413800D02*
X183347068Y-85470942D01*
X183347068Y-85470942D02*
X183318497Y-85499514D01*
X183318497Y-85499514D02*
X183261354Y-85528085D01*
X183261354Y-85528085D02*
X183061354Y-85528085D01*
X183661354Y-85528085D02*
X183861354Y-85528085D01*
X183947068Y-85842371D02*
X183661354Y-85842371D01*
X183661354Y-85842371D02*
X183661354Y-85242371D01*
X183661354Y-85242371D02*
X183947068Y-85242371D01*
X184204211Y-85528085D02*
X184404211Y-85528085D01*
X184489925Y-85842371D02*
X184204211Y-85842371D01*
X184204211Y-85842371D02*
X184204211Y-85242371D01*
X184204211Y-85242371D02*
X184489925Y-85242371D01*
X184747068Y-85842371D02*
X184747068Y-85242371D01*
X184747068Y-85242371D02*
X184975639Y-85242371D01*
X184975639Y-85242371D02*
X185032782Y-85270942D01*
X185032782Y-85270942D02*
X185061353Y-85299514D01*
X185061353Y-85299514D02*
X185089925Y-85356657D01*
X185089925Y-85356657D02*
X185089925Y-85442371D01*
X185089925Y-85442371D02*
X185061353Y-85499514D01*
X185061353Y-85499514D02*
X185032782Y-85528085D01*
X185032782Y-85528085D02*
X184975639Y-85556657D01*
X184975639Y-85556657D02*
X184747068Y-85556657D01*
D11*
X144445406Y-64196667D02*
X144445406Y-64430000D01*
X144812073Y-64430000D02*
X144112073Y-64430000D01*
X144112073Y-64430000D02*
X144112073Y-64096667D01*
X144812073Y-63496667D02*
X144812073Y-63830000D01*
X144812073Y-63830000D02*
X144112073Y-63830000D01*
X144812073Y-62896666D02*
X144812073Y-63296666D01*
X144812073Y-63096666D02*
X144112073Y-63096666D01*
X144112073Y-63096666D02*
X144212073Y-63163333D01*
X144212073Y-63163333D02*
X144278740Y-63230000D01*
X144278740Y-63230000D02*
X144312073Y-63296666D01*
X162439573Y-74626666D02*
X162106240Y-74859999D01*
X162439573Y-75026666D02*
X161739573Y-75026666D01*
X161739573Y-75026666D02*
X161739573Y-74759999D01*
X161739573Y-74759999D02*
X161772906Y-74693333D01*
X161772906Y-74693333D02*
X161806240Y-74659999D01*
X161806240Y-74659999D02*
X161872906Y-74626666D01*
X161872906Y-74626666D02*
X161972906Y-74626666D01*
X161972906Y-74626666D02*
X162039573Y-74659999D01*
X162039573Y-74659999D02*
X162072906Y-74693333D01*
X162072906Y-74693333D02*
X162106240Y-74759999D01*
X162106240Y-74759999D02*
X162106240Y-75026666D01*
X162439573Y-74326666D02*
X161739573Y-74326666D01*
X161739573Y-74326666D02*
X161739573Y-74059999D01*
X161739573Y-74059999D02*
X161772906Y-73993333D01*
X161772906Y-73993333D02*
X161806240Y-73959999D01*
X161806240Y-73959999D02*
X161872906Y-73926666D01*
X161872906Y-73926666D02*
X161972906Y-73926666D01*
X161972906Y-73926666D02*
X162039573Y-73959999D01*
X162039573Y-73959999D02*
X162072906Y-73993333D01*
X162072906Y-73993333D02*
X162106240Y-74059999D01*
X162106240Y-74059999D02*
X162106240Y-74326666D01*
X162439573Y-73259999D02*
X162439573Y-73659999D01*
X162439573Y-73459999D02*
X161739573Y-73459999D01*
X161739573Y-73459999D02*
X161839573Y-73526666D01*
X161839573Y-73526666D02*
X161906240Y-73593333D01*
X161906240Y-73593333D02*
X161939573Y-73659999D01*
D12*
X170762499Y-78199886D02*
X170729166Y-78233220D01*
X170729166Y-78233220D02*
X170629166Y-78266553D01*
X170629166Y-78266553D02*
X170562499Y-78266553D01*
X170562499Y-78266553D02*
X170462499Y-78233220D01*
X170462499Y-78233220D02*
X170395833Y-78166553D01*
X170395833Y-78166553D02*
X170362499Y-78099886D01*
X170362499Y-78099886D02*
X170329166Y-77966553D01*
X170329166Y-77966553D02*
X170329166Y-77866553D01*
X170329166Y-77866553D02*
X170362499Y-77733220D01*
X170362499Y-77733220D02*
X170395833Y-77666553D01*
X170395833Y-77666553D02*
X170462499Y-77599886D01*
X170462499Y-77599886D02*
X170562499Y-77566553D01*
X170562499Y-77566553D02*
X170629166Y-77566553D01*
X170629166Y-77566553D02*
X170729166Y-77599886D01*
X170729166Y-77599886D02*
X170762499Y-77633220D01*
X171029166Y-77633220D02*
X171062499Y-77599886D01*
X171062499Y-77599886D02*
X171129166Y-77566553D01*
X171129166Y-77566553D02*
X171295833Y-77566553D01*
X171295833Y-77566553D02*
X171362499Y-77599886D01*
X171362499Y-77599886D02*
X171395833Y-77633220D01*
X171395833Y-77633220D02*
X171429166Y-77699886D01*
X171429166Y-77699886D02*
X171429166Y-77766553D01*
X171429166Y-77766553D02*
X171395833Y-77866553D01*
X171395833Y-77866553D02*
X170995833Y-78266553D01*
X170995833Y-78266553D02*
X171429166Y-78266553D01*
X172029166Y-77566553D02*
X171895833Y-77566553D01*
X171895833Y-77566553D02*
X171829166Y-77599886D01*
X171829166Y-77599886D02*
X171795833Y-77633220D01*
X171795833Y-77633220D02*
X171729166Y-77733220D01*
X171729166Y-77733220D02*
X171695833Y-77866553D01*
X171695833Y-77866553D02*
X171695833Y-78133220D01*
X171695833Y-78133220D02*
X171729166Y-78199886D01*
X171729166Y-78199886D02*
X171762500Y-78233220D01*
X171762500Y-78233220D02*
X171829166Y-78266553D01*
X171829166Y-78266553D02*
X171962500Y-78266553D01*
X171962500Y-78266553D02*
X172029166Y-78233220D01*
X172029166Y-78233220D02*
X172062500Y-78199886D01*
X172062500Y-78199886D02*
X172095833Y-78133220D01*
X172095833Y-78133220D02*
X172095833Y-77966553D01*
X172095833Y-77966553D02*
X172062500Y-77899886D01*
X172062500Y-77899886D02*
X172029166Y-77866553D01*
X172029166Y-77866553D02*
X171962500Y-77833220D01*
X171962500Y-77833220D02*
X171829166Y-77833220D01*
X171829166Y-77833220D02*
X171762500Y-77866553D01*
X171762500Y-77866553D02*
X171729166Y-77899886D01*
X171729166Y-77899886D02*
X171695833Y-77966553D01*
D11*
X125233740Y-88293333D02*
X125267073Y-88193333D01*
X125267073Y-88193333D02*
X125267073Y-88026667D01*
X125267073Y-88026667D02*
X125233740Y-87960000D01*
X125233740Y-87960000D02*
X125200406Y-87926667D01*
X125200406Y-87926667D02*
X125133740Y-87893333D01*
X125133740Y-87893333D02*
X125067073Y-87893333D01*
X125067073Y-87893333D02*
X125000406Y-87926667D01*
X125000406Y-87926667D02*
X124967073Y-87960000D01*
X124967073Y-87960000D02*
X124933740Y-88026667D01*
X124933740Y-88026667D02*
X124900406Y-88160000D01*
X124900406Y-88160000D02*
X124867073Y-88226667D01*
X124867073Y-88226667D02*
X124833740Y-88260000D01*
X124833740Y-88260000D02*
X124767073Y-88293333D01*
X124767073Y-88293333D02*
X124700406Y-88293333D01*
X124700406Y-88293333D02*
X124633740Y-88260000D01*
X124633740Y-88260000D02*
X124600406Y-88226667D01*
X124600406Y-88226667D02*
X124567073Y-88160000D01*
X124567073Y-88160000D02*
X124567073Y-87993333D01*
X124567073Y-87993333D02*
X124600406Y-87893333D01*
X124567073Y-87660000D02*
X125267073Y-87493333D01*
X125267073Y-87493333D02*
X124767073Y-87360000D01*
X124767073Y-87360000D02*
X125267073Y-87226666D01*
X125267073Y-87226666D02*
X124567073Y-87060000D01*
X124633740Y-86826666D02*
X124600406Y-86793333D01*
X124600406Y-86793333D02*
X124567073Y-86726666D01*
X124567073Y-86726666D02*
X124567073Y-86560000D01*
X124567073Y-86560000D02*
X124600406Y-86493333D01*
X124600406Y-86493333D02*
X124633740Y-86460000D01*
X124633740Y-86460000D02*
X124700406Y-86426666D01*
X124700406Y-86426666D02*
X124767073Y-86426666D01*
X124767073Y-86426666D02*
X124867073Y-86460000D01*
X124867073Y-86460000D02*
X125267073Y-86860000D01*
X125267073Y-86860000D02*
X125267073Y-86426666D01*
X125288740Y-83493333D02*
X125322073Y-83393333D01*
X125322073Y-83393333D02*
X125322073Y-83226667D01*
X125322073Y-83226667D02*
X125288740Y-83160000D01*
X125288740Y-83160000D02*
X125255406Y-83126667D01*
X125255406Y-83126667D02*
X125188740Y-83093333D01*
X125188740Y-83093333D02*
X125122073Y-83093333D01*
X125122073Y-83093333D02*
X125055406Y-83126667D01*
X125055406Y-83126667D02*
X125022073Y-83160000D01*
X125022073Y-83160000D02*
X124988740Y-83226667D01*
X124988740Y-83226667D02*
X124955406Y-83360000D01*
X124955406Y-83360000D02*
X124922073Y-83426667D01*
X124922073Y-83426667D02*
X124888740Y-83460000D01*
X124888740Y-83460000D02*
X124822073Y-83493333D01*
X124822073Y-83493333D02*
X124755406Y-83493333D01*
X124755406Y-83493333D02*
X124688740Y-83460000D01*
X124688740Y-83460000D02*
X124655406Y-83426667D01*
X124655406Y-83426667D02*
X124622073Y-83360000D01*
X124622073Y-83360000D02*
X124622073Y-83193333D01*
X124622073Y-83193333D02*
X124655406Y-83093333D01*
X124622073Y-82860000D02*
X125322073Y-82693333D01*
X125322073Y-82693333D02*
X124822073Y-82560000D01*
X124822073Y-82560000D02*
X125322073Y-82426666D01*
X125322073Y-82426666D02*
X124622073Y-82260000D01*
X125322073Y-81626666D02*
X125322073Y-82026666D01*
X125322073Y-81826666D02*
X124622073Y-81826666D01*
X124622073Y-81826666D02*
X124722073Y-81893333D01*
X124722073Y-81893333D02*
X124788740Y-81960000D01*
X124788740Y-81960000D02*
X124822073Y-82026666D01*
X170057073Y-66793333D02*
X170623740Y-66793333D01*
X170623740Y-66793333D02*
X170690406Y-66760000D01*
X170690406Y-66760000D02*
X170723740Y-66726666D01*
X170723740Y-66726666D02*
X170757073Y-66660000D01*
X170757073Y-66660000D02*
X170757073Y-66526666D01*
X170757073Y-66526666D02*
X170723740Y-66460000D01*
X170723740Y-66460000D02*
X170690406Y-66426666D01*
X170690406Y-66426666D02*
X170623740Y-66393333D01*
X170623740Y-66393333D02*
X170057073Y-66393333D01*
X170757073Y-65693333D02*
X170757073Y-66093333D01*
X170757073Y-65893333D02*
X170057073Y-65893333D01*
X170057073Y-65893333D02*
X170157073Y-65960000D01*
X170157073Y-65960000D02*
X170223740Y-66026667D01*
X170223740Y-66026667D02*
X170257073Y-66093333D01*
X155666667Y-87183740D02*
X155666667Y-87517073D01*
X155433333Y-86817073D02*
X155666667Y-87183740D01*
X155666667Y-87183740D02*
X155900000Y-86817073D01*
X156500000Y-87517073D02*
X156100000Y-87517073D01*
X156300000Y-87517073D02*
X156300000Y-86817073D01*
X156300000Y-86817073D02*
X156233333Y-86917073D01*
X156233333Y-86917073D02*
X156166667Y-86983740D01*
X156166667Y-86983740D02*
X156100000Y-87017073D01*
D13*
X178371905Y-59679104D02*
X178848095Y-59679104D01*
X178276667Y-59964819D02*
X178610000Y-58964819D01*
X178610000Y-58964819D02*
X178943333Y-59964819D01*
X179276667Y-58964819D02*
X179276667Y-59774342D01*
X179276667Y-59774342D02*
X179324286Y-59869580D01*
X179324286Y-59869580D02*
X179371905Y-59917200D01*
X179371905Y-59917200D02*
X179467143Y-59964819D01*
X179467143Y-59964819D02*
X179657619Y-59964819D01*
X179657619Y-59964819D02*
X179752857Y-59917200D01*
X179752857Y-59917200D02*
X179800476Y-59869580D01*
X179800476Y-59869580D02*
X179848095Y-59774342D01*
X179848095Y-59774342D02*
X179848095Y-58964819D01*
X180848095Y-59964819D02*
X180276667Y-59964819D01*
X180562381Y-59964819D02*
X180562381Y-58964819D01*
X180562381Y-58964819D02*
X180467143Y-59107676D01*
X180467143Y-59107676D02*
X180371905Y-59202914D01*
X180371905Y-59202914D02*
X180276667Y-59250533D01*
D12*
X158216553Y-63491666D02*
X157883220Y-63724999D01*
X158216553Y-63891666D02*
X157516553Y-63891666D01*
X157516553Y-63891666D02*
X157516553Y-63624999D01*
X157516553Y-63624999D02*
X157549886Y-63558333D01*
X157549886Y-63558333D02*
X157583220Y-63524999D01*
X157583220Y-63524999D02*
X157649886Y-63491666D01*
X157649886Y-63491666D02*
X157749886Y-63491666D01*
X157749886Y-63491666D02*
X157816553Y-63524999D01*
X157816553Y-63524999D02*
X157849886Y-63558333D01*
X157849886Y-63558333D02*
X157883220Y-63624999D01*
X157883220Y-63624999D02*
X157883220Y-63891666D01*
X158216553Y-62824999D02*
X158216553Y-63224999D01*
X158216553Y-63024999D02*
X157516553Y-63024999D01*
X157516553Y-63024999D02*
X157616553Y-63091666D01*
X157616553Y-63091666D02*
X157683220Y-63158333D01*
X157683220Y-63158333D02*
X157716553Y-63224999D01*
X138949999Y-65716553D02*
X138716666Y-65383220D01*
X138549999Y-65716553D02*
X138549999Y-65016553D01*
X138549999Y-65016553D02*
X138816666Y-65016553D01*
X138816666Y-65016553D02*
X138883333Y-65049886D01*
X138883333Y-65049886D02*
X138916666Y-65083220D01*
X138916666Y-65083220D02*
X138949999Y-65149886D01*
X138949999Y-65149886D02*
X138949999Y-65249886D01*
X138949999Y-65249886D02*
X138916666Y-65316553D01*
X138916666Y-65316553D02*
X138883333Y-65349886D01*
X138883333Y-65349886D02*
X138816666Y-65383220D01*
X138816666Y-65383220D02*
X138549999Y-65383220D01*
X139216666Y-65083220D02*
X139249999Y-65049886D01*
X139249999Y-65049886D02*
X139316666Y-65016553D01*
X139316666Y-65016553D02*
X139483333Y-65016553D01*
X139483333Y-65016553D02*
X139549999Y-65049886D01*
X139549999Y-65049886D02*
X139583333Y-65083220D01*
X139583333Y-65083220D02*
X139616666Y-65149886D01*
X139616666Y-65149886D02*
X139616666Y-65216553D01*
X139616666Y-65216553D02*
X139583333Y-65316553D01*
X139583333Y-65316553D02*
X139183333Y-65716553D01*
X139183333Y-65716553D02*
X139616666Y-65716553D01*
X139850000Y-65016553D02*
X140283333Y-65016553D01*
X140283333Y-65016553D02*
X140050000Y-65283220D01*
X140050000Y-65283220D02*
X140150000Y-65283220D01*
X140150000Y-65283220D02*
X140216666Y-65316553D01*
X140216666Y-65316553D02*
X140250000Y-65349886D01*
X140250000Y-65349886D02*
X140283333Y-65416553D01*
X140283333Y-65416553D02*
X140283333Y-65583220D01*
X140283333Y-65583220D02*
X140250000Y-65649886D01*
X140250000Y-65649886D02*
X140216666Y-65683220D01*
X140216666Y-65683220D02*
X140150000Y-65716553D01*
X140150000Y-65716553D02*
X139950000Y-65716553D01*
X139950000Y-65716553D02*
X139883333Y-65683220D01*
X139883333Y-65683220D02*
X139850000Y-65649886D01*
X162087386Y-63491666D02*
X162120720Y-63524999D01*
X162120720Y-63524999D02*
X162154053Y-63624999D01*
X162154053Y-63624999D02*
X162154053Y-63691666D01*
X162154053Y-63691666D02*
X162120720Y-63791666D01*
X162120720Y-63791666D02*
X162054053Y-63858333D01*
X162054053Y-63858333D02*
X161987386Y-63891666D01*
X161987386Y-63891666D02*
X161854053Y-63924999D01*
X161854053Y-63924999D02*
X161754053Y-63924999D01*
X161754053Y-63924999D02*
X161620720Y-63891666D01*
X161620720Y-63891666D02*
X161554053Y-63858333D01*
X161554053Y-63858333D02*
X161487386Y-63791666D01*
X161487386Y-63791666D02*
X161454053Y-63691666D01*
X161454053Y-63691666D02*
X161454053Y-63624999D01*
X161454053Y-63624999D02*
X161487386Y-63524999D01*
X161487386Y-63524999D02*
X161520720Y-63491666D01*
X161687386Y-62891666D02*
X162154053Y-62891666D01*
X161420720Y-63058333D02*
X161920720Y-63224999D01*
X161920720Y-63224999D02*
X161920720Y-62791666D01*
X152149886Y-63491666D02*
X152183220Y-63524999D01*
X152183220Y-63524999D02*
X152216553Y-63624999D01*
X152216553Y-63624999D02*
X152216553Y-63691666D01*
X152216553Y-63691666D02*
X152183220Y-63791666D01*
X152183220Y-63791666D02*
X152116553Y-63858333D01*
X152116553Y-63858333D02*
X152049886Y-63891666D01*
X152049886Y-63891666D02*
X151916553Y-63924999D01*
X151916553Y-63924999D02*
X151816553Y-63924999D01*
X151816553Y-63924999D02*
X151683220Y-63891666D01*
X151683220Y-63891666D02*
X151616553Y-63858333D01*
X151616553Y-63858333D02*
X151549886Y-63791666D01*
X151549886Y-63791666D02*
X151516553Y-63691666D01*
X151516553Y-63691666D02*
X151516553Y-63624999D01*
X151516553Y-63624999D02*
X151549886Y-63524999D01*
X151549886Y-63524999D02*
X151583220Y-63491666D01*
X151516553Y-63258333D02*
X151516553Y-62824999D01*
X151516553Y-62824999D02*
X151783220Y-63058333D01*
X151783220Y-63058333D02*
X151783220Y-62958333D01*
X151783220Y-62958333D02*
X151816553Y-62891666D01*
X151816553Y-62891666D02*
X151849886Y-62858333D01*
X151849886Y-62858333D02*
X151916553Y-62824999D01*
X151916553Y-62824999D02*
X152083220Y-62824999D01*
X152083220Y-62824999D02*
X152149886Y-62858333D01*
X152149886Y-62858333D02*
X152183220Y-62891666D01*
X152183220Y-62891666D02*
X152216553Y-62958333D01*
X152216553Y-62958333D02*
X152216553Y-63158333D01*
X152216553Y-63158333D02*
X152183220Y-63224999D01*
X152183220Y-63224999D02*
X152149886Y-63258333D01*
X160049886Y-87212500D02*
X160083220Y-87245833D01*
X160083220Y-87245833D02*
X160116553Y-87345833D01*
X160116553Y-87345833D02*
X160116553Y-87412500D01*
X160116553Y-87412500D02*
X160083220Y-87512500D01*
X160083220Y-87512500D02*
X160016553Y-87579167D01*
X160016553Y-87579167D02*
X159949886Y-87612500D01*
X159949886Y-87612500D02*
X159816553Y-87645833D01*
X159816553Y-87645833D02*
X159716553Y-87645833D01*
X159716553Y-87645833D02*
X159583220Y-87612500D01*
X159583220Y-87612500D02*
X159516553Y-87579167D01*
X159516553Y-87579167D02*
X159449886Y-87512500D01*
X159449886Y-87512500D02*
X159416553Y-87412500D01*
X159416553Y-87412500D02*
X159416553Y-87345833D01*
X159416553Y-87345833D02*
X159449886Y-87245833D01*
X159449886Y-87245833D02*
X159483220Y-87212500D01*
X160116553Y-86545833D02*
X160116553Y-86945833D01*
X160116553Y-86745833D02*
X159416553Y-86745833D01*
X159416553Y-86745833D02*
X159516553Y-86812500D01*
X159516553Y-86812500D02*
X159583220Y-86879167D01*
X159583220Y-86879167D02*
X159616553Y-86945833D01*
X159483220Y-86279166D02*
X159449886Y-86245833D01*
X159449886Y-86245833D02*
X159416553Y-86179166D01*
X159416553Y-86179166D02*
X159416553Y-86012500D01*
X159416553Y-86012500D02*
X159449886Y-85945833D01*
X159449886Y-85945833D02*
X159483220Y-85912500D01*
X159483220Y-85912500D02*
X159549886Y-85879166D01*
X159549886Y-85879166D02*
X159616553Y-85879166D01*
X159616553Y-85879166D02*
X159716553Y-85912500D01*
X159716553Y-85912500D02*
X160116553Y-86312500D01*
X160116553Y-86312500D02*
X160116553Y-85879166D01*
X138949999Y-73516553D02*
X138716666Y-73183220D01*
X138549999Y-73516553D02*
X138549999Y-72816553D01*
X138549999Y-72816553D02*
X138816666Y-72816553D01*
X138816666Y-72816553D02*
X138883333Y-72849886D01*
X138883333Y-72849886D02*
X138916666Y-72883220D01*
X138916666Y-72883220D02*
X138949999Y-72949886D01*
X138949999Y-72949886D02*
X138949999Y-73049886D01*
X138949999Y-73049886D02*
X138916666Y-73116553D01*
X138916666Y-73116553D02*
X138883333Y-73149886D01*
X138883333Y-73149886D02*
X138816666Y-73183220D01*
X138816666Y-73183220D02*
X138549999Y-73183220D01*
X139216666Y-72883220D02*
X139249999Y-72849886D01*
X139249999Y-72849886D02*
X139316666Y-72816553D01*
X139316666Y-72816553D02*
X139483333Y-72816553D01*
X139483333Y-72816553D02*
X139549999Y-72849886D01*
X139549999Y-72849886D02*
X139583333Y-72883220D01*
X139583333Y-72883220D02*
X139616666Y-72949886D01*
X139616666Y-72949886D02*
X139616666Y-73016553D01*
X139616666Y-73016553D02*
X139583333Y-73116553D01*
X139583333Y-73116553D02*
X139183333Y-73516553D01*
X139183333Y-73516553D02*
X139616666Y-73516553D01*
X140250000Y-72816553D02*
X139916666Y-72816553D01*
X139916666Y-72816553D02*
X139883333Y-73149886D01*
X139883333Y-73149886D02*
X139916666Y-73116553D01*
X139916666Y-73116553D02*
X139983333Y-73083220D01*
X139983333Y-73083220D02*
X140150000Y-73083220D01*
X140150000Y-73083220D02*
X140216666Y-73116553D01*
X140216666Y-73116553D02*
X140250000Y-73149886D01*
X140250000Y-73149886D02*
X140283333Y-73216553D01*
X140283333Y-73216553D02*
X140283333Y-73383220D01*
X140283333Y-73383220D02*
X140250000Y-73449886D01*
X140250000Y-73449886D02*
X140216666Y-73483220D01*
X140216666Y-73483220D02*
X140150000Y-73516553D01*
X140150000Y-73516553D02*
X139983333Y-73516553D01*
X139983333Y-73516553D02*
X139916666Y-73483220D01*
X139916666Y-73483220D02*
X139883333Y-73449886D01*
D11*
X187185714Y-63187144D02*
X187147618Y-63225240D01*
X187147618Y-63225240D02*
X187033333Y-63263335D01*
X187033333Y-63263335D02*
X186957142Y-63263335D01*
X186957142Y-63263335D02*
X186842856Y-63225240D01*
X186842856Y-63225240D02*
X186766666Y-63149049D01*
X186766666Y-63149049D02*
X186728571Y-63072859D01*
X186728571Y-63072859D02*
X186690475Y-62920478D01*
X186690475Y-62920478D02*
X186690475Y-62806192D01*
X186690475Y-62806192D02*
X186728571Y-62653811D01*
X186728571Y-62653811D02*
X186766666Y-62577620D01*
X186766666Y-62577620D02*
X186842856Y-62501430D01*
X186842856Y-62501430D02*
X186957142Y-62463335D01*
X186957142Y-62463335D02*
X187033333Y-62463335D01*
X187033333Y-62463335D02*
X187147618Y-62501430D01*
X187147618Y-62501430D02*
X187185714Y-62539525D01*
X187490475Y-62539525D02*
X187528571Y-62501430D01*
X187528571Y-62501430D02*
X187604761Y-62463335D01*
X187604761Y-62463335D02*
X187795237Y-62463335D01*
X187795237Y-62463335D02*
X187871428Y-62501430D01*
X187871428Y-62501430D02*
X187909523Y-62539525D01*
X187909523Y-62539525D02*
X187947618Y-62615716D01*
X187947618Y-62615716D02*
X187947618Y-62691906D01*
X187947618Y-62691906D02*
X187909523Y-62806192D01*
X187909523Y-62806192D02*
X187452380Y-63263335D01*
X187452380Y-63263335D02*
X187947618Y-63263335D01*
X188442857Y-62463335D02*
X188519047Y-62463335D01*
X188519047Y-62463335D02*
X188595238Y-62501430D01*
X188595238Y-62501430D02*
X188633333Y-62539525D01*
X188633333Y-62539525D02*
X188671428Y-62615716D01*
X188671428Y-62615716D02*
X188709523Y-62768097D01*
X188709523Y-62768097D02*
X188709523Y-62958573D01*
X188709523Y-62958573D02*
X188671428Y-63110954D01*
X188671428Y-63110954D02*
X188633333Y-63187144D01*
X188633333Y-63187144D02*
X188595238Y-63225240D01*
X188595238Y-63225240D02*
X188519047Y-63263335D01*
X188519047Y-63263335D02*
X188442857Y-63263335D01*
X188442857Y-63263335D02*
X188366666Y-63225240D01*
X188366666Y-63225240D02*
X188328571Y-63187144D01*
X188328571Y-63187144D02*
X188290476Y-63110954D01*
X188290476Y-63110954D02*
X188252380Y-62958573D01*
X188252380Y-62958573D02*
X188252380Y-62768097D01*
X188252380Y-62768097D02*
X188290476Y-62615716D01*
X188290476Y-62615716D02*
X188328571Y-62539525D01*
X188328571Y-62539525D02*
X188366666Y-62501430D01*
X188366666Y-62501430D02*
X188442857Y-62463335D01*
D13*
X148061905Y-50854819D02*
X148061905Y-51664342D01*
X148061905Y-51664342D02*
X148109524Y-51759580D01*
X148109524Y-51759580D02*
X148157143Y-51807200D01*
X148157143Y-51807200D02*
X148252381Y-51854819D01*
X148252381Y-51854819D02*
X148442857Y-51854819D01*
X148442857Y-51854819D02*
X148538095Y-51807200D01*
X148538095Y-51807200D02*
X148585714Y-51759580D01*
X148585714Y-51759580D02*
X148633333Y-51664342D01*
X148633333Y-51664342D02*
X148633333Y-50854819D01*
X149061905Y-51807200D02*
X149204762Y-51854819D01*
X149204762Y-51854819D02*
X149442857Y-51854819D01*
X149442857Y-51854819D02*
X149538095Y-51807200D01*
X149538095Y-51807200D02*
X149585714Y-51759580D01*
X149585714Y-51759580D02*
X149633333Y-51664342D01*
X149633333Y-51664342D02*
X149633333Y-51569104D01*
X149633333Y-51569104D02*
X149585714Y-51473866D01*
X149585714Y-51473866D02*
X149538095Y-51426247D01*
X149538095Y-51426247D02*
X149442857Y-51378628D01*
X149442857Y-51378628D02*
X149252381Y-51331009D01*
X149252381Y-51331009D02*
X149157143Y-51283390D01*
X149157143Y-51283390D02*
X149109524Y-51235771D01*
X149109524Y-51235771D02*
X149061905Y-51140533D01*
X149061905Y-51140533D02*
X149061905Y-51045295D01*
X149061905Y-51045295D02*
X149109524Y-50950057D01*
X149109524Y-50950057D02*
X149157143Y-50902438D01*
X149157143Y-50902438D02*
X149252381Y-50854819D01*
X149252381Y-50854819D02*
X149490476Y-50854819D01*
X149490476Y-50854819D02*
X149633333Y-50902438D01*
X150395238Y-51331009D02*
X150538095Y-51378628D01*
X150538095Y-51378628D02*
X150585714Y-51426247D01*
X150585714Y-51426247D02*
X150633333Y-51521485D01*
X150633333Y-51521485D02*
X150633333Y-51664342D01*
X150633333Y-51664342D02*
X150585714Y-51759580D01*
X150585714Y-51759580D02*
X150538095Y-51807200D01*
X150538095Y-51807200D02*
X150442857Y-51854819D01*
X150442857Y-51854819D02*
X150061905Y-51854819D01*
X150061905Y-51854819D02*
X150061905Y-50854819D01*
X150061905Y-50854819D02*
X150395238Y-50854819D01*
X150395238Y-50854819D02*
X150490476Y-50902438D01*
X150490476Y-50902438D02*
X150538095Y-50950057D01*
X150538095Y-50950057D02*
X150585714Y-51045295D01*
X150585714Y-51045295D02*
X150585714Y-51140533D01*
X150585714Y-51140533D02*
X150538095Y-51235771D01*
X150538095Y-51235771D02*
X150490476Y-51283390D01*
X150490476Y-51283390D02*
X150395238Y-51331009D01*
X150395238Y-51331009D02*
X150061905Y-51331009D01*
X151585714Y-51854819D02*
X151014286Y-51854819D01*
X151300000Y-51854819D02*
X151300000Y-50854819D01*
X151300000Y-50854819D02*
X151204762Y-50997676D01*
X151204762Y-50997676D02*
X151109524Y-51092914D01*
X151109524Y-51092914D02*
X151014286Y-51140533D01*
X163901905Y-60214819D02*
X163901905Y-59214819D01*
X164473333Y-60214819D02*
X164044762Y-59643390D01*
X164473333Y-59214819D02*
X163901905Y-59786247D01*
X165235238Y-59691009D02*
X165378095Y-59738628D01*
X165378095Y-59738628D02*
X165425714Y-59786247D01*
X165425714Y-59786247D02*
X165473333Y-59881485D01*
X165473333Y-59881485D02*
X165473333Y-60024342D01*
X165473333Y-60024342D02*
X165425714Y-60119580D01*
X165425714Y-60119580D02*
X165378095Y-60167200D01*
X165378095Y-60167200D02*
X165282857Y-60214819D01*
X165282857Y-60214819D02*
X164901905Y-60214819D01*
X164901905Y-60214819D02*
X164901905Y-59214819D01*
X164901905Y-59214819D02*
X165235238Y-59214819D01*
X165235238Y-59214819D02*
X165330476Y-59262438D01*
X165330476Y-59262438D02*
X165378095Y-59310057D01*
X165378095Y-59310057D02*
X165425714Y-59405295D01*
X165425714Y-59405295D02*
X165425714Y-59500533D01*
X165425714Y-59500533D02*
X165378095Y-59595771D01*
X165378095Y-59595771D02*
X165330476Y-59643390D01*
X165330476Y-59643390D02*
X165235238Y-59691009D01*
X165235238Y-59691009D02*
X164901905Y-59691009D01*
X166425714Y-60214819D02*
X165854286Y-60214819D01*
X166140000Y-60214819D02*
X166140000Y-59214819D01*
X166140000Y-59214819D02*
X166044762Y-59357676D01*
X166044762Y-59357676D02*
X165949524Y-59452914D01*
X165949524Y-59452914D02*
X165854286Y-59500533D01*
D12*
X152349886Y-87162500D02*
X152383220Y-87195833D01*
X152383220Y-87195833D02*
X152416553Y-87295833D01*
X152416553Y-87295833D02*
X152416553Y-87362500D01*
X152416553Y-87362500D02*
X152383220Y-87462500D01*
X152383220Y-87462500D02*
X152316553Y-87529167D01*
X152316553Y-87529167D02*
X152249886Y-87562500D01*
X152249886Y-87562500D02*
X152116553Y-87595833D01*
X152116553Y-87595833D02*
X152016553Y-87595833D01*
X152016553Y-87595833D02*
X151883220Y-87562500D01*
X151883220Y-87562500D02*
X151816553Y-87529167D01*
X151816553Y-87529167D02*
X151749886Y-87462500D01*
X151749886Y-87462500D02*
X151716553Y-87362500D01*
X151716553Y-87362500D02*
X151716553Y-87295833D01*
X151716553Y-87295833D02*
X151749886Y-87195833D01*
X151749886Y-87195833D02*
X151783220Y-87162500D01*
X152416553Y-86495833D02*
X152416553Y-86895833D01*
X152416553Y-86695833D02*
X151716553Y-86695833D01*
X151716553Y-86695833D02*
X151816553Y-86762500D01*
X151816553Y-86762500D02*
X151883220Y-86829167D01*
X151883220Y-86829167D02*
X151916553Y-86895833D01*
X151716553Y-86262500D02*
X151716553Y-85829166D01*
X151716553Y-85829166D02*
X151983220Y-86062500D01*
X151983220Y-86062500D02*
X151983220Y-85962500D01*
X151983220Y-85962500D02*
X152016553Y-85895833D01*
X152016553Y-85895833D02*
X152049886Y-85862500D01*
X152049886Y-85862500D02*
X152116553Y-85829166D01*
X152116553Y-85829166D02*
X152283220Y-85829166D01*
X152283220Y-85829166D02*
X152349886Y-85862500D01*
X152349886Y-85862500D02*
X152383220Y-85895833D01*
X152383220Y-85895833D02*
X152416553Y-85962500D01*
X152416553Y-85962500D02*
X152416553Y-86162500D01*
X152416553Y-86162500D02*
X152383220Y-86229166D01*
X152383220Y-86229166D02*
X152349886Y-86262500D01*
X138949999Y-75416553D02*
X138716666Y-75083220D01*
X138549999Y-75416553D02*
X138549999Y-74716553D01*
X138549999Y-74716553D02*
X138816666Y-74716553D01*
X138816666Y-74716553D02*
X138883333Y-74749886D01*
X138883333Y-74749886D02*
X138916666Y-74783220D01*
X138916666Y-74783220D02*
X138949999Y-74849886D01*
X138949999Y-74849886D02*
X138949999Y-74949886D01*
X138949999Y-74949886D02*
X138916666Y-75016553D01*
X138916666Y-75016553D02*
X138883333Y-75049886D01*
X138883333Y-75049886D02*
X138816666Y-75083220D01*
X138816666Y-75083220D02*
X138549999Y-75083220D01*
X139216666Y-74783220D02*
X139249999Y-74749886D01*
X139249999Y-74749886D02*
X139316666Y-74716553D01*
X139316666Y-74716553D02*
X139483333Y-74716553D01*
X139483333Y-74716553D02*
X139549999Y-74749886D01*
X139549999Y-74749886D02*
X139583333Y-74783220D01*
X139583333Y-74783220D02*
X139616666Y-74849886D01*
X139616666Y-74849886D02*
X139616666Y-74916553D01*
X139616666Y-74916553D02*
X139583333Y-75016553D01*
X139583333Y-75016553D02*
X139183333Y-75416553D01*
X139183333Y-75416553D02*
X139616666Y-75416553D01*
X140016666Y-75016553D02*
X139950000Y-74983220D01*
X139950000Y-74983220D02*
X139916666Y-74949886D01*
X139916666Y-74949886D02*
X139883333Y-74883220D01*
X139883333Y-74883220D02*
X139883333Y-74849886D01*
X139883333Y-74849886D02*
X139916666Y-74783220D01*
X139916666Y-74783220D02*
X139950000Y-74749886D01*
X139950000Y-74749886D02*
X140016666Y-74716553D01*
X140016666Y-74716553D02*
X140150000Y-74716553D01*
X140150000Y-74716553D02*
X140216666Y-74749886D01*
X140216666Y-74749886D02*
X140250000Y-74783220D01*
X140250000Y-74783220D02*
X140283333Y-74849886D01*
X140283333Y-74849886D02*
X140283333Y-74883220D01*
X140283333Y-74883220D02*
X140250000Y-74949886D01*
X140250000Y-74949886D02*
X140216666Y-74983220D01*
X140216666Y-74983220D02*
X140150000Y-75016553D01*
X140150000Y-75016553D02*
X140016666Y-75016553D01*
X140016666Y-75016553D02*
X139950000Y-75049886D01*
X139950000Y-75049886D02*
X139916666Y-75083220D01*
X139916666Y-75083220D02*
X139883333Y-75149886D01*
X139883333Y-75149886D02*
X139883333Y-75283220D01*
X139883333Y-75283220D02*
X139916666Y-75349886D01*
X139916666Y-75349886D02*
X139950000Y-75383220D01*
X139950000Y-75383220D02*
X140016666Y-75416553D01*
X140016666Y-75416553D02*
X140150000Y-75416553D01*
X140150000Y-75416553D02*
X140216666Y-75383220D01*
X140216666Y-75383220D02*
X140250000Y-75349886D01*
X140250000Y-75349886D02*
X140283333Y-75283220D01*
X140283333Y-75283220D02*
X140283333Y-75149886D01*
X140283333Y-75149886D02*
X140250000Y-75083220D01*
X140250000Y-75083220D02*
X140216666Y-75049886D01*
X140216666Y-75049886D02*
X140150000Y-75016553D01*
X140749999Y-83116553D02*
X140516666Y-82783220D01*
X140349999Y-83116553D02*
X140349999Y-82416553D01*
X140349999Y-82416553D02*
X140616666Y-82416553D01*
X140616666Y-82416553D02*
X140683333Y-82449886D01*
X140683333Y-82449886D02*
X140716666Y-82483220D01*
X140716666Y-82483220D02*
X140749999Y-82549886D01*
X140749999Y-82549886D02*
X140749999Y-82649886D01*
X140749999Y-82649886D02*
X140716666Y-82716553D01*
X140716666Y-82716553D02*
X140683333Y-82749886D01*
X140683333Y-82749886D02*
X140616666Y-82783220D01*
X140616666Y-82783220D02*
X140349999Y-82783220D01*
X141416666Y-83116553D02*
X141016666Y-83116553D01*
X141216666Y-83116553D02*
X141216666Y-82416553D01*
X141216666Y-82416553D02*
X141149999Y-82516553D01*
X141149999Y-82516553D02*
X141083333Y-82583220D01*
X141083333Y-82583220D02*
X141016666Y-82616553D01*
X141750000Y-83116553D02*
X141883333Y-83116553D01*
X141883333Y-83116553D02*
X141950000Y-83083220D01*
X141950000Y-83083220D02*
X141983333Y-83049886D01*
X141983333Y-83049886D02*
X142050000Y-82949886D01*
X142050000Y-82949886D02*
X142083333Y-82816553D01*
X142083333Y-82816553D02*
X142083333Y-82549886D01*
X142083333Y-82549886D02*
X142050000Y-82483220D01*
X142050000Y-82483220D02*
X142016666Y-82449886D01*
X142016666Y-82449886D02*
X141950000Y-82416553D01*
X141950000Y-82416553D02*
X141816666Y-82416553D01*
X141816666Y-82416553D02*
X141750000Y-82449886D01*
X141750000Y-82449886D02*
X141716666Y-82483220D01*
X141716666Y-82483220D02*
X141683333Y-82549886D01*
X141683333Y-82549886D02*
X141683333Y-82716553D01*
X141683333Y-82716553D02*
X141716666Y-82783220D01*
X141716666Y-82783220D02*
X141750000Y-82816553D01*
X141750000Y-82816553D02*
X141816666Y-82849886D01*
X141816666Y-82849886D02*
X141950000Y-82849886D01*
X141950000Y-82849886D02*
X142016666Y-82816553D01*
X142016666Y-82816553D02*
X142050000Y-82783220D01*
X142050000Y-82783220D02*
X142083333Y-82716553D01*
X128987499Y-59649886D02*
X128954166Y-59683220D01*
X128954166Y-59683220D02*
X128854166Y-59716553D01*
X128854166Y-59716553D02*
X128787499Y-59716553D01*
X128787499Y-59716553D02*
X128687499Y-59683220D01*
X128687499Y-59683220D02*
X128620833Y-59616553D01*
X128620833Y-59616553D02*
X128587499Y-59549886D01*
X128587499Y-59549886D02*
X128554166Y-59416553D01*
X128554166Y-59416553D02*
X128554166Y-59316553D01*
X128554166Y-59316553D02*
X128587499Y-59183220D01*
X128587499Y-59183220D02*
X128620833Y-59116553D01*
X128620833Y-59116553D02*
X128687499Y-59049886D01*
X128687499Y-59049886D02*
X128787499Y-59016553D01*
X128787499Y-59016553D02*
X128854166Y-59016553D01*
X128854166Y-59016553D02*
X128954166Y-59049886D01*
X128954166Y-59049886D02*
X128987499Y-59083220D01*
X129254166Y-59083220D02*
X129287499Y-59049886D01*
X129287499Y-59049886D02*
X129354166Y-59016553D01*
X129354166Y-59016553D02*
X129520833Y-59016553D01*
X129520833Y-59016553D02*
X129587499Y-59049886D01*
X129587499Y-59049886D02*
X129620833Y-59083220D01*
X129620833Y-59083220D02*
X129654166Y-59149886D01*
X129654166Y-59149886D02*
X129654166Y-59216553D01*
X129654166Y-59216553D02*
X129620833Y-59316553D01*
X129620833Y-59316553D02*
X129220833Y-59716553D01*
X129220833Y-59716553D02*
X129654166Y-59716553D01*
X130254166Y-59249886D02*
X130254166Y-59716553D01*
X130087500Y-58983220D02*
X129920833Y-59483220D01*
X129920833Y-59483220D02*
X130354166Y-59483220D01*
D14*
X187616666Y-86217593D02*
X187616666Y-86717593D01*
X187616666Y-86717593D02*
X187583333Y-86817593D01*
X187583333Y-86817593D02*
X187516666Y-86884260D01*
X187516666Y-86884260D02*
X187416666Y-86917593D01*
X187416666Y-86917593D02*
X187350000Y-86917593D01*
X187949999Y-86917593D02*
X187949999Y-86217593D01*
X187949999Y-86217593D02*
X188216666Y-86217593D01*
X188216666Y-86217593D02*
X188283333Y-86250926D01*
X188283333Y-86250926D02*
X188316666Y-86284260D01*
X188316666Y-86284260D02*
X188349999Y-86350926D01*
X188349999Y-86350926D02*
X188349999Y-86450926D01*
X188349999Y-86450926D02*
X188316666Y-86517593D01*
X188316666Y-86517593D02*
X188283333Y-86550926D01*
X188283333Y-86550926D02*
X188216666Y-86584260D01*
X188216666Y-86584260D02*
X187949999Y-86584260D01*
X189016666Y-86917593D02*
X188616666Y-86917593D01*
X188816666Y-86917593D02*
X188816666Y-86217593D01*
X188816666Y-86217593D02*
X188749999Y-86317593D01*
X188749999Y-86317593D02*
X188683333Y-86384260D01*
X188683333Y-86384260D02*
X188616666Y-86417593D01*
D12*
X164049886Y-72616666D02*
X164083220Y-72649999D01*
X164083220Y-72649999D02*
X164116553Y-72749999D01*
X164116553Y-72749999D02*
X164116553Y-72816666D01*
X164116553Y-72816666D02*
X164083220Y-72916666D01*
X164083220Y-72916666D02*
X164016553Y-72983333D01*
X164016553Y-72983333D02*
X163949886Y-73016666D01*
X163949886Y-73016666D02*
X163816553Y-73049999D01*
X163816553Y-73049999D02*
X163716553Y-73049999D01*
X163716553Y-73049999D02*
X163583220Y-73016666D01*
X163583220Y-73016666D02*
X163516553Y-72983333D01*
X163516553Y-72983333D02*
X163449886Y-72916666D01*
X163449886Y-72916666D02*
X163416553Y-72816666D01*
X163416553Y-72816666D02*
X163416553Y-72749999D01*
X163416553Y-72749999D02*
X163449886Y-72649999D01*
X163449886Y-72649999D02*
X163483220Y-72616666D01*
X163483220Y-72349999D02*
X163449886Y-72316666D01*
X163449886Y-72316666D02*
X163416553Y-72249999D01*
X163416553Y-72249999D02*
X163416553Y-72083333D01*
X163416553Y-72083333D02*
X163449886Y-72016666D01*
X163449886Y-72016666D02*
X163483220Y-71983333D01*
X163483220Y-71983333D02*
X163549886Y-71949999D01*
X163549886Y-71949999D02*
X163616553Y-71949999D01*
X163616553Y-71949999D02*
X163716553Y-71983333D01*
X163716553Y-71983333D02*
X164116553Y-72383333D01*
X164116553Y-72383333D02*
X164116553Y-71949999D01*
X156649886Y-80254166D02*
X156683220Y-80287499D01*
X156683220Y-80287499D02*
X156716553Y-80387499D01*
X156716553Y-80387499D02*
X156716553Y-80454166D01*
X156716553Y-80454166D02*
X156683220Y-80554166D01*
X156683220Y-80554166D02*
X156616553Y-80620833D01*
X156616553Y-80620833D02*
X156549886Y-80654166D01*
X156549886Y-80654166D02*
X156416553Y-80687499D01*
X156416553Y-80687499D02*
X156316553Y-80687499D01*
X156316553Y-80687499D02*
X156183220Y-80654166D01*
X156183220Y-80654166D02*
X156116553Y-80620833D01*
X156116553Y-80620833D02*
X156049886Y-80554166D01*
X156049886Y-80554166D02*
X156016553Y-80454166D01*
X156016553Y-80454166D02*
X156016553Y-80387499D01*
X156016553Y-80387499D02*
X156049886Y-80287499D01*
X156049886Y-80287499D02*
X156083220Y-80254166D01*
X156716553Y-79587499D02*
X156716553Y-79987499D01*
X156716553Y-79787499D02*
X156016553Y-79787499D01*
X156016553Y-79787499D02*
X156116553Y-79854166D01*
X156116553Y-79854166D02*
X156183220Y-79920833D01*
X156183220Y-79920833D02*
X156216553Y-79987499D01*
X189349999Y-58916553D02*
X189116666Y-58583220D01*
X188949999Y-58916553D02*
X188949999Y-58216553D01*
X188949999Y-58216553D02*
X189216666Y-58216553D01*
X189216666Y-58216553D02*
X189283333Y-58249886D01*
X189283333Y-58249886D02*
X189316666Y-58283220D01*
X189316666Y-58283220D02*
X189349999Y-58349886D01*
X189349999Y-58349886D02*
X189349999Y-58449886D01*
X189349999Y-58449886D02*
X189316666Y-58516553D01*
X189316666Y-58516553D02*
X189283333Y-58549886D01*
X189283333Y-58549886D02*
X189216666Y-58583220D01*
X189216666Y-58583220D02*
X188949999Y-58583220D01*
X190016666Y-58916553D02*
X189616666Y-58916553D01*
X189816666Y-58916553D02*
X189816666Y-58216553D01*
X189816666Y-58216553D02*
X189749999Y-58316553D01*
X189749999Y-58316553D02*
X189683333Y-58383220D01*
X189683333Y-58383220D02*
X189616666Y-58416553D01*
X190616666Y-58449886D02*
X190616666Y-58916553D01*
X190450000Y-58183220D02*
X190283333Y-58683220D01*
X190283333Y-58683220D02*
X190716666Y-58683220D01*
X170783333Y-76316553D02*
X170449999Y-76316553D01*
X170449999Y-76316553D02*
X170449999Y-75616553D01*
X171383333Y-76316553D02*
X170983333Y-76316553D01*
X171183333Y-76316553D02*
X171183333Y-75616553D01*
X171183333Y-75616553D02*
X171116666Y-75716553D01*
X171116666Y-75716553D02*
X171050000Y-75783220D01*
X171050000Y-75783220D02*
X170983333Y-75816553D01*
X138949999Y-71616553D02*
X138716666Y-71283220D01*
X138549999Y-71616553D02*
X138549999Y-70916553D01*
X138549999Y-70916553D02*
X138816666Y-70916553D01*
X138816666Y-70916553D02*
X138883333Y-70949886D01*
X138883333Y-70949886D02*
X138916666Y-70983220D01*
X138916666Y-70983220D02*
X138949999Y-71049886D01*
X138949999Y-71049886D02*
X138949999Y-71149886D01*
X138949999Y-71149886D02*
X138916666Y-71216553D01*
X138916666Y-71216553D02*
X138883333Y-71249886D01*
X138883333Y-71249886D02*
X138816666Y-71283220D01*
X138816666Y-71283220D02*
X138549999Y-71283220D01*
X139216666Y-70983220D02*
X139249999Y-70949886D01*
X139249999Y-70949886D02*
X139316666Y-70916553D01*
X139316666Y-70916553D02*
X139483333Y-70916553D01*
X139483333Y-70916553D02*
X139549999Y-70949886D01*
X139549999Y-70949886D02*
X139583333Y-70983220D01*
X139583333Y-70983220D02*
X139616666Y-71049886D01*
X139616666Y-71049886D02*
X139616666Y-71116553D01*
X139616666Y-71116553D02*
X139583333Y-71216553D01*
X139583333Y-71216553D02*
X139183333Y-71616553D01*
X139183333Y-71616553D02*
X139616666Y-71616553D01*
X140216666Y-71149886D02*
X140216666Y-71616553D01*
X140050000Y-70883220D02*
X139883333Y-71383220D01*
X139883333Y-71383220D02*
X140316666Y-71383220D01*
X138312499Y-59649886D02*
X138279166Y-59683220D01*
X138279166Y-59683220D02*
X138179166Y-59716553D01*
X138179166Y-59716553D02*
X138112499Y-59716553D01*
X138112499Y-59716553D02*
X138012499Y-59683220D01*
X138012499Y-59683220D02*
X137945833Y-59616553D01*
X137945833Y-59616553D02*
X137912499Y-59549886D01*
X137912499Y-59549886D02*
X137879166Y-59416553D01*
X137879166Y-59416553D02*
X137879166Y-59316553D01*
X137879166Y-59316553D02*
X137912499Y-59183220D01*
X137912499Y-59183220D02*
X137945833Y-59116553D01*
X137945833Y-59116553D02*
X138012499Y-59049886D01*
X138012499Y-59049886D02*
X138112499Y-59016553D01*
X138112499Y-59016553D02*
X138179166Y-59016553D01*
X138179166Y-59016553D02*
X138279166Y-59049886D01*
X138279166Y-59049886D02*
X138312499Y-59083220D01*
X138979166Y-59716553D02*
X138579166Y-59716553D01*
X138779166Y-59716553D02*
X138779166Y-59016553D01*
X138779166Y-59016553D02*
X138712499Y-59116553D01*
X138712499Y-59116553D02*
X138645833Y-59183220D01*
X138645833Y-59183220D02*
X138579166Y-59216553D01*
X139579166Y-59249886D02*
X139579166Y-59716553D01*
X139412500Y-58983220D02*
X139245833Y-59483220D01*
X139245833Y-59483220D02*
X139679166Y-59483220D01*
X160116553Y-63491666D02*
X159783220Y-63724999D01*
X160116553Y-63891666D02*
X159416553Y-63891666D01*
X159416553Y-63891666D02*
X159416553Y-63624999D01*
X159416553Y-63624999D02*
X159449886Y-63558333D01*
X159449886Y-63558333D02*
X159483220Y-63524999D01*
X159483220Y-63524999D02*
X159549886Y-63491666D01*
X159549886Y-63491666D02*
X159649886Y-63491666D01*
X159649886Y-63491666D02*
X159716553Y-63524999D01*
X159716553Y-63524999D02*
X159749886Y-63558333D01*
X159749886Y-63558333D02*
X159783220Y-63624999D01*
X159783220Y-63624999D02*
X159783220Y-63891666D01*
X159483220Y-63224999D02*
X159449886Y-63191666D01*
X159449886Y-63191666D02*
X159416553Y-63124999D01*
X159416553Y-63124999D02*
X159416553Y-62958333D01*
X159416553Y-62958333D02*
X159449886Y-62891666D01*
X159449886Y-62891666D02*
X159483220Y-62858333D01*
X159483220Y-62858333D02*
X159549886Y-62824999D01*
X159549886Y-62824999D02*
X159616553Y-62824999D01*
X159616553Y-62824999D02*
X159716553Y-62858333D01*
X159716553Y-62858333D02*
X160116553Y-63258333D01*
X160116553Y-63258333D02*
X160116553Y-62824999D01*
X156149886Y-63454166D02*
X156183220Y-63487499D01*
X156183220Y-63487499D02*
X156216553Y-63587499D01*
X156216553Y-63587499D02*
X156216553Y-63654166D01*
X156216553Y-63654166D02*
X156183220Y-63754166D01*
X156183220Y-63754166D02*
X156116553Y-63820833D01*
X156116553Y-63820833D02*
X156049886Y-63854166D01*
X156049886Y-63854166D02*
X155916553Y-63887499D01*
X155916553Y-63887499D02*
X155816553Y-63887499D01*
X155816553Y-63887499D02*
X155683220Y-63854166D01*
X155683220Y-63854166D02*
X155616553Y-63820833D01*
X155616553Y-63820833D02*
X155549886Y-63754166D01*
X155549886Y-63754166D02*
X155516553Y-63654166D01*
X155516553Y-63654166D02*
X155516553Y-63587499D01*
X155516553Y-63587499D02*
X155549886Y-63487499D01*
X155549886Y-63487499D02*
X155583220Y-63454166D01*
X155516553Y-62820833D02*
X155516553Y-63154166D01*
X155516553Y-63154166D02*
X155849886Y-63187499D01*
X155849886Y-63187499D02*
X155816553Y-63154166D01*
X155816553Y-63154166D02*
X155783220Y-63087499D01*
X155783220Y-63087499D02*
X155783220Y-62920833D01*
X155783220Y-62920833D02*
X155816553Y-62854166D01*
X155816553Y-62854166D02*
X155849886Y-62820833D01*
X155849886Y-62820833D02*
X155916553Y-62787499D01*
X155916553Y-62787499D02*
X156083220Y-62787499D01*
X156083220Y-62787499D02*
X156149886Y-62820833D01*
X156149886Y-62820833D02*
X156183220Y-62854166D01*
X156183220Y-62854166D02*
X156216553Y-62920833D01*
X156216553Y-62920833D02*
X156216553Y-63087499D01*
X156216553Y-63087499D02*
X156183220Y-63154166D01*
X156183220Y-63154166D02*
X156149886Y-63187499D01*
X135183333Y-82416553D02*
X134950000Y-82083220D01*
X134783333Y-82416553D02*
X134783333Y-81716553D01*
X134783333Y-81716553D02*
X135050000Y-81716553D01*
X135050000Y-81716553D02*
X135116667Y-81749886D01*
X135116667Y-81749886D02*
X135150000Y-81783220D01*
X135150000Y-81783220D02*
X135183333Y-81849886D01*
X135183333Y-81849886D02*
X135183333Y-81949886D01*
X135183333Y-81949886D02*
X135150000Y-82016553D01*
X135150000Y-82016553D02*
X135116667Y-82049886D01*
X135116667Y-82049886D02*
X135050000Y-82083220D01*
X135050000Y-82083220D02*
X134783333Y-82083220D01*
X135416667Y-81716553D02*
X135850000Y-81716553D01*
X135850000Y-81716553D02*
X135616667Y-81983220D01*
X135616667Y-81983220D02*
X135716667Y-81983220D01*
X135716667Y-81983220D02*
X135783333Y-82016553D01*
X135783333Y-82016553D02*
X135816667Y-82049886D01*
X135816667Y-82049886D02*
X135850000Y-82116553D01*
X135850000Y-82116553D02*
X135850000Y-82283220D01*
X135850000Y-82283220D02*
X135816667Y-82349886D01*
X135816667Y-82349886D02*
X135783333Y-82383220D01*
X135783333Y-82383220D02*
X135716667Y-82416553D01*
X135716667Y-82416553D02*
X135516667Y-82416553D01*
X135516667Y-82416553D02*
X135450000Y-82383220D01*
X135450000Y-82383220D02*
X135416667Y-82349886D01*
X154049886Y-80287500D02*
X154083220Y-80320833D01*
X154083220Y-80320833D02*
X154116553Y-80420833D01*
X154116553Y-80420833D02*
X154116553Y-80487500D01*
X154116553Y-80487500D02*
X154083220Y-80587500D01*
X154083220Y-80587500D02*
X154016553Y-80654167D01*
X154016553Y-80654167D02*
X153949886Y-80687500D01*
X153949886Y-80687500D02*
X153816553Y-80720833D01*
X153816553Y-80720833D02*
X153716553Y-80720833D01*
X153716553Y-80720833D02*
X153583220Y-80687500D01*
X153583220Y-80687500D02*
X153516553Y-80654167D01*
X153516553Y-80654167D02*
X153449886Y-80587500D01*
X153449886Y-80587500D02*
X153416553Y-80487500D01*
X153416553Y-80487500D02*
X153416553Y-80420833D01*
X153416553Y-80420833D02*
X153449886Y-80320833D01*
X153449886Y-80320833D02*
X153483220Y-80287500D01*
X154116553Y-79620833D02*
X154116553Y-80020833D01*
X154116553Y-79820833D02*
X153416553Y-79820833D01*
X153416553Y-79820833D02*
X153516553Y-79887500D01*
X153516553Y-79887500D02*
X153583220Y-79954167D01*
X153583220Y-79954167D02*
X153616553Y-80020833D01*
X153416553Y-79187500D02*
X153416553Y-79120833D01*
X153416553Y-79120833D02*
X153449886Y-79054166D01*
X153449886Y-79054166D02*
X153483220Y-79020833D01*
X153483220Y-79020833D02*
X153549886Y-78987500D01*
X153549886Y-78987500D02*
X153683220Y-78954166D01*
X153683220Y-78954166D02*
X153849886Y-78954166D01*
X153849886Y-78954166D02*
X153983220Y-78987500D01*
X153983220Y-78987500D02*
X154049886Y-79020833D01*
X154049886Y-79020833D02*
X154083220Y-79054166D01*
X154083220Y-79054166D02*
X154116553Y-79120833D01*
X154116553Y-79120833D02*
X154116553Y-79187500D01*
X154116553Y-79187500D02*
X154083220Y-79254166D01*
X154083220Y-79254166D02*
X154049886Y-79287500D01*
X154049886Y-79287500D02*
X153983220Y-79320833D01*
X153983220Y-79320833D02*
X153849886Y-79354166D01*
X153849886Y-79354166D02*
X153683220Y-79354166D01*
X153683220Y-79354166D02*
X153549886Y-79320833D01*
X153549886Y-79320833D02*
X153483220Y-79287500D01*
X153483220Y-79287500D02*
X153449886Y-79254166D01*
X153449886Y-79254166D02*
X153416553Y-79187500D01*
D14*
X181817593Y-81383333D02*
X182317593Y-81383333D01*
X182317593Y-81383333D02*
X182417593Y-81416666D01*
X182417593Y-81416666D02*
X182484260Y-81483333D01*
X182484260Y-81483333D02*
X182517593Y-81583333D01*
X182517593Y-81583333D02*
X182517593Y-81650000D01*
X182517593Y-81050000D02*
X181817593Y-81050000D01*
X181817593Y-81050000D02*
X181817593Y-80783333D01*
X181817593Y-80783333D02*
X181850926Y-80716667D01*
X181850926Y-80716667D02*
X181884260Y-80683333D01*
X181884260Y-80683333D02*
X181950926Y-80650000D01*
X181950926Y-80650000D02*
X182050926Y-80650000D01*
X182050926Y-80650000D02*
X182117593Y-80683333D01*
X182117593Y-80683333D02*
X182150926Y-80716667D01*
X182150926Y-80716667D02*
X182184260Y-80783333D01*
X182184260Y-80783333D02*
X182184260Y-81050000D01*
X181884260Y-80383333D02*
X181850926Y-80350000D01*
X181850926Y-80350000D02*
X181817593Y-80283333D01*
X181817593Y-80283333D02*
X181817593Y-80116667D01*
X181817593Y-80116667D02*
X181850926Y-80050000D01*
X181850926Y-80050000D02*
X181884260Y-80016667D01*
X181884260Y-80016667D02*
X181950926Y-79983333D01*
X181950926Y-79983333D02*
X182017593Y-79983333D01*
X182017593Y-79983333D02*
X182117593Y-80016667D01*
X182117593Y-80016667D02*
X182517593Y-80416667D01*
X182517593Y-80416667D02*
X182517593Y-79983333D01*
D12*
X149583333Y-73349886D02*
X149550000Y-73383220D01*
X149550000Y-73383220D02*
X149450000Y-73416553D01*
X149450000Y-73416553D02*
X149383333Y-73416553D01*
X149383333Y-73416553D02*
X149283333Y-73383220D01*
X149283333Y-73383220D02*
X149216667Y-73316553D01*
X149216667Y-73316553D02*
X149183333Y-73249886D01*
X149183333Y-73249886D02*
X149150000Y-73116553D01*
X149150000Y-73116553D02*
X149150000Y-73016553D01*
X149150000Y-73016553D02*
X149183333Y-72883220D01*
X149183333Y-72883220D02*
X149216667Y-72816553D01*
X149216667Y-72816553D02*
X149283333Y-72749886D01*
X149283333Y-72749886D02*
X149383333Y-72716553D01*
X149383333Y-72716553D02*
X149450000Y-72716553D01*
X149450000Y-72716553D02*
X149550000Y-72749886D01*
X149550000Y-72749886D02*
X149583333Y-72783220D01*
X149916667Y-73416553D02*
X150050000Y-73416553D01*
X150050000Y-73416553D02*
X150116667Y-73383220D01*
X150116667Y-73383220D02*
X150150000Y-73349886D01*
X150150000Y-73349886D02*
X150216667Y-73249886D01*
X150216667Y-73249886D02*
X150250000Y-73116553D01*
X150250000Y-73116553D02*
X150250000Y-72849886D01*
X150250000Y-72849886D02*
X150216667Y-72783220D01*
X150216667Y-72783220D02*
X150183333Y-72749886D01*
X150183333Y-72749886D02*
X150116667Y-72716553D01*
X150116667Y-72716553D02*
X149983333Y-72716553D01*
X149983333Y-72716553D02*
X149916667Y-72749886D01*
X149916667Y-72749886D02*
X149883333Y-72783220D01*
X149883333Y-72783220D02*
X149850000Y-72849886D01*
X149850000Y-72849886D02*
X149850000Y-73016553D01*
X149850000Y-73016553D02*
X149883333Y-73083220D01*
X149883333Y-73083220D02*
X149916667Y-73116553D01*
X149916667Y-73116553D02*
X149983333Y-73149886D01*
X149983333Y-73149886D02*
X150116667Y-73149886D01*
X150116667Y-73149886D02*
X150183333Y-73116553D01*
X150183333Y-73116553D02*
X150216667Y-73083220D01*
X150216667Y-73083220D02*
X150250000Y-73016553D01*
X189349999Y-61049886D02*
X189316666Y-61083220D01*
X189316666Y-61083220D02*
X189216666Y-61116553D01*
X189216666Y-61116553D02*
X189149999Y-61116553D01*
X189149999Y-61116553D02*
X189049999Y-61083220D01*
X189049999Y-61083220D02*
X188983333Y-61016553D01*
X188983333Y-61016553D02*
X188949999Y-60949886D01*
X188949999Y-60949886D02*
X188916666Y-60816553D01*
X188916666Y-60816553D02*
X188916666Y-60716553D01*
X188916666Y-60716553D02*
X188949999Y-60583220D01*
X188949999Y-60583220D02*
X188983333Y-60516553D01*
X188983333Y-60516553D02*
X189049999Y-60449886D01*
X189049999Y-60449886D02*
X189149999Y-60416553D01*
X189149999Y-60416553D02*
X189216666Y-60416553D01*
X189216666Y-60416553D02*
X189316666Y-60449886D01*
X189316666Y-60449886D02*
X189349999Y-60483220D01*
X189616666Y-60483220D02*
X189649999Y-60449886D01*
X189649999Y-60449886D02*
X189716666Y-60416553D01*
X189716666Y-60416553D02*
X189883333Y-60416553D01*
X189883333Y-60416553D02*
X189949999Y-60449886D01*
X189949999Y-60449886D02*
X189983333Y-60483220D01*
X189983333Y-60483220D02*
X190016666Y-60549886D01*
X190016666Y-60549886D02*
X190016666Y-60616553D01*
X190016666Y-60616553D02*
X189983333Y-60716553D01*
X189983333Y-60716553D02*
X189583333Y-61116553D01*
X189583333Y-61116553D02*
X190016666Y-61116553D01*
X190683333Y-61116553D02*
X190283333Y-61116553D01*
X190483333Y-61116553D02*
X190483333Y-60416553D01*
X190483333Y-60416553D02*
X190416666Y-60516553D01*
X190416666Y-60516553D02*
X190350000Y-60583220D01*
X190350000Y-60583220D02*
X190283333Y-60616553D01*
X180149999Y-67449886D02*
X180116666Y-67483220D01*
X180116666Y-67483220D02*
X180016666Y-67516553D01*
X180016666Y-67516553D02*
X179949999Y-67516553D01*
X179949999Y-67516553D02*
X179849999Y-67483220D01*
X179849999Y-67483220D02*
X179783333Y-67416553D01*
X179783333Y-67416553D02*
X179749999Y-67349886D01*
X179749999Y-67349886D02*
X179716666Y-67216553D01*
X179716666Y-67216553D02*
X179716666Y-67116553D01*
X179716666Y-67116553D02*
X179749999Y-66983220D01*
X179749999Y-66983220D02*
X179783333Y-66916553D01*
X179783333Y-66916553D02*
X179849999Y-66849886D01*
X179849999Y-66849886D02*
X179949999Y-66816553D01*
X179949999Y-66816553D02*
X180016666Y-66816553D01*
X180016666Y-66816553D02*
X180116666Y-66849886D01*
X180116666Y-66849886D02*
X180149999Y-66883220D01*
X180816666Y-67516553D02*
X180416666Y-67516553D01*
X180616666Y-67516553D02*
X180616666Y-66816553D01*
X180616666Y-66816553D02*
X180549999Y-66916553D01*
X180549999Y-66916553D02*
X180483333Y-66983220D01*
X180483333Y-66983220D02*
X180416666Y-67016553D01*
X181416666Y-66816553D02*
X181283333Y-66816553D01*
X181283333Y-66816553D02*
X181216666Y-66849886D01*
X181216666Y-66849886D02*
X181183333Y-66883220D01*
X181183333Y-66883220D02*
X181116666Y-66983220D01*
X181116666Y-66983220D02*
X181083333Y-67116553D01*
X181083333Y-67116553D02*
X181083333Y-67383220D01*
X181083333Y-67383220D02*
X181116666Y-67449886D01*
X181116666Y-67449886D02*
X181150000Y-67483220D01*
X181150000Y-67483220D02*
X181216666Y-67516553D01*
X181216666Y-67516553D02*
X181350000Y-67516553D01*
X181350000Y-67516553D02*
X181416666Y-67483220D01*
X181416666Y-67483220D02*
X181450000Y-67449886D01*
X181450000Y-67449886D02*
X181483333Y-67383220D01*
X181483333Y-67383220D02*
X181483333Y-67216553D01*
X181483333Y-67216553D02*
X181450000Y-67149886D01*
X181450000Y-67149886D02*
X181416666Y-67116553D01*
X181416666Y-67116553D02*
X181350000Y-67083220D01*
X181350000Y-67083220D02*
X181216666Y-67083220D01*
X181216666Y-67083220D02*
X181150000Y-67116553D01*
X181150000Y-67116553D02*
X181116666Y-67149886D01*
X181116666Y-67149886D02*
X181083333Y-67216553D01*
X150249886Y-58200000D02*
X150283220Y-58233333D01*
X150283220Y-58233333D02*
X150316553Y-58333333D01*
X150316553Y-58333333D02*
X150316553Y-58400000D01*
X150316553Y-58400000D02*
X150283220Y-58500000D01*
X150283220Y-58500000D02*
X150216553Y-58566667D01*
X150216553Y-58566667D02*
X150149886Y-58600000D01*
X150149886Y-58600000D02*
X150016553Y-58633333D01*
X150016553Y-58633333D02*
X149916553Y-58633333D01*
X149916553Y-58633333D02*
X149783220Y-58600000D01*
X149783220Y-58600000D02*
X149716553Y-58566667D01*
X149716553Y-58566667D02*
X149649886Y-58500000D01*
X149649886Y-58500000D02*
X149616553Y-58400000D01*
X149616553Y-58400000D02*
X149616553Y-58333333D01*
X149616553Y-58333333D02*
X149649886Y-58233333D01*
X149649886Y-58233333D02*
X149683220Y-58200000D01*
X150316553Y-57533333D02*
X150316553Y-57933333D01*
X150316553Y-57733333D02*
X149616553Y-57733333D01*
X149616553Y-57733333D02*
X149716553Y-57800000D01*
X149716553Y-57800000D02*
X149783220Y-57866667D01*
X149783220Y-57866667D02*
X149816553Y-57933333D01*
X149616553Y-57300000D02*
X149616553Y-56833333D01*
X149616553Y-56833333D02*
X150316553Y-57133333D01*
D13*
X135188095Y-52007200D02*
X135330952Y-52054819D01*
X135330952Y-52054819D02*
X135569047Y-52054819D01*
X135569047Y-52054819D02*
X135664285Y-52007200D01*
X135664285Y-52007200D02*
X135711904Y-51959580D01*
X135711904Y-51959580D02*
X135759523Y-51864342D01*
X135759523Y-51864342D02*
X135759523Y-51769104D01*
X135759523Y-51769104D02*
X135711904Y-51673866D01*
X135711904Y-51673866D02*
X135664285Y-51626247D01*
X135664285Y-51626247D02*
X135569047Y-51578628D01*
X135569047Y-51578628D02*
X135378571Y-51531009D01*
X135378571Y-51531009D02*
X135283333Y-51483390D01*
X135283333Y-51483390D02*
X135235714Y-51435771D01*
X135235714Y-51435771D02*
X135188095Y-51340533D01*
X135188095Y-51340533D02*
X135188095Y-51245295D01*
X135188095Y-51245295D02*
X135235714Y-51150057D01*
X135235714Y-51150057D02*
X135283333Y-51102438D01*
X135283333Y-51102438D02*
X135378571Y-51054819D01*
X135378571Y-51054819D02*
X135616666Y-51054819D01*
X135616666Y-51054819D02*
X135759523Y-51102438D01*
X136188095Y-52054819D02*
X136188095Y-51054819D01*
X136188095Y-51054819D02*
X136426190Y-51054819D01*
X136426190Y-51054819D02*
X136569047Y-51102438D01*
X136569047Y-51102438D02*
X136664285Y-51197676D01*
X136664285Y-51197676D02*
X136711904Y-51292914D01*
X136711904Y-51292914D02*
X136759523Y-51483390D01*
X136759523Y-51483390D02*
X136759523Y-51626247D01*
X136759523Y-51626247D02*
X136711904Y-51816723D01*
X136711904Y-51816723D02*
X136664285Y-51911961D01*
X136664285Y-51911961D02*
X136569047Y-52007200D01*
X136569047Y-52007200D02*
X136426190Y-52054819D01*
X136426190Y-52054819D02*
X136188095Y-52054819D01*
X137711904Y-52054819D02*
X137140476Y-52054819D01*
X137426190Y-52054819D02*
X137426190Y-51054819D01*
X137426190Y-51054819D02*
X137330952Y-51197676D01*
X137330952Y-51197676D02*
X137235714Y-51292914D01*
X137235714Y-51292914D02*
X137140476Y-51340533D01*
D12*
X172749999Y-83916553D02*
X172516666Y-83583220D01*
X172349999Y-83916553D02*
X172349999Y-83216553D01*
X172349999Y-83216553D02*
X172616666Y-83216553D01*
X172616666Y-83216553D02*
X172683333Y-83249886D01*
X172683333Y-83249886D02*
X172716666Y-83283220D01*
X172716666Y-83283220D02*
X172749999Y-83349886D01*
X172749999Y-83349886D02*
X172749999Y-83449886D01*
X172749999Y-83449886D02*
X172716666Y-83516553D01*
X172716666Y-83516553D02*
X172683333Y-83549886D01*
X172683333Y-83549886D02*
X172616666Y-83583220D01*
X172616666Y-83583220D02*
X172349999Y-83583220D01*
X173016666Y-83283220D02*
X173049999Y-83249886D01*
X173049999Y-83249886D02*
X173116666Y-83216553D01*
X173116666Y-83216553D02*
X173283333Y-83216553D01*
X173283333Y-83216553D02*
X173349999Y-83249886D01*
X173349999Y-83249886D02*
X173383333Y-83283220D01*
X173383333Y-83283220D02*
X173416666Y-83349886D01*
X173416666Y-83349886D02*
X173416666Y-83416553D01*
X173416666Y-83416553D02*
X173383333Y-83516553D01*
X173383333Y-83516553D02*
X172983333Y-83916553D01*
X172983333Y-83916553D02*
X173416666Y-83916553D01*
X173850000Y-83216553D02*
X173916666Y-83216553D01*
X173916666Y-83216553D02*
X173983333Y-83249886D01*
X173983333Y-83249886D02*
X174016666Y-83283220D01*
X174016666Y-83283220D02*
X174050000Y-83349886D01*
X174050000Y-83349886D02*
X174083333Y-83483220D01*
X174083333Y-83483220D02*
X174083333Y-83649886D01*
X174083333Y-83649886D02*
X174050000Y-83783220D01*
X174050000Y-83783220D02*
X174016666Y-83849886D01*
X174016666Y-83849886D02*
X173983333Y-83883220D01*
X173983333Y-83883220D02*
X173916666Y-83916553D01*
X173916666Y-83916553D02*
X173850000Y-83916553D01*
X173850000Y-83916553D02*
X173783333Y-83883220D01*
X173783333Y-83883220D02*
X173750000Y-83849886D01*
X173750000Y-83849886D02*
X173716666Y-83783220D01*
X173716666Y-83783220D02*
X173683333Y-83649886D01*
X173683333Y-83649886D02*
X173683333Y-83483220D01*
X173683333Y-83483220D02*
X173716666Y-83349886D01*
X173716666Y-83349886D02*
X173750000Y-83283220D01*
X173750000Y-83283220D02*
X173783333Y-83249886D01*
X173783333Y-83249886D02*
X173850000Y-83216553D01*
X152516553Y-58216666D02*
X152183220Y-58449999D01*
X152516553Y-58616666D02*
X151816553Y-58616666D01*
X151816553Y-58616666D02*
X151816553Y-58349999D01*
X151816553Y-58349999D02*
X151849886Y-58283333D01*
X151849886Y-58283333D02*
X151883220Y-58249999D01*
X151883220Y-58249999D02*
X151949886Y-58216666D01*
X151949886Y-58216666D02*
X152049886Y-58216666D01*
X152049886Y-58216666D02*
X152116553Y-58249999D01*
X152116553Y-58249999D02*
X152149886Y-58283333D01*
X152149886Y-58283333D02*
X152183220Y-58349999D01*
X152183220Y-58349999D02*
X152183220Y-58616666D01*
X151816553Y-57983333D02*
X151816553Y-57516666D01*
X151816553Y-57516666D02*
X152516553Y-57816666D01*
X161516553Y-80604166D02*
X160816553Y-80604166D01*
X160816553Y-80604166D02*
X160816553Y-80437499D01*
X160816553Y-80437499D02*
X160849886Y-80337499D01*
X160849886Y-80337499D02*
X160916553Y-80270833D01*
X160916553Y-80270833D02*
X160983220Y-80237499D01*
X160983220Y-80237499D02*
X161116553Y-80204166D01*
X161116553Y-80204166D02*
X161216553Y-80204166D01*
X161216553Y-80204166D02*
X161349886Y-80237499D01*
X161349886Y-80237499D02*
X161416553Y-80270833D01*
X161416553Y-80270833D02*
X161483220Y-80337499D01*
X161483220Y-80337499D02*
X161516553Y-80437499D01*
X161516553Y-80437499D02*
X161516553Y-80604166D01*
X161049886Y-79604166D02*
X161516553Y-79604166D01*
X160783220Y-79770833D02*
X161283220Y-79937499D01*
X161283220Y-79937499D02*
X161283220Y-79504166D01*
D13*
X128274819Y-73362427D02*
X127274819Y-73362427D01*
X127751009Y-73362427D02*
X127751009Y-72790999D01*
X128274819Y-72790999D02*
X127274819Y-72790999D01*
X128274819Y-72314808D02*
X127274819Y-72314808D01*
X127274819Y-72314808D02*
X127274819Y-72076713D01*
X127274819Y-72076713D02*
X127322438Y-71933856D01*
X127322438Y-71933856D02*
X127417676Y-71838618D01*
X127417676Y-71838618D02*
X127512914Y-71790999D01*
X127512914Y-71790999D02*
X127703390Y-71743380D01*
X127703390Y-71743380D02*
X127846247Y-71743380D01*
X127846247Y-71743380D02*
X128036723Y-71790999D01*
X128036723Y-71790999D02*
X128131961Y-71838618D01*
X128131961Y-71838618D02*
X128227200Y-71933856D01*
X128227200Y-71933856D02*
X128274819Y-72076713D01*
X128274819Y-72076713D02*
X128274819Y-72314808D01*
X128274819Y-71314808D02*
X127274819Y-71314808D01*
X127274819Y-71314808D02*
X127989104Y-70981475D01*
X127989104Y-70981475D02*
X127274819Y-70648142D01*
X127274819Y-70648142D02*
X128274819Y-70648142D01*
X128274819Y-70171951D02*
X127274819Y-70171951D01*
X128274819Y-69171952D02*
X128274819Y-69743380D01*
X128274819Y-69457666D02*
X127274819Y-69457666D01*
X127274819Y-69457666D02*
X127417676Y-69552904D01*
X127417676Y-69552904D02*
X127512914Y-69648142D01*
X127512914Y-69648142D02*
X127560533Y-69743380D01*
D12*
X138949999Y-67716553D02*
X138716666Y-67383220D01*
X138549999Y-67716553D02*
X138549999Y-67016553D01*
X138549999Y-67016553D02*
X138816666Y-67016553D01*
X138816666Y-67016553D02*
X138883333Y-67049886D01*
X138883333Y-67049886D02*
X138916666Y-67083220D01*
X138916666Y-67083220D02*
X138949999Y-67149886D01*
X138949999Y-67149886D02*
X138949999Y-67249886D01*
X138949999Y-67249886D02*
X138916666Y-67316553D01*
X138916666Y-67316553D02*
X138883333Y-67349886D01*
X138883333Y-67349886D02*
X138816666Y-67383220D01*
X138816666Y-67383220D02*
X138549999Y-67383220D01*
X139216666Y-67083220D02*
X139249999Y-67049886D01*
X139249999Y-67049886D02*
X139316666Y-67016553D01*
X139316666Y-67016553D02*
X139483333Y-67016553D01*
X139483333Y-67016553D02*
X139549999Y-67049886D01*
X139549999Y-67049886D02*
X139583333Y-67083220D01*
X139583333Y-67083220D02*
X139616666Y-67149886D01*
X139616666Y-67149886D02*
X139616666Y-67216553D01*
X139616666Y-67216553D02*
X139583333Y-67316553D01*
X139583333Y-67316553D02*
X139183333Y-67716553D01*
X139183333Y-67716553D02*
X139616666Y-67716553D01*
X139850000Y-67016553D02*
X140316666Y-67016553D01*
X140316666Y-67016553D02*
X140016666Y-67716553D01*
D11*
X177835714Y-71587144D02*
X177797618Y-71625240D01*
X177797618Y-71625240D02*
X177683333Y-71663335D01*
X177683333Y-71663335D02*
X177607142Y-71663335D01*
X177607142Y-71663335D02*
X177492856Y-71625240D01*
X177492856Y-71625240D02*
X177416666Y-71549049D01*
X177416666Y-71549049D02*
X177378571Y-71472859D01*
X177378571Y-71472859D02*
X177340475Y-71320478D01*
X177340475Y-71320478D02*
X177340475Y-71206192D01*
X177340475Y-71206192D02*
X177378571Y-71053811D01*
X177378571Y-71053811D02*
X177416666Y-70977620D01*
X177416666Y-70977620D02*
X177492856Y-70901430D01*
X177492856Y-70901430D02*
X177607142Y-70863335D01*
X177607142Y-70863335D02*
X177683333Y-70863335D01*
X177683333Y-70863335D02*
X177797618Y-70901430D01*
X177797618Y-70901430D02*
X177835714Y-70939525D01*
X178140475Y-70939525D02*
X178178571Y-70901430D01*
X178178571Y-70901430D02*
X178254761Y-70863335D01*
X178254761Y-70863335D02*
X178445237Y-70863335D01*
X178445237Y-70863335D02*
X178521428Y-70901430D01*
X178521428Y-70901430D02*
X178559523Y-70939525D01*
X178559523Y-70939525D02*
X178597618Y-71015716D01*
X178597618Y-71015716D02*
X178597618Y-71091906D01*
X178597618Y-71091906D02*
X178559523Y-71206192D01*
X178559523Y-71206192D02*
X178102380Y-71663335D01*
X178102380Y-71663335D02*
X178597618Y-71663335D01*
X178864285Y-70863335D02*
X179359523Y-70863335D01*
X179359523Y-70863335D02*
X179092857Y-71168097D01*
X179092857Y-71168097D02*
X179207142Y-71168097D01*
X179207142Y-71168097D02*
X179283333Y-71206192D01*
X179283333Y-71206192D02*
X179321428Y-71244287D01*
X179321428Y-71244287D02*
X179359523Y-71320478D01*
X179359523Y-71320478D02*
X179359523Y-71510954D01*
X179359523Y-71510954D02*
X179321428Y-71587144D01*
X179321428Y-71587144D02*
X179283333Y-71625240D01*
X179283333Y-71625240D02*
X179207142Y-71663335D01*
X179207142Y-71663335D02*
X178978571Y-71663335D01*
X178978571Y-71663335D02*
X178902380Y-71625240D01*
X178902380Y-71625240D02*
X178864285Y-71587144D01*
D12*
X162516553Y-87266666D02*
X162183220Y-87499999D01*
X162516553Y-87666666D02*
X161816553Y-87666666D01*
X161816553Y-87666666D02*
X161816553Y-87399999D01*
X161816553Y-87399999D02*
X161849886Y-87333333D01*
X161849886Y-87333333D02*
X161883220Y-87299999D01*
X161883220Y-87299999D02*
X161949886Y-87266666D01*
X161949886Y-87266666D02*
X162049886Y-87266666D01*
X162049886Y-87266666D02*
X162116553Y-87299999D01*
X162116553Y-87299999D02*
X162149886Y-87333333D01*
X162149886Y-87333333D02*
X162183220Y-87399999D01*
X162183220Y-87399999D02*
X162183220Y-87666666D01*
X161816553Y-86633333D02*
X161816553Y-86966666D01*
X161816553Y-86966666D02*
X162149886Y-86999999D01*
X162149886Y-86999999D02*
X162116553Y-86966666D01*
X162116553Y-86966666D02*
X162083220Y-86899999D01*
X162083220Y-86899999D02*
X162083220Y-86733333D01*
X162083220Y-86733333D02*
X162116553Y-86666666D01*
X162116553Y-86666666D02*
X162149886Y-86633333D01*
X162149886Y-86633333D02*
X162216553Y-86599999D01*
X162216553Y-86599999D02*
X162383220Y-86599999D01*
X162383220Y-86599999D02*
X162449886Y-86633333D01*
X162449886Y-86633333D02*
X162483220Y-86666666D01*
X162483220Y-86666666D02*
X162516553Y-86733333D01*
X162516553Y-86733333D02*
X162516553Y-86899999D01*
X162516553Y-86899999D02*
X162483220Y-86966666D01*
X162483220Y-86966666D02*
X162449886Y-86999999D01*
X180149999Y-65049886D02*
X180116666Y-65083220D01*
X180116666Y-65083220D02*
X180016666Y-65116553D01*
X180016666Y-65116553D02*
X179949999Y-65116553D01*
X179949999Y-65116553D02*
X179849999Y-65083220D01*
X179849999Y-65083220D02*
X179783333Y-65016553D01*
X179783333Y-65016553D02*
X179749999Y-64949886D01*
X179749999Y-64949886D02*
X179716666Y-64816553D01*
X179716666Y-64816553D02*
X179716666Y-64716553D01*
X179716666Y-64716553D02*
X179749999Y-64583220D01*
X179749999Y-64583220D02*
X179783333Y-64516553D01*
X179783333Y-64516553D02*
X179849999Y-64449886D01*
X179849999Y-64449886D02*
X179949999Y-64416553D01*
X179949999Y-64416553D02*
X180016666Y-64416553D01*
X180016666Y-64416553D02*
X180116666Y-64449886D01*
X180116666Y-64449886D02*
X180149999Y-64483220D01*
X180816666Y-65116553D02*
X180416666Y-65116553D01*
X180616666Y-65116553D02*
X180616666Y-64416553D01*
X180616666Y-64416553D02*
X180549999Y-64516553D01*
X180549999Y-64516553D02*
X180483333Y-64583220D01*
X180483333Y-64583220D02*
X180416666Y-64616553D01*
X181450000Y-64416553D02*
X181116666Y-64416553D01*
X181116666Y-64416553D02*
X181083333Y-64749886D01*
X181083333Y-64749886D02*
X181116666Y-64716553D01*
X181116666Y-64716553D02*
X181183333Y-64683220D01*
X181183333Y-64683220D02*
X181350000Y-64683220D01*
X181350000Y-64683220D02*
X181416666Y-64716553D01*
X181416666Y-64716553D02*
X181450000Y-64749886D01*
X181450000Y-64749886D02*
X181483333Y-64816553D01*
X181483333Y-64816553D02*
X181483333Y-64983220D01*
X181483333Y-64983220D02*
X181450000Y-65049886D01*
X181450000Y-65049886D02*
X181416666Y-65083220D01*
X181416666Y-65083220D02*
X181350000Y-65116553D01*
X181350000Y-65116553D02*
X181183333Y-65116553D01*
X181183333Y-65116553D02*
X181116666Y-65083220D01*
X181116666Y-65083220D02*
X181083333Y-65049886D01*
X138949999Y-69616553D02*
X138716666Y-69283220D01*
X138549999Y-69616553D02*
X138549999Y-68916553D01*
X138549999Y-68916553D02*
X138816666Y-68916553D01*
X138816666Y-68916553D02*
X138883333Y-68949886D01*
X138883333Y-68949886D02*
X138916666Y-68983220D01*
X138916666Y-68983220D02*
X138949999Y-69049886D01*
X138949999Y-69049886D02*
X138949999Y-69149886D01*
X138949999Y-69149886D02*
X138916666Y-69216553D01*
X138916666Y-69216553D02*
X138883333Y-69249886D01*
X138883333Y-69249886D02*
X138816666Y-69283220D01*
X138816666Y-69283220D02*
X138549999Y-69283220D01*
X139216666Y-68983220D02*
X139249999Y-68949886D01*
X139249999Y-68949886D02*
X139316666Y-68916553D01*
X139316666Y-68916553D02*
X139483333Y-68916553D01*
X139483333Y-68916553D02*
X139549999Y-68949886D01*
X139549999Y-68949886D02*
X139583333Y-68983220D01*
X139583333Y-68983220D02*
X139616666Y-69049886D01*
X139616666Y-69049886D02*
X139616666Y-69116553D01*
X139616666Y-69116553D02*
X139583333Y-69216553D01*
X139583333Y-69216553D02*
X139183333Y-69616553D01*
X139183333Y-69616553D02*
X139616666Y-69616553D01*
X140283333Y-69616553D02*
X139883333Y-69616553D01*
X140083333Y-69616553D02*
X140083333Y-68916553D01*
X140083333Y-68916553D02*
X140016666Y-69016553D01*
X140016666Y-69016553D02*
X139950000Y-69083220D01*
X139950000Y-69083220D02*
X139883333Y-69116553D01*
X154087386Y-63491666D02*
X154120720Y-63524999D01*
X154120720Y-63524999D02*
X154154053Y-63624999D01*
X154154053Y-63624999D02*
X154154053Y-63691666D01*
X154154053Y-63691666D02*
X154120720Y-63791666D01*
X154120720Y-63791666D02*
X154054053Y-63858333D01*
X154054053Y-63858333D02*
X153987386Y-63891666D01*
X153987386Y-63891666D02*
X153854053Y-63924999D01*
X153854053Y-63924999D02*
X153754053Y-63924999D01*
X153754053Y-63924999D02*
X153620720Y-63891666D01*
X153620720Y-63891666D02*
X153554053Y-63858333D01*
X153554053Y-63858333D02*
X153487386Y-63791666D01*
X153487386Y-63791666D02*
X153454053Y-63691666D01*
X153454053Y-63691666D02*
X153454053Y-63624999D01*
X153454053Y-63624999D02*
X153487386Y-63524999D01*
X153487386Y-63524999D02*
X153520720Y-63491666D01*
X153754053Y-63091666D02*
X153720720Y-63158333D01*
X153720720Y-63158333D02*
X153687386Y-63191666D01*
X153687386Y-63191666D02*
X153620720Y-63224999D01*
X153620720Y-63224999D02*
X153587386Y-63224999D01*
X153587386Y-63224999D02*
X153520720Y-63191666D01*
X153520720Y-63191666D02*
X153487386Y-63158333D01*
X153487386Y-63158333D02*
X153454053Y-63091666D01*
X153454053Y-63091666D02*
X153454053Y-62958333D01*
X153454053Y-62958333D02*
X153487386Y-62891666D01*
X153487386Y-62891666D02*
X153520720Y-62858333D01*
X153520720Y-62858333D02*
X153587386Y-62824999D01*
X153587386Y-62824999D02*
X153620720Y-62824999D01*
X153620720Y-62824999D02*
X153687386Y-62858333D01*
X153687386Y-62858333D02*
X153720720Y-62891666D01*
X153720720Y-62891666D02*
X153754053Y-62958333D01*
X153754053Y-62958333D02*
X153754053Y-63091666D01*
X153754053Y-63091666D02*
X153787386Y-63158333D01*
X153787386Y-63158333D02*
X153820720Y-63191666D01*
X153820720Y-63191666D02*
X153887386Y-63224999D01*
X153887386Y-63224999D02*
X154020720Y-63224999D01*
X154020720Y-63224999D02*
X154087386Y-63191666D01*
X154087386Y-63191666D02*
X154120720Y-63158333D01*
X154120720Y-63158333D02*
X154154053Y-63091666D01*
X154154053Y-63091666D02*
X154154053Y-62958333D01*
X154154053Y-62958333D02*
X154120720Y-62891666D01*
X154120720Y-62891666D02*
X154087386Y-62858333D01*
X154087386Y-62858333D02*
X154020720Y-62824999D01*
X154020720Y-62824999D02*
X153887386Y-62824999D01*
X153887386Y-62824999D02*
X153820720Y-62858333D01*
X153820720Y-62858333D02*
X153787386Y-62891666D01*
X153787386Y-62891666D02*
X153754053Y-62958333D01*
X159116553Y-80604166D02*
X158416553Y-80604166D01*
X158416553Y-80604166D02*
X158416553Y-80437499D01*
X158416553Y-80437499D02*
X158449886Y-80337499D01*
X158449886Y-80337499D02*
X158516553Y-80270833D01*
X158516553Y-80270833D02*
X158583220Y-80237499D01*
X158583220Y-80237499D02*
X158716553Y-80204166D01*
X158716553Y-80204166D02*
X158816553Y-80204166D01*
X158816553Y-80204166D02*
X158949886Y-80237499D01*
X158949886Y-80237499D02*
X159016553Y-80270833D01*
X159016553Y-80270833D02*
X159083220Y-80337499D01*
X159083220Y-80337499D02*
X159116553Y-80437499D01*
X159116553Y-80437499D02*
X159116553Y-80604166D01*
X158416553Y-79970833D02*
X158416553Y-79537499D01*
X158416553Y-79537499D02*
X158683220Y-79770833D01*
X158683220Y-79770833D02*
X158683220Y-79670833D01*
X158683220Y-79670833D02*
X158716553Y-79604166D01*
X158716553Y-79604166D02*
X158749886Y-79570833D01*
X158749886Y-79570833D02*
X158816553Y-79537499D01*
X158816553Y-79537499D02*
X158983220Y-79537499D01*
X158983220Y-79537499D02*
X159049886Y-79570833D01*
X159049886Y-79570833D02*
X159083220Y-79604166D01*
X159083220Y-79604166D02*
X159116553Y-79670833D01*
X159116553Y-79670833D02*
X159116553Y-79870833D01*
X159116553Y-79870833D02*
X159083220Y-79937499D01*
X159083220Y-79937499D02*
X159049886Y-79970833D01*
X138949999Y-79216553D02*
X138716666Y-78883220D01*
X138549999Y-79216553D02*
X138549999Y-78516553D01*
X138549999Y-78516553D02*
X138816666Y-78516553D01*
X138816666Y-78516553D02*
X138883333Y-78549886D01*
X138883333Y-78549886D02*
X138916666Y-78583220D01*
X138916666Y-78583220D02*
X138949999Y-78649886D01*
X138949999Y-78649886D02*
X138949999Y-78749886D01*
X138949999Y-78749886D02*
X138916666Y-78816553D01*
X138916666Y-78816553D02*
X138883333Y-78849886D01*
X138883333Y-78849886D02*
X138816666Y-78883220D01*
X138816666Y-78883220D02*
X138549999Y-78883220D01*
X139216666Y-78583220D02*
X139249999Y-78549886D01*
X139249999Y-78549886D02*
X139316666Y-78516553D01*
X139316666Y-78516553D02*
X139483333Y-78516553D01*
X139483333Y-78516553D02*
X139549999Y-78549886D01*
X139549999Y-78549886D02*
X139583333Y-78583220D01*
X139583333Y-78583220D02*
X139616666Y-78649886D01*
X139616666Y-78649886D02*
X139616666Y-78716553D01*
X139616666Y-78716553D02*
X139583333Y-78816553D01*
X139583333Y-78816553D02*
X139183333Y-79216553D01*
X139183333Y-79216553D02*
X139616666Y-79216553D01*
X140216666Y-78516553D02*
X140083333Y-78516553D01*
X140083333Y-78516553D02*
X140016666Y-78549886D01*
X140016666Y-78549886D02*
X139983333Y-78583220D01*
X139983333Y-78583220D02*
X139916666Y-78683220D01*
X139916666Y-78683220D02*
X139883333Y-78816553D01*
X139883333Y-78816553D02*
X139883333Y-79083220D01*
X139883333Y-79083220D02*
X139916666Y-79149886D01*
X139916666Y-79149886D02*
X139950000Y-79183220D01*
X139950000Y-79183220D02*
X140016666Y-79216553D01*
X140016666Y-79216553D02*
X140150000Y-79216553D01*
X140150000Y-79216553D02*
X140216666Y-79183220D01*
X140216666Y-79183220D02*
X140250000Y-79149886D01*
X140250000Y-79149886D02*
X140283333Y-79083220D01*
X140283333Y-79083220D02*
X140283333Y-78916553D01*
X140283333Y-78916553D02*
X140250000Y-78849886D01*
X140250000Y-78849886D02*
X140216666Y-78816553D01*
X140216666Y-78816553D02*
X140150000Y-78783220D01*
X140150000Y-78783220D02*
X140016666Y-78783220D01*
X140016666Y-78783220D02*
X139950000Y-78816553D01*
X139950000Y-78816553D02*
X139916666Y-78849886D01*
X139916666Y-78849886D02*
X139883333Y-78916553D01*
X189349999Y-56716553D02*
X189116666Y-56383220D01*
X188949999Y-56716553D02*
X188949999Y-56016553D01*
X188949999Y-56016553D02*
X189216666Y-56016553D01*
X189216666Y-56016553D02*
X189283333Y-56049886D01*
X189283333Y-56049886D02*
X189316666Y-56083220D01*
X189316666Y-56083220D02*
X189349999Y-56149886D01*
X189349999Y-56149886D02*
X189349999Y-56249886D01*
X189349999Y-56249886D02*
X189316666Y-56316553D01*
X189316666Y-56316553D02*
X189283333Y-56349886D01*
X189283333Y-56349886D02*
X189216666Y-56383220D01*
X189216666Y-56383220D02*
X188949999Y-56383220D01*
X190016666Y-56716553D02*
X189616666Y-56716553D01*
X189816666Y-56716553D02*
X189816666Y-56016553D01*
X189816666Y-56016553D02*
X189749999Y-56116553D01*
X189749999Y-56116553D02*
X189683333Y-56183220D01*
X189683333Y-56183220D02*
X189616666Y-56216553D01*
X190250000Y-56016553D02*
X190683333Y-56016553D01*
X190683333Y-56016553D02*
X190450000Y-56283220D01*
X190450000Y-56283220D02*
X190550000Y-56283220D01*
X190550000Y-56283220D02*
X190616666Y-56316553D01*
X190616666Y-56316553D02*
X190650000Y-56349886D01*
X190650000Y-56349886D02*
X190683333Y-56416553D01*
X190683333Y-56416553D02*
X190683333Y-56583220D01*
X190683333Y-56583220D02*
X190650000Y-56649886D01*
X190650000Y-56649886D02*
X190616666Y-56683220D01*
X190616666Y-56683220D02*
X190550000Y-56716553D01*
X190550000Y-56716553D02*
X190350000Y-56716553D01*
X190350000Y-56716553D02*
X190283333Y-56683220D01*
X190283333Y-56683220D02*
X190250000Y-56649886D01*
X180916553Y-83250000D02*
X180583220Y-83483333D01*
X180916553Y-83650000D02*
X180216553Y-83650000D01*
X180216553Y-83650000D02*
X180216553Y-83383333D01*
X180216553Y-83383333D02*
X180249886Y-83316667D01*
X180249886Y-83316667D02*
X180283220Y-83283333D01*
X180283220Y-83283333D02*
X180349886Y-83250000D01*
X180349886Y-83250000D02*
X180449886Y-83250000D01*
X180449886Y-83250000D02*
X180516553Y-83283333D01*
X180516553Y-83283333D02*
X180549886Y-83316667D01*
X180549886Y-83316667D02*
X180583220Y-83383333D01*
X180583220Y-83383333D02*
X180583220Y-83650000D01*
X180916553Y-82583333D02*
X180916553Y-82983333D01*
X180916553Y-82783333D02*
X180216553Y-82783333D01*
X180216553Y-82783333D02*
X180316553Y-82850000D01*
X180316553Y-82850000D02*
X180383220Y-82916667D01*
X180383220Y-82916667D02*
X180416553Y-82983333D01*
X180216553Y-81950000D02*
X180216553Y-82283333D01*
X180216553Y-82283333D02*
X180549886Y-82316666D01*
X180549886Y-82316666D02*
X180516553Y-82283333D01*
X180516553Y-82283333D02*
X180483220Y-82216666D01*
X180483220Y-82216666D02*
X180483220Y-82050000D01*
X180483220Y-82050000D02*
X180516553Y-81983333D01*
X180516553Y-81983333D02*
X180549886Y-81950000D01*
X180549886Y-81950000D02*
X180616553Y-81916666D01*
X180616553Y-81916666D02*
X180783220Y-81916666D01*
X180783220Y-81916666D02*
X180849886Y-81950000D01*
X180849886Y-81950000D02*
X180883220Y-81983333D01*
X180883220Y-81983333D02*
X180916553Y-82050000D01*
X180916553Y-82050000D02*
X180916553Y-82216666D01*
X180916553Y-82216666D02*
X180883220Y-82283333D01*
X180883220Y-82283333D02*
X180849886Y-82316666D01*
X138949999Y-77316553D02*
X138716666Y-76983220D01*
X138549999Y-77316553D02*
X138549999Y-76616553D01*
X138549999Y-76616553D02*
X138816666Y-76616553D01*
X138816666Y-76616553D02*
X138883333Y-76649886D01*
X138883333Y-76649886D02*
X138916666Y-76683220D01*
X138916666Y-76683220D02*
X138949999Y-76749886D01*
X138949999Y-76749886D02*
X138949999Y-76849886D01*
X138949999Y-76849886D02*
X138916666Y-76916553D01*
X138916666Y-76916553D02*
X138883333Y-76949886D01*
X138883333Y-76949886D02*
X138816666Y-76983220D01*
X138816666Y-76983220D02*
X138549999Y-76983220D01*
X139216666Y-76683220D02*
X139249999Y-76649886D01*
X139249999Y-76649886D02*
X139316666Y-76616553D01*
X139316666Y-76616553D02*
X139483333Y-76616553D01*
X139483333Y-76616553D02*
X139549999Y-76649886D01*
X139549999Y-76649886D02*
X139583333Y-76683220D01*
X139583333Y-76683220D02*
X139616666Y-76749886D01*
X139616666Y-76749886D02*
X139616666Y-76816553D01*
X139616666Y-76816553D02*
X139583333Y-76916553D01*
X139583333Y-76916553D02*
X139183333Y-77316553D01*
X139183333Y-77316553D02*
X139616666Y-77316553D01*
X139883333Y-76683220D02*
X139916666Y-76649886D01*
X139916666Y-76649886D02*
X139983333Y-76616553D01*
X139983333Y-76616553D02*
X140150000Y-76616553D01*
X140150000Y-76616553D02*
X140216666Y-76649886D01*
X140216666Y-76649886D02*
X140250000Y-76683220D01*
X140250000Y-76683220D02*
X140283333Y-76749886D01*
X140283333Y-76749886D02*
X140283333Y-76816553D01*
X140283333Y-76816553D02*
X140250000Y-76916553D01*
X140250000Y-76916553D02*
X139850000Y-77316553D01*
X139850000Y-77316553D02*
X140283333Y-77316553D01*
X154516553Y-58216666D02*
X154183220Y-58449999D01*
X154516553Y-58616666D02*
X153816553Y-58616666D01*
X153816553Y-58616666D02*
X153816553Y-58349999D01*
X153816553Y-58349999D02*
X153849886Y-58283333D01*
X153849886Y-58283333D02*
X153883220Y-58249999D01*
X153883220Y-58249999D02*
X153949886Y-58216666D01*
X153949886Y-58216666D02*
X154049886Y-58216666D01*
X154049886Y-58216666D02*
X154116553Y-58249999D01*
X154116553Y-58249999D02*
X154149886Y-58283333D01*
X154149886Y-58283333D02*
X154183220Y-58349999D01*
X154183220Y-58349999D02*
X154183220Y-58616666D01*
X153816553Y-57616666D02*
X153816553Y-57749999D01*
X153816553Y-57749999D02*
X153849886Y-57816666D01*
X153849886Y-57816666D02*
X153883220Y-57849999D01*
X153883220Y-57849999D02*
X153983220Y-57916666D01*
X153983220Y-57916666D02*
X154116553Y-57949999D01*
X154116553Y-57949999D02*
X154383220Y-57949999D01*
X154383220Y-57949999D02*
X154449886Y-57916666D01*
X154449886Y-57916666D02*
X154483220Y-57883333D01*
X154483220Y-57883333D02*
X154516553Y-57816666D01*
X154516553Y-57816666D02*
X154516553Y-57683333D01*
X154516553Y-57683333D02*
X154483220Y-57616666D01*
X154483220Y-57616666D02*
X154449886Y-57583333D01*
X154449886Y-57583333D02*
X154383220Y-57549999D01*
X154383220Y-57549999D02*
X154216553Y-57549999D01*
X154216553Y-57549999D02*
X154149886Y-57583333D01*
X154149886Y-57583333D02*
X154116553Y-57616666D01*
X154116553Y-57616666D02*
X154083220Y-57683333D01*
X154083220Y-57683333D02*
X154083220Y-57816666D01*
X154083220Y-57816666D02*
X154116553Y-57883333D01*
X154116553Y-57883333D02*
X154149886Y-57916666D01*
X154149886Y-57916666D02*
X154216553Y-57949999D01*
D11*
X186985714Y-75987144D02*
X186947618Y-76025240D01*
X186947618Y-76025240D02*
X186833333Y-76063335D01*
X186833333Y-76063335D02*
X186757142Y-76063335D01*
X186757142Y-76063335D02*
X186642856Y-76025240D01*
X186642856Y-76025240D02*
X186566666Y-75949049D01*
X186566666Y-75949049D02*
X186528571Y-75872859D01*
X186528571Y-75872859D02*
X186490475Y-75720478D01*
X186490475Y-75720478D02*
X186490475Y-75606192D01*
X186490475Y-75606192D02*
X186528571Y-75453811D01*
X186528571Y-75453811D02*
X186566666Y-75377620D01*
X186566666Y-75377620D02*
X186642856Y-75301430D01*
X186642856Y-75301430D02*
X186757142Y-75263335D01*
X186757142Y-75263335D02*
X186833333Y-75263335D01*
X186833333Y-75263335D02*
X186947618Y-75301430D01*
X186947618Y-75301430D02*
X186985714Y-75339525D01*
X187747618Y-76063335D02*
X187290475Y-76063335D01*
X187519047Y-76063335D02*
X187519047Y-75263335D01*
X187519047Y-75263335D02*
X187442856Y-75377620D01*
X187442856Y-75377620D02*
X187366666Y-75453811D01*
X187366666Y-75453811D02*
X187290475Y-75491906D01*
X188128571Y-76063335D02*
X188280952Y-76063335D01*
X188280952Y-76063335D02*
X188357142Y-76025240D01*
X188357142Y-76025240D02*
X188395238Y-75987144D01*
X188395238Y-75987144D02*
X188471428Y-75872859D01*
X188471428Y-75872859D02*
X188509523Y-75720478D01*
X188509523Y-75720478D02*
X188509523Y-75415716D01*
X188509523Y-75415716D02*
X188471428Y-75339525D01*
X188471428Y-75339525D02*
X188433333Y-75301430D01*
X188433333Y-75301430D02*
X188357142Y-75263335D01*
X188357142Y-75263335D02*
X188204761Y-75263335D01*
X188204761Y-75263335D02*
X188128571Y-75301430D01*
X188128571Y-75301430D02*
X188090476Y-75339525D01*
X188090476Y-75339525D02*
X188052380Y-75415716D01*
X188052380Y-75415716D02*
X188052380Y-75606192D01*
X188052380Y-75606192D02*
X188090476Y-75682382D01*
X188090476Y-75682382D02*
X188128571Y-75720478D01*
X188128571Y-75720478D02*
X188204761Y-75758573D01*
X188204761Y-75758573D02*
X188357142Y-75758573D01*
X188357142Y-75758573D02*
X188433333Y-75720478D01*
X188433333Y-75720478D02*
X188471428Y-75682382D01*
X188471428Y-75682382D02*
X188509523Y-75606192D01*
D12*
X162608333Y-93316553D02*
X162274999Y-93316553D01*
X162274999Y-93316553D02*
X162274999Y-92616553D01*
X162808333Y-92683220D02*
X162841666Y-92649886D01*
X162841666Y-92649886D02*
X162908333Y-92616553D01*
X162908333Y-92616553D02*
X163075000Y-92616553D01*
X163075000Y-92616553D02*
X163141666Y-92649886D01*
X163141666Y-92649886D02*
X163175000Y-92683220D01*
X163175000Y-92683220D02*
X163208333Y-92749886D01*
X163208333Y-92749886D02*
X163208333Y-92816553D01*
X163208333Y-92816553D02*
X163175000Y-92916553D01*
X163175000Y-92916553D02*
X162775000Y-93316553D01*
X162775000Y-93316553D02*
X163208333Y-93316553D01*
X164049886Y-63454166D02*
X164083220Y-63487499D01*
X164083220Y-63487499D02*
X164116553Y-63587499D01*
X164116553Y-63587499D02*
X164116553Y-63654166D01*
X164116553Y-63654166D02*
X164083220Y-63754166D01*
X164083220Y-63754166D02*
X164016553Y-63820833D01*
X164016553Y-63820833D02*
X163949886Y-63854166D01*
X163949886Y-63854166D02*
X163816553Y-63887499D01*
X163816553Y-63887499D02*
X163716553Y-63887499D01*
X163716553Y-63887499D02*
X163583220Y-63854166D01*
X163583220Y-63854166D02*
X163516553Y-63820833D01*
X163516553Y-63820833D02*
X163449886Y-63754166D01*
X163449886Y-63754166D02*
X163416553Y-63654166D01*
X163416553Y-63654166D02*
X163416553Y-63587499D01*
X163416553Y-63587499D02*
X163449886Y-63487499D01*
X163449886Y-63487499D02*
X163483220Y-63454166D01*
X163416553Y-62854166D02*
X163416553Y-62987499D01*
X163416553Y-62987499D02*
X163449886Y-63054166D01*
X163449886Y-63054166D02*
X163483220Y-63087499D01*
X163483220Y-63087499D02*
X163583220Y-63154166D01*
X163583220Y-63154166D02*
X163716553Y-63187499D01*
X163716553Y-63187499D02*
X163983220Y-63187499D01*
X163983220Y-63187499D02*
X164049886Y-63154166D01*
X164049886Y-63154166D02*
X164083220Y-63120833D01*
X164083220Y-63120833D02*
X164116553Y-63054166D01*
X164116553Y-63054166D02*
X164116553Y-62920833D01*
X164116553Y-62920833D02*
X164083220Y-62854166D01*
X164083220Y-62854166D02*
X164049886Y-62820833D01*
X164049886Y-62820833D02*
X163983220Y-62787499D01*
X163983220Y-62787499D02*
X163816553Y-62787499D01*
X163816553Y-62787499D02*
X163749886Y-62820833D01*
X163749886Y-62820833D02*
X163716553Y-62854166D01*
X163716553Y-62854166D02*
X163683220Y-62920833D01*
X163683220Y-62920833D02*
X163683220Y-63054166D01*
X163683220Y-63054166D02*
X163716553Y-63120833D01*
X163716553Y-63120833D02*
X163749886Y-63154166D01*
X163749886Y-63154166D02*
X163816553Y-63187499D01*
X128987499Y-57649886D02*
X128954166Y-57683220D01*
X128954166Y-57683220D02*
X128854166Y-57716553D01*
X128854166Y-57716553D02*
X128787499Y-57716553D01*
X128787499Y-57716553D02*
X128687499Y-57683220D01*
X128687499Y-57683220D02*
X128620833Y-57616553D01*
X128620833Y-57616553D02*
X128587499Y-57549886D01*
X128587499Y-57549886D02*
X128554166Y-57416553D01*
X128554166Y-57416553D02*
X128554166Y-57316553D01*
X128554166Y-57316553D02*
X128587499Y-57183220D01*
X128587499Y-57183220D02*
X128620833Y-57116553D01*
X128620833Y-57116553D02*
X128687499Y-57049886D01*
X128687499Y-57049886D02*
X128787499Y-57016553D01*
X128787499Y-57016553D02*
X128854166Y-57016553D01*
X128854166Y-57016553D02*
X128954166Y-57049886D01*
X128954166Y-57049886D02*
X128987499Y-57083220D01*
X129654166Y-57716553D02*
X129254166Y-57716553D01*
X129454166Y-57716553D02*
X129454166Y-57016553D01*
X129454166Y-57016553D02*
X129387499Y-57116553D01*
X129387499Y-57116553D02*
X129320833Y-57183220D01*
X129320833Y-57183220D02*
X129254166Y-57216553D01*
X130054166Y-57316553D02*
X129987500Y-57283220D01*
X129987500Y-57283220D02*
X129954166Y-57249886D01*
X129954166Y-57249886D02*
X129920833Y-57183220D01*
X129920833Y-57183220D02*
X129920833Y-57149886D01*
X129920833Y-57149886D02*
X129954166Y-57083220D01*
X129954166Y-57083220D02*
X129987500Y-57049886D01*
X129987500Y-57049886D02*
X130054166Y-57016553D01*
X130054166Y-57016553D02*
X130187500Y-57016553D01*
X130187500Y-57016553D02*
X130254166Y-57049886D01*
X130254166Y-57049886D02*
X130287500Y-57083220D01*
X130287500Y-57083220D02*
X130320833Y-57149886D01*
X130320833Y-57149886D02*
X130320833Y-57183220D01*
X130320833Y-57183220D02*
X130287500Y-57249886D01*
X130287500Y-57249886D02*
X130254166Y-57283220D01*
X130254166Y-57283220D02*
X130187500Y-57316553D01*
X130187500Y-57316553D02*
X130054166Y-57316553D01*
X130054166Y-57316553D02*
X129987500Y-57349886D01*
X129987500Y-57349886D02*
X129954166Y-57383220D01*
X129954166Y-57383220D02*
X129920833Y-57449886D01*
X129920833Y-57449886D02*
X129920833Y-57583220D01*
X129920833Y-57583220D02*
X129954166Y-57649886D01*
X129954166Y-57649886D02*
X129987500Y-57683220D01*
X129987500Y-57683220D02*
X130054166Y-57716553D01*
X130054166Y-57716553D02*
X130187500Y-57716553D01*
X130187500Y-57716553D02*
X130254166Y-57683220D01*
X130254166Y-57683220D02*
X130287500Y-57649886D01*
X130287500Y-57649886D02*
X130320833Y-57583220D01*
X130320833Y-57583220D02*
X130320833Y-57449886D01*
X130320833Y-57449886D02*
X130287500Y-57383220D01*
X130287500Y-57383220D02*
X130254166Y-57349886D01*
X130254166Y-57349886D02*
X130187500Y-57316553D01*
X156883333Y-93316553D02*
X156650000Y-92983220D01*
X156483333Y-93316553D02*
X156483333Y-92616553D01*
X156483333Y-92616553D02*
X156750000Y-92616553D01*
X156750000Y-92616553D02*
X156816667Y-92649886D01*
X156816667Y-92649886D02*
X156850000Y-92683220D01*
X156850000Y-92683220D02*
X156883333Y-92749886D01*
X156883333Y-92749886D02*
X156883333Y-92849886D01*
X156883333Y-92849886D02*
X156850000Y-92916553D01*
X156850000Y-92916553D02*
X156816667Y-92949886D01*
X156816667Y-92949886D02*
X156750000Y-92983220D01*
X156750000Y-92983220D02*
X156483333Y-92983220D01*
X157283333Y-92916553D02*
X157216667Y-92883220D01*
X157216667Y-92883220D02*
X157183333Y-92849886D01*
X157183333Y-92849886D02*
X157150000Y-92783220D01*
X157150000Y-92783220D02*
X157150000Y-92749886D01*
X157150000Y-92749886D02*
X157183333Y-92683220D01*
X157183333Y-92683220D02*
X157216667Y-92649886D01*
X157216667Y-92649886D02*
X157283333Y-92616553D01*
X157283333Y-92616553D02*
X157416667Y-92616553D01*
X157416667Y-92616553D02*
X157483333Y-92649886D01*
X157483333Y-92649886D02*
X157516667Y-92683220D01*
X157516667Y-92683220D02*
X157550000Y-92749886D01*
X157550000Y-92749886D02*
X157550000Y-92783220D01*
X157550000Y-92783220D02*
X157516667Y-92849886D01*
X157516667Y-92849886D02*
X157483333Y-92883220D01*
X157483333Y-92883220D02*
X157416667Y-92916553D01*
X157416667Y-92916553D02*
X157283333Y-92916553D01*
X157283333Y-92916553D02*
X157216667Y-92949886D01*
X157216667Y-92949886D02*
X157183333Y-92983220D01*
X157183333Y-92983220D02*
X157150000Y-93049886D01*
X157150000Y-93049886D02*
X157150000Y-93183220D01*
X157150000Y-93183220D02*
X157183333Y-93249886D01*
X157183333Y-93249886D02*
X157216667Y-93283220D01*
X157216667Y-93283220D02*
X157283333Y-93316553D01*
X157283333Y-93316553D02*
X157416667Y-93316553D01*
X157416667Y-93316553D02*
X157483333Y-93283220D01*
X157483333Y-93283220D02*
X157516667Y-93249886D01*
X157516667Y-93249886D02*
X157550000Y-93183220D01*
X157550000Y-93183220D02*
X157550000Y-93049886D01*
X157550000Y-93049886D02*
X157516667Y-92983220D01*
X157516667Y-92983220D02*
X157483333Y-92949886D01*
X157483333Y-92949886D02*
X157416667Y-92916553D01*
X149583333Y-76649886D02*
X149550000Y-76683220D01*
X149550000Y-76683220D02*
X149450000Y-76716553D01*
X149450000Y-76716553D02*
X149383333Y-76716553D01*
X149383333Y-76716553D02*
X149283333Y-76683220D01*
X149283333Y-76683220D02*
X149216667Y-76616553D01*
X149216667Y-76616553D02*
X149183333Y-76549886D01*
X149183333Y-76549886D02*
X149150000Y-76416553D01*
X149150000Y-76416553D02*
X149150000Y-76316553D01*
X149150000Y-76316553D02*
X149183333Y-76183220D01*
X149183333Y-76183220D02*
X149216667Y-76116553D01*
X149216667Y-76116553D02*
X149283333Y-76049886D01*
X149283333Y-76049886D02*
X149383333Y-76016553D01*
X149383333Y-76016553D02*
X149450000Y-76016553D01*
X149450000Y-76016553D02*
X149550000Y-76049886D01*
X149550000Y-76049886D02*
X149583333Y-76083220D01*
X149816667Y-76016553D02*
X150283333Y-76016553D01*
X150283333Y-76016553D02*
X149983333Y-76716553D01*
X170788499Y-71738886D02*
X170755166Y-71772220D01*
X170755166Y-71772220D02*
X170655166Y-71805553D01*
X170655166Y-71805553D02*
X170588499Y-71805553D01*
X170588499Y-71805553D02*
X170488499Y-71772220D01*
X170488499Y-71772220D02*
X170421833Y-71705553D01*
X170421833Y-71705553D02*
X170388499Y-71638886D01*
X170388499Y-71638886D02*
X170355166Y-71505553D01*
X170355166Y-71505553D02*
X170355166Y-71405553D01*
X170355166Y-71405553D02*
X170388499Y-71272220D01*
X170388499Y-71272220D02*
X170421833Y-71205553D01*
X170421833Y-71205553D02*
X170488499Y-71138886D01*
X170488499Y-71138886D02*
X170588499Y-71105553D01*
X170588499Y-71105553D02*
X170655166Y-71105553D01*
X170655166Y-71105553D02*
X170755166Y-71138886D01*
X170755166Y-71138886D02*
X170788499Y-71172220D01*
X171455166Y-71805553D02*
X171055166Y-71805553D01*
X171255166Y-71805553D02*
X171255166Y-71105553D01*
X171255166Y-71105553D02*
X171188499Y-71205553D01*
X171188499Y-71205553D02*
X171121833Y-71272220D01*
X171121833Y-71272220D02*
X171055166Y-71305553D01*
X172121833Y-71805553D02*
X171721833Y-71805553D01*
X171921833Y-71805553D02*
X171921833Y-71105553D01*
X171921833Y-71105553D02*
X171855166Y-71205553D01*
X171855166Y-71205553D02*
X171788500Y-71272220D01*
X171788500Y-71272220D02*
X171721833Y-71305553D01*
X170783333Y-74116553D02*
X170550000Y-73783220D01*
X170383333Y-74116553D02*
X170383333Y-73416553D01*
X170383333Y-73416553D02*
X170650000Y-73416553D01*
X170650000Y-73416553D02*
X170716667Y-73449886D01*
X170716667Y-73449886D02*
X170750000Y-73483220D01*
X170750000Y-73483220D02*
X170783333Y-73549886D01*
X170783333Y-73549886D02*
X170783333Y-73649886D01*
X170783333Y-73649886D02*
X170750000Y-73716553D01*
X170750000Y-73716553D02*
X170716667Y-73749886D01*
X170716667Y-73749886D02*
X170650000Y-73783220D01*
X170650000Y-73783220D02*
X170383333Y-73783220D01*
X171383333Y-73649886D02*
X171383333Y-74116553D01*
X171216667Y-73383220D02*
X171050000Y-73883220D01*
X171050000Y-73883220D02*
X171483333Y-73883220D01*
D14*
X141780000Y-66525000D02*
X142040000Y-66525000D01*
X147230000Y-66525000D02*
X146970000Y-66525000D01*
X141780000Y-63800000D02*
X141780000Y-66525000D01*
X141780000Y-63800000D02*
X141780000Y-61075000D01*
X147230000Y-63800000D02*
X147230000Y-66525000D01*
X147230000Y-63800000D02*
X147230000Y-61075000D01*
X141780000Y-61075000D02*
X142040000Y-61075000D01*
X147230000Y-61075000D02*
X146970000Y-61075000D01*
X142040000Y-67307500D02*
X141710000Y-67547500D01*
X141710000Y-67067500D01*
X142040000Y-67307500D01*
G36*
X142040000Y-67307500D02*
G01*
X141710000Y-67547500D01*
X141710000Y-67067500D01*
X142040000Y-67307500D01*
G37*
X153752500Y-78010000D02*
X153752500Y-77360000D01*
X154402500Y-70790000D02*
X153752500Y-70790000D01*
X154402500Y-78010000D02*
X153752500Y-78010000D01*
X160322500Y-70790000D02*
X160972500Y-70790000D01*
X160322500Y-78010000D02*
X160972500Y-78010000D01*
X160972500Y-70790000D02*
X160972500Y-71440000D01*
X160972500Y-78010000D02*
X160972500Y-77360000D01*
D15*
X153352500Y-70790000D02*
G75*
G02*
X153110898Y-70790000I-120801J0D01*
G01*
X153110898Y-70790000D02*
G75*
G02*
X153352500Y-70790000I120801J0D01*
G01*
D14*
X168151248Y-77215000D02*
X168673752Y-77215000D01*
X168151248Y-78685000D02*
X168673752Y-78685000D01*
D10*
X126750000Y-89000000D02*
X126750000Y-85700000D01*
X126750000Y-89000000D02*
X123450000Y-89000000D01*
X123450000Y-85700000D02*
X126750000Y-85700000D01*
X123450000Y-85700000D02*
X123450000Y-89000000D01*
X126805000Y-84200000D02*
X126805000Y-80900000D01*
X126805000Y-84200000D02*
X123505000Y-84200000D01*
X123505000Y-80900000D02*
X126805000Y-80900000D01*
X123505000Y-80900000D02*
X123505000Y-84200000D01*
D14*
X172400000Y-69510000D02*
X168640000Y-69510000D01*
X172400000Y-62690000D02*
X168640000Y-62690000D01*
X168640000Y-69510000D02*
X168640000Y-68250000D01*
X168640000Y-62690000D02*
X168640000Y-63950000D01*
X173920000Y-69740000D02*
X173440000Y-69740000D01*
X173680000Y-69410000D01*
X173920000Y-69740000D01*
G36*
X173920000Y-69740000D02*
G01*
X173440000Y-69740000D01*
X173680000Y-69410000D01*
X173920000Y-69740000D01*
G37*
X158000000Y-91050000D02*
X158000000Y-87750000D01*
X158000000Y-87750000D02*
X154000000Y-87750000D01*
X175480000Y-62720000D02*
X175480000Y-48480000D01*
X183920000Y-48480000D02*
X183920000Y-62720000D01*
X183920000Y-62720000D02*
X175480000Y-62720000D01*
X181123333Y-89040000D02*
X181123333Y-85300000D01*
X181123333Y-85300000D02*
X167676667Y-85300000D01*
X167676667Y-85300000D02*
X167676667Y-89040000D01*
X167436667Y-87300000D02*
X167436667Y-85060000D01*
X167436667Y-85060000D02*
X171630000Y-85060000D01*
X133236667Y-85060000D02*
X137430000Y-85060000D01*
X133236667Y-87300000D02*
X133236667Y-85060000D01*
X133476667Y-85300000D02*
X133476667Y-89040000D01*
X146923333Y-85300000D02*
X133476667Y-85300000D01*
X146923333Y-89040000D02*
X146923333Y-85300000D01*
X157165000Y-65647936D02*
X157165000Y-66102064D01*
X158635000Y-65647936D02*
X158635000Y-66102064D01*
X136372936Y-64665000D02*
X136827064Y-64665000D01*
X136372936Y-66135000D02*
X136827064Y-66135000D01*
X161065000Y-66136252D02*
X161065000Y-65613748D01*
X162535000Y-66136252D02*
X162535000Y-65613748D01*
X151165000Y-66136252D02*
X151165000Y-65613748D01*
X152635000Y-66136252D02*
X152635000Y-65613748D01*
X159065000Y-89301248D02*
X159065000Y-89823752D01*
X160535000Y-89301248D02*
X160535000Y-89823752D01*
X136372936Y-72465000D02*
X136827064Y-72465000D01*
X136372936Y-73935000D02*
X136827064Y-73935000D01*
X185020000Y-66115113D02*
X190180000Y-66115113D01*
X185020000Y-66155113D02*
X190180000Y-66155113D01*
X185021000Y-66075113D02*
X190179000Y-66075113D01*
X185022000Y-66035113D02*
X190178000Y-66035113D01*
X185024000Y-65995113D02*
X190176000Y-65995113D01*
X185027000Y-65955113D02*
X190173000Y-65955113D01*
X185031000Y-65915113D02*
X186560000Y-65915113D01*
X185035000Y-65875113D02*
X186560000Y-65875113D01*
X185039000Y-65835113D02*
X186560000Y-65835113D01*
X185044000Y-65795113D02*
X186560000Y-65795113D01*
X185050000Y-65755113D02*
X186560000Y-65755113D01*
X185057000Y-65715113D02*
X186560000Y-65715113D01*
X185064000Y-65675113D02*
X186560000Y-65675113D01*
X185072000Y-65635113D02*
X186560000Y-65635113D01*
X185080000Y-65595113D02*
X186560000Y-65595113D01*
X185089000Y-65555113D02*
X186560000Y-65555113D01*
X185099000Y-65515113D02*
X186560000Y-65515113D01*
X185109000Y-65475113D02*
X186560000Y-65475113D01*
X185120000Y-65434113D02*
X186560000Y-65434113D01*
X185132000Y-65394113D02*
X186560000Y-65394113D01*
X185145000Y-65354113D02*
X186560000Y-65354113D01*
X185158000Y-65314113D02*
X186560000Y-65314113D01*
X185172000Y-65274113D02*
X186560000Y-65274113D01*
X185186000Y-65234113D02*
X186560000Y-65234113D01*
X185202000Y-65194113D02*
X186560000Y-65194113D01*
X185218000Y-65154113D02*
X186560000Y-65154113D01*
X185235000Y-65114113D02*
X186560000Y-65114113D01*
X185252000Y-65074113D02*
X186560000Y-65074113D01*
X185271000Y-65034113D02*
X186560000Y-65034113D01*
X185290000Y-64994113D02*
X186560000Y-64994113D01*
X185310000Y-64954113D02*
X186560000Y-64954113D01*
X185332000Y-64914113D02*
X186560000Y-64914113D01*
X185353000Y-64874113D02*
X186560000Y-64874113D01*
X185376000Y-64834113D02*
X186560000Y-64834113D01*
X185400000Y-64794113D02*
X186560000Y-64794113D01*
X185425000Y-64754113D02*
X186560000Y-64754113D01*
X185451000Y-64714113D02*
X186560000Y-64714113D01*
X185478000Y-64674113D02*
X186560000Y-64674113D01*
X185505000Y-64634113D02*
X186560000Y-64634113D01*
X185535000Y-64594113D02*
X186560000Y-64594113D01*
X185565000Y-64554113D02*
X186560000Y-64554113D01*
X185596000Y-64514113D02*
X186560000Y-64514113D01*
X185629000Y-64474113D02*
X186560000Y-64474113D01*
X185663000Y-64434113D02*
X186560000Y-64434113D01*
X185699000Y-64394113D02*
X186560000Y-64394113D01*
X185736000Y-64354113D02*
X186560000Y-64354113D01*
X185774000Y-64314113D02*
X186560000Y-64314113D01*
X185815000Y-64274113D02*
X186560000Y-64274113D01*
X185857000Y-64234113D02*
X186560000Y-64234113D01*
X185875000Y-68709888D02*
X186375000Y-68709888D01*
X185901000Y-64194113D02*
X186560000Y-64194113D01*
X185947000Y-64154113D02*
X186560000Y-64154113D01*
X185995000Y-64114113D02*
X186560000Y-64114113D01*
X186046000Y-64074113D02*
X186560000Y-64074113D01*
X186100000Y-64034113D02*
X186560000Y-64034113D01*
X186125000Y-68959888D02*
X186125000Y-68459888D01*
X186157000Y-63994113D02*
X186560000Y-63994113D01*
X186217000Y-63954113D02*
X186560000Y-63954113D01*
X186281000Y-63914113D02*
X186560000Y-63914113D01*
X186349000Y-63874113D02*
X186560000Y-63874113D01*
X186422000Y-63834113D02*
X188778000Y-63834113D01*
X186502000Y-63794113D02*
X188698000Y-63794113D01*
X186589000Y-63754113D02*
X188611000Y-63754113D01*
X186685000Y-63714113D02*
X188515000Y-63714113D01*
X186795000Y-63674113D02*
X188405000Y-63674113D01*
X186923000Y-63634113D02*
X188277000Y-63634113D01*
X187082000Y-63594113D02*
X188118000Y-63594113D01*
X187316000Y-63554113D02*
X187884000Y-63554113D01*
X188640000Y-63874113D02*
X188851000Y-63874113D01*
X188640000Y-63914113D02*
X188919000Y-63914113D01*
X188640000Y-63954113D02*
X188983000Y-63954113D01*
X188640000Y-63994113D02*
X189043000Y-63994113D01*
X188640000Y-64034113D02*
X189100000Y-64034113D01*
X188640000Y-64074113D02*
X189154000Y-64074113D01*
X188640000Y-64114113D02*
X189205000Y-64114113D01*
X188640000Y-64154113D02*
X189253000Y-64154113D01*
X188640000Y-64194113D02*
X189299000Y-64194113D01*
X188640000Y-64234113D02*
X189343000Y-64234113D01*
X188640000Y-64274113D02*
X189385000Y-64274113D01*
X188640000Y-64314113D02*
X189426000Y-64314113D01*
X188640000Y-64354113D02*
X189464000Y-64354113D01*
X188640000Y-64394113D02*
X189501000Y-64394113D01*
X188640000Y-64434113D02*
X189537000Y-64434113D01*
X188640000Y-64474113D02*
X189571000Y-64474113D01*
X188640000Y-64514113D02*
X189604000Y-64514113D01*
X188640000Y-64554113D02*
X189635000Y-64554113D01*
X188640000Y-64594113D02*
X189665000Y-64594113D01*
X188640000Y-64634113D02*
X189695000Y-64634113D01*
X188640000Y-64674113D02*
X189722000Y-64674113D01*
X188640000Y-64714113D02*
X189749000Y-64714113D01*
X188640000Y-64754113D02*
X189775000Y-64754113D01*
X188640000Y-64794113D02*
X189800000Y-64794113D01*
X188640000Y-64834113D02*
X189824000Y-64834113D01*
X188640000Y-64874113D02*
X189847000Y-64874113D01*
X188640000Y-64914113D02*
X189868000Y-64914113D01*
X188640000Y-64954113D02*
X189890000Y-64954113D01*
X188640000Y-64994113D02*
X189910000Y-64994113D01*
X188640000Y-65034113D02*
X189929000Y-65034113D01*
X188640000Y-65074113D02*
X189948000Y-65074113D01*
X188640000Y-65114113D02*
X189965000Y-65114113D01*
X188640000Y-65154113D02*
X189982000Y-65154113D01*
X188640000Y-65194113D02*
X189998000Y-65194113D01*
X188640000Y-65234113D02*
X190014000Y-65234113D01*
X188640000Y-65274113D02*
X190028000Y-65274113D01*
X188640000Y-65314113D02*
X190042000Y-65314113D01*
X188640000Y-65354113D02*
X190055000Y-65354113D01*
X188640000Y-65394113D02*
X190068000Y-65394113D01*
X188640000Y-65434113D02*
X190080000Y-65434113D01*
X188640000Y-65475113D02*
X190091000Y-65475113D01*
X188640000Y-65515113D02*
X190101000Y-65515113D01*
X188640000Y-65555113D02*
X190111000Y-65555113D01*
X188640000Y-65595113D02*
X190120000Y-65595113D01*
X188640000Y-65635113D02*
X190128000Y-65635113D01*
X188640000Y-65675113D02*
X190136000Y-65675113D01*
X188640000Y-65715113D02*
X190143000Y-65715113D01*
X188640000Y-65755113D02*
X190150000Y-65755113D01*
X188640000Y-65795113D02*
X190156000Y-65795113D01*
X188640000Y-65835113D02*
X190161000Y-65835113D01*
X188640000Y-65875113D02*
X190165000Y-65875113D01*
X188640000Y-65915113D02*
X190169000Y-65915113D01*
X190220000Y-66155113D02*
G75*
G02*
X184980000Y-66155113I-2620000J0D01*
G01*
X184980000Y-66155113D02*
G75*
G02*
X190220000Y-66155113I2620000J0D01*
G01*
D13*
X154480000Y-47055000D02*
X154480000Y-48765000D01*
X154480000Y-47055000D02*
X145520000Y-47070000D01*
X154470000Y-50539977D02*
X154470000Y-52690000D01*
X153740000Y-54350000D02*
X153610000Y-54350000D01*
X146390000Y-54350000D02*
X146260000Y-54350000D01*
X145530000Y-50524988D02*
X145530000Y-52675011D01*
X145520000Y-47070000D02*
X145520000Y-48780000D01*
D14*
X157050000Y-61450000D02*
X157050000Y-48450000D01*
X173250000Y-48450000D02*
X157050000Y-48450000D01*
X173250000Y-61450000D02*
X157050000Y-61450000D01*
X173250000Y-61450000D02*
X173250000Y-48450000D01*
X151365000Y-89773752D02*
X151365000Y-89251248D01*
X152835000Y-89773752D02*
X152835000Y-89251248D01*
X136372936Y-74365000D02*
X136827064Y-74365000D01*
X136372936Y-75835000D02*
X136827064Y-75835000D01*
X138627064Y-82065000D02*
X138172936Y-82065000D01*
X138627064Y-83535000D02*
X138172936Y-83535000D01*
X126376248Y-58665000D02*
X126898752Y-58665000D01*
X126376248Y-60135000D02*
X126898752Y-60135000D01*
X185539000Y-78082000D02*
X185539000Y-85822000D01*
X185539000Y-78082000D02*
X190739000Y-78082000D01*
X185539000Y-83282000D02*
X190719010Y-83282000D01*
X185539000Y-85822000D02*
X190739000Y-85822000D01*
D10*
X185548995Y-80682000D02*
X190729005Y-80682000D01*
D14*
X190739000Y-78082000D02*
X190739000Y-85822000D01*
X163065000Y-70261252D02*
X163065000Y-69738748D01*
X164535000Y-70261252D02*
X164535000Y-69738748D01*
X155665000Y-82376248D02*
X155665000Y-82898752D01*
X157135000Y-82376248D02*
X157135000Y-82898752D01*
X186772936Y-57865000D02*
X187227064Y-57865000D01*
X186772936Y-59335000D02*
X187227064Y-59335000D01*
X166540000Y-75040000D02*
X166540000Y-76960000D01*
X166540000Y-76960000D02*
X169400000Y-76960000D01*
X169400000Y-75040000D02*
X166540000Y-75040000D01*
X136372936Y-70565000D02*
X136827064Y-70565000D01*
X136372936Y-72035000D02*
X136827064Y-72035000D01*
X136223752Y-58665000D02*
X135701248Y-58665000D01*
X136223752Y-60135000D02*
X135701248Y-60135000D01*
X159065000Y-65647936D02*
X159065000Y-66102064D01*
X160535000Y-65647936D02*
X160535000Y-66102064D01*
X155165000Y-66098752D02*
X155165000Y-65576248D01*
X156635000Y-66098752D02*
X156635000Y-65576248D01*
X133027064Y-81365000D02*
X132572936Y-81365000D01*
X133027064Y-82835000D02*
X132572936Y-82835000D01*
X153065000Y-82376248D02*
X153065000Y-82898752D01*
X154535000Y-82376248D02*
X154535000Y-82898752D01*
X182876000Y-78083000D02*
X185536169Y-78083000D01*
X182876000Y-80683000D02*
X182876000Y-78083000D01*
X182876000Y-80683000D02*
X182876000Y-83283000D01*
D10*
X182876000Y-80683000D02*
X185536085Y-80683000D01*
D14*
X182876000Y-83283000D02*
X185536000Y-83283000D01*
X185536169Y-78083000D02*
X185536000Y-83283000D01*
X147461252Y-72265000D02*
X146938748Y-72265000D01*
X147461252Y-73735000D02*
X146938748Y-73735000D01*
X187261252Y-60065000D02*
X186738748Y-60065000D01*
X187261252Y-61535000D02*
X186738748Y-61535000D01*
X177538748Y-66465000D02*
X178061252Y-66465000D01*
X177538748Y-67935000D02*
X178061252Y-67935000D01*
X149265000Y-60338748D02*
X149265000Y-60861252D01*
X150735000Y-60338748D02*
X150735000Y-60861252D01*
D10*
X130800000Y-54350000D02*
X130800000Y-52425000D01*
D16*
X133000000Y-55125000D02*
X133000000Y-55125000D01*
X133000000Y-55125000D02*
X133000000Y-55125000D01*
X133000000Y-55225000D02*
X133000000Y-55225000D01*
D10*
X140900000Y-48900000D02*
X132300000Y-48900000D01*
X142200000Y-52825000D02*
X142200000Y-54350000D01*
X142200000Y-54350000D02*
X130800000Y-54350000D01*
D16*
X133000000Y-55125000D02*
G75*
G02*
X133000000Y-55225000I0J-50000D01*
G01*
X133000000Y-55225000D02*
G75*
G02*
X133000000Y-55125000I0J50000D01*
G01*
X133000000Y-55225000D02*
G75*
G02*
X133000000Y-55125000I0J50000D01*
G01*
D14*
X170172936Y-82865000D02*
X170627064Y-82865000D01*
X170172936Y-84335000D02*
X170627064Y-84335000D01*
X151465000Y-60827064D02*
X151465000Y-60372936D01*
X152935000Y-60827064D02*
X152935000Y-60372936D01*
X160240000Y-80777500D02*
X160240000Y-83637500D01*
X162160000Y-80777500D02*
X160240000Y-80777500D01*
X162160000Y-83637500D02*
X162160000Y-80777500D01*
D13*
X119560000Y-63991000D02*
X119560000Y-78591000D01*
X119560000Y-78591000D02*
X122060000Y-78591000D01*
X122060000Y-63991000D02*
X119560000Y-63991000D01*
X127560000Y-63991000D02*
X125160000Y-63991000D01*
X127560000Y-78591000D02*
X125160000Y-78591000D01*
X131560000Y-63991000D02*
X132560000Y-63991000D01*
X132560000Y-63991000D02*
X132560000Y-78591000D01*
X132560000Y-78591000D02*
X131560000Y-78591000D01*
D14*
X136372936Y-66665000D02*
X136827064Y-66665000D01*
X136372936Y-68135000D02*
X136827064Y-68135000D01*
X175545225Y-73125000D02*
X176045225Y-73125000D01*
X175795225Y-72875000D02*
X175795225Y-73375000D01*
X178350000Y-72020000D02*
X178350000Y-77180000D01*
X178390000Y-72020000D02*
X178390000Y-77180000D01*
X178430000Y-72021000D02*
X178430000Y-77179000D01*
X178470000Y-72022000D02*
X178470000Y-77178000D01*
X178510000Y-72024000D02*
X178510000Y-77176000D01*
X178550000Y-72027000D02*
X178550000Y-77173000D01*
X178590000Y-72031000D02*
X178590000Y-73560000D01*
X178590000Y-75640000D02*
X178590000Y-77169000D01*
X178630000Y-72035000D02*
X178630000Y-73560000D01*
X178630000Y-75640000D02*
X178630000Y-77165000D01*
X178670000Y-72039000D02*
X178670000Y-73560000D01*
X178670000Y-75640000D02*
X178670000Y-77161000D01*
X178710000Y-72044000D02*
X178710000Y-73560000D01*
X178710000Y-75640000D02*
X178710000Y-77156000D01*
X178750000Y-72050000D02*
X178750000Y-73560000D01*
X178750000Y-75640000D02*
X178750000Y-77150000D01*
X178790000Y-72057000D02*
X178790000Y-73560000D01*
X178790000Y-75640000D02*
X178790000Y-77143000D01*
X178830000Y-72064000D02*
X178830000Y-73560000D01*
X178830000Y-75640000D02*
X178830000Y-77136000D01*
X178870000Y-72072000D02*
X178870000Y-73560000D01*
X178870000Y-75640000D02*
X178870000Y-77128000D01*
X178910000Y-72080000D02*
X178910000Y-73560000D01*
X178910000Y-75640000D02*
X178910000Y-77120000D01*
X178950000Y-72089000D02*
X178950000Y-73560000D01*
X178950000Y-75640000D02*
X178950000Y-77111000D01*
X178990000Y-72099000D02*
X178990000Y-73560000D01*
X178990000Y-75640000D02*
X178990000Y-77101000D01*
X179030000Y-72109000D02*
X179030000Y-73560000D01*
X179030000Y-75640000D02*
X179030000Y-77091000D01*
X179071000Y-72120000D02*
X179071000Y-73560000D01*
X179071000Y-75640000D02*
X179071000Y-77080000D01*
X179111000Y-72132000D02*
X179111000Y-73560000D01*
X179111000Y-75640000D02*
X179111000Y-77068000D01*
X179151000Y-72145000D02*
X179151000Y-73560000D01*
X179151000Y-75640000D02*
X179151000Y-77055000D01*
X179191000Y-72158000D02*
X179191000Y-73560000D01*
X179191000Y-75640000D02*
X179191000Y-77042000D01*
X179231000Y-72172000D02*
X179231000Y-73560000D01*
X179231000Y-75640000D02*
X179231000Y-77028000D01*
X179271000Y-72186000D02*
X179271000Y-73560000D01*
X179271000Y-75640000D02*
X179271000Y-77014000D01*
X179311000Y-72202000D02*
X179311000Y-73560000D01*
X179311000Y-75640000D02*
X179311000Y-76998000D01*
X179351000Y-72218000D02*
X179351000Y-73560000D01*
X179351000Y-75640000D02*
X179351000Y-76982000D01*
X179391000Y-72235000D02*
X179391000Y-73560000D01*
X179391000Y-75640000D02*
X179391000Y-76965000D01*
X179431000Y-72252000D02*
X179431000Y-73560000D01*
X179431000Y-75640000D02*
X179431000Y-76948000D01*
X179471000Y-72271000D02*
X179471000Y-73560000D01*
X179471000Y-75640000D02*
X179471000Y-76929000D01*
X179511000Y-72290000D02*
X179511000Y-73560000D01*
X179511000Y-75640000D02*
X179511000Y-76910000D01*
X179551000Y-72310000D02*
X179551000Y-73560000D01*
X179551000Y-75640000D02*
X179551000Y-76890000D01*
X179591000Y-72332000D02*
X179591000Y-73560000D01*
X179591000Y-75640000D02*
X179591000Y-76868000D01*
X179631000Y-72353000D02*
X179631000Y-73560000D01*
X179631000Y-75640000D02*
X179631000Y-76847000D01*
X179671000Y-72376000D02*
X179671000Y-73560000D01*
X179671000Y-75640000D02*
X179671000Y-76824000D01*
X179711000Y-72400000D02*
X179711000Y-73560000D01*
X179711000Y-75640000D02*
X179711000Y-76800000D01*
X179751000Y-72425000D02*
X179751000Y-73560000D01*
X179751000Y-75640000D02*
X179751000Y-76775000D01*
X179791000Y-72451000D02*
X179791000Y-73560000D01*
X179791000Y-75640000D02*
X179791000Y-76749000D01*
X179831000Y-72478000D02*
X179831000Y-73560000D01*
X179831000Y-75640000D02*
X179831000Y-76722000D01*
X179871000Y-72505000D02*
X179871000Y-73560000D01*
X179871000Y-75640000D02*
X179871000Y-76695000D01*
X179911000Y-72535000D02*
X179911000Y-73560000D01*
X179911000Y-75640000D02*
X179911000Y-76665000D01*
X179951000Y-72565000D02*
X179951000Y-73560000D01*
X179951000Y-75640000D02*
X179951000Y-76635000D01*
X179991000Y-72596000D02*
X179991000Y-73560000D01*
X179991000Y-75640000D02*
X179991000Y-76604000D01*
X180031000Y-72629000D02*
X180031000Y-73560000D01*
X180031000Y-75640000D02*
X180031000Y-76571000D01*
X180071000Y-72663000D02*
X180071000Y-73560000D01*
X180071000Y-75640000D02*
X180071000Y-76537000D01*
X180111000Y-72699000D02*
X180111000Y-73560000D01*
X180111000Y-75640000D02*
X180111000Y-76501000D01*
X180151000Y-72736000D02*
X180151000Y-73560000D01*
X180151000Y-75640000D02*
X180151000Y-76464000D01*
X180191000Y-72774000D02*
X180191000Y-73560000D01*
X180191000Y-75640000D02*
X180191000Y-76426000D01*
X180231000Y-72815000D02*
X180231000Y-73560000D01*
X180231000Y-75640000D02*
X180231000Y-76385000D01*
X180271000Y-72857000D02*
X180271000Y-73560000D01*
X180271000Y-75640000D02*
X180271000Y-76343000D01*
X180311000Y-72901000D02*
X180311000Y-73560000D01*
X180311000Y-75640000D02*
X180311000Y-76299000D01*
X180351000Y-72947000D02*
X180351000Y-73560000D01*
X180351000Y-75640000D02*
X180351000Y-76253000D01*
X180391000Y-72995000D02*
X180391000Y-73560000D01*
X180391000Y-75640000D02*
X180391000Y-76205000D01*
X180431000Y-73046000D02*
X180431000Y-73560000D01*
X180431000Y-75640000D02*
X180431000Y-76154000D01*
X180471000Y-73100000D02*
X180471000Y-73560000D01*
X180471000Y-75640000D02*
X180471000Y-76100000D01*
X180511000Y-73157000D02*
X180511000Y-73560000D01*
X180511000Y-75640000D02*
X180511000Y-76043000D01*
X180551000Y-73217000D02*
X180551000Y-73560000D01*
X180551000Y-75640000D02*
X180551000Y-75983000D01*
X180591000Y-73281000D02*
X180591000Y-73560000D01*
X180591000Y-75640000D02*
X180591000Y-75919000D01*
X180631000Y-73349000D02*
X180631000Y-73560000D01*
X180631000Y-75640000D02*
X180631000Y-75851000D01*
X180671000Y-73422000D02*
X180671000Y-75778000D01*
X180711000Y-73502000D02*
X180711000Y-75698000D01*
X180751000Y-73589000D02*
X180751000Y-75611000D01*
X180791000Y-73685000D02*
X180791000Y-75515000D01*
X180831000Y-73795000D02*
X180831000Y-75405000D01*
X180871000Y-73923000D02*
X180871000Y-75277000D01*
X180911000Y-74082000D02*
X180911000Y-75118000D01*
X180951000Y-74316000D02*
X180951000Y-74884000D01*
X180970000Y-74600000D02*
G75*
G02*
X175730000Y-74600000I-2620000J0D01*
G01*
X175730000Y-74600000D02*
G75*
G02*
X180970000Y-74600000I2620000J0D01*
G01*
X161465000Y-89322936D02*
X161465000Y-89777064D01*
X162935000Y-89322936D02*
X162935000Y-89777064D01*
X177538748Y-64065000D02*
X178061252Y-64065000D01*
X177538748Y-65535000D02*
X178061252Y-65535000D01*
X136372936Y-68565000D02*
X136827064Y-68565000D01*
X136372936Y-70035000D02*
X136827064Y-70035000D01*
X153165000Y-66136252D02*
X153165000Y-65613748D01*
X154635000Y-66136252D02*
X154635000Y-65613748D01*
X157840000Y-80777500D02*
X157840000Y-83637500D01*
X159760000Y-80777500D02*
X157840000Y-80777500D01*
X159760000Y-83637500D02*
X159760000Y-80777500D01*
X136372936Y-78165000D02*
X136827064Y-78165000D01*
X136372936Y-79635000D02*
X136827064Y-79635000D01*
X186772936Y-55665000D02*
X187227064Y-55665000D01*
X186772936Y-57135000D02*
X187227064Y-57135000D01*
X179865000Y-79772936D02*
X179865000Y-80227064D01*
X181335000Y-79772936D02*
X181335000Y-80227064D01*
X136372936Y-76265000D02*
X136827064Y-76265000D01*
X136372936Y-77735000D02*
X136827064Y-77735000D01*
X153465000Y-60827064D02*
X153465000Y-60372936D01*
X154935000Y-60827064D02*
X154935000Y-60372936D01*
X184820000Y-72310000D02*
X189980000Y-72310000D01*
X184820000Y-72350000D02*
X189980000Y-72350000D01*
X184821000Y-72270000D02*
X189979000Y-72270000D01*
X184822000Y-72230000D02*
X189978000Y-72230000D01*
X184824000Y-72190000D02*
X189976000Y-72190000D01*
X184827000Y-72150000D02*
X189973000Y-72150000D01*
X184831000Y-72110000D02*
X186360000Y-72110000D01*
X184835000Y-72070000D02*
X186360000Y-72070000D01*
X184839000Y-72030000D02*
X186360000Y-72030000D01*
X184844000Y-71990000D02*
X186360000Y-71990000D01*
X184850000Y-71950000D02*
X186360000Y-71950000D01*
X184857000Y-71910000D02*
X186360000Y-71910000D01*
X184864000Y-71870000D02*
X186360000Y-71870000D01*
X184872000Y-71830000D02*
X186360000Y-71830000D01*
X184880000Y-71790000D02*
X186360000Y-71790000D01*
X184889000Y-71750000D02*
X186360000Y-71750000D01*
X184899000Y-71710000D02*
X186360000Y-71710000D01*
X184909000Y-71670000D02*
X186360000Y-71670000D01*
X184920000Y-71629000D02*
X186360000Y-71629000D01*
X184932000Y-71589000D02*
X186360000Y-71589000D01*
X184945000Y-71549000D02*
X186360000Y-71549000D01*
X184958000Y-71509000D02*
X186360000Y-71509000D01*
X184972000Y-71469000D02*
X186360000Y-71469000D01*
X184986000Y-71429000D02*
X186360000Y-71429000D01*
X185002000Y-71389000D02*
X186360000Y-71389000D01*
X185018000Y-71349000D02*
X186360000Y-71349000D01*
X185035000Y-71309000D02*
X186360000Y-71309000D01*
X185052000Y-71269000D02*
X186360000Y-71269000D01*
X185071000Y-71229000D02*
X186360000Y-71229000D01*
X185090000Y-71189000D02*
X186360000Y-71189000D01*
X185110000Y-71149000D02*
X186360000Y-71149000D01*
X185132000Y-71109000D02*
X186360000Y-71109000D01*
X185153000Y-71069000D02*
X186360000Y-71069000D01*
X185176000Y-71029000D02*
X186360000Y-71029000D01*
X185200000Y-70989000D02*
X186360000Y-70989000D01*
X185225000Y-70949000D02*
X186360000Y-70949000D01*
X185251000Y-70909000D02*
X186360000Y-70909000D01*
X185278000Y-70869000D02*
X186360000Y-70869000D01*
X185305000Y-70829000D02*
X186360000Y-70829000D01*
X185335000Y-70789000D02*
X186360000Y-70789000D01*
X185365000Y-70749000D02*
X186360000Y-70749000D01*
X185396000Y-70709000D02*
X186360000Y-70709000D01*
X185429000Y-70669000D02*
X186360000Y-70669000D01*
X185463000Y-70629000D02*
X186360000Y-70629000D01*
X185499000Y-70589000D02*
X186360000Y-70589000D01*
X185536000Y-70549000D02*
X186360000Y-70549000D01*
X185574000Y-70509000D02*
X186360000Y-70509000D01*
X185615000Y-70469000D02*
X186360000Y-70469000D01*
X185657000Y-70429000D02*
X186360000Y-70429000D01*
X185675000Y-74904775D02*
X186175000Y-74904775D01*
X185701000Y-70389000D02*
X186360000Y-70389000D01*
X185747000Y-70349000D02*
X186360000Y-70349000D01*
X185795000Y-70309000D02*
X186360000Y-70309000D01*
X185846000Y-70269000D02*
X186360000Y-70269000D01*
X185900000Y-70229000D02*
X186360000Y-70229000D01*
X185925000Y-75154775D02*
X185925000Y-74654775D01*
X185957000Y-70189000D02*
X186360000Y-70189000D01*
X186017000Y-70149000D02*
X186360000Y-70149000D01*
X186081000Y-70109000D02*
X186360000Y-70109000D01*
X186149000Y-70069000D02*
X186360000Y-70069000D01*
X186222000Y-70029000D02*
X188578000Y-70029000D01*
X186302000Y-69989000D02*
X188498000Y-69989000D01*
X186389000Y-69949000D02*
X188411000Y-69949000D01*
X186485000Y-69909000D02*
X188315000Y-69909000D01*
X186595000Y-69869000D02*
X188205000Y-69869000D01*
X186723000Y-69829000D02*
X188077000Y-69829000D01*
X186882000Y-69789000D02*
X187918000Y-69789000D01*
X187116000Y-69749000D02*
X187684000Y-69749000D01*
X188440000Y-70069000D02*
X188651000Y-70069000D01*
X188440000Y-70109000D02*
X188719000Y-70109000D01*
X188440000Y-70149000D02*
X188783000Y-70149000D01*
X188440000Y-70189000D02*
X188843000Y-70189000D01*
X188440000Y-70229000D02*
X188900000Y-70229000D01*
X188440000Y-70269000D02*
X188954000Y-70269000D01*
X188440000Y-70309000D02*
X189005000Y-70309000D01*
X188440000Y-70349000D02*
X189053000Y-70349000D01*
X188440000Y-70389000D02*
X189099000Y-70389000D01*
X188440000Y-70429000D02*
X189143000Y-70429000D01*
X188440000Y-70469000D02*
X189185000Y-70469000D01*
X188440000Y-70509000D02*
X189226000Y-70509000D01*
X188440000Y-70549000D02*
X189264000Y-70549000D01*
X188440000Y-70589000D02*
X189301000Y-70589000D01*
X188440000Y-70629000D02*
X189337000Y-70629000D01*
X188440000Y-70669000D02*
X189371000Y-70669000D01*
X188440000Y-70709000D02*
X189404000Y-70709000D01*
X188440000Y-70749000D02*
X189435000Y-70749000D01*
X188440000Y-70789000D02*
X189465000Y-70789000D01*
X188440000Y-70829000D02*
X189495000Y-70829000D01*
X188440000Y-70869000D02*
X189522000Y-70869000D01*
X188440000Y-70909000D02*
X189549000Y-70909000D01*
X188440000Y-70949000D02*
X189575000Y-70949000D01*
X188440000Y-70989000D02*
X189600000Y-70989000D01*
X188440000Y-71029000D02*
X189624000Y-71029000D01*
X188440000Y-71069000D02*
X189647000Y-71069000D01*
X188440000Y-71109000D02*
X189668000Y-71109000D01*
X188440000Y-71149000D02*
X189690000Y-71149000D01*
X188440000Y-71189000D02*
X189710000Y-71189000D01*
X188440000Y-71229000D02*
X189729000Y-71229000D01*
X188440000Y-71269000D02*
X189748000Y-71269000D01*
X188440000Y-71309000D02*
X189765000Y-71309000D01*
X188440000Y-71349000D02*
X189782000Y-71349000D01*
X188440000Y-71389000D02*
X189798000Y-71389000D01*
X188440000Y-71429000D02*
X189814000Y-71429000D01*
X188440000Y-71469000D02*
X189828000Y-71469000D01*
X188440000Y-71509000D02*
X189842000Y-71509000D01*
X188440000Y-71549000D02*
X189855000Y-71549000D01*
X188440000Y-71589000D02*
X189868000Y-71589000D01*
X188440000Y-71629000D02*
X189880000Y-71629000D01*
X188440000Y-71670000D02*
X189891000Y-71670000D01*
X188440000Y-71710000D02*
X189901000Y-71710000D01*
X188440000Y-71750000D02*
X189911000Y-71750000D01*
X188440000Y-71790000D02*
X189920000Y-71790000D01*
X188440000Y-71830000D02*
X189928000Y-71830000D01*
X188440000Y-71870000D02*
X189936000Y-71870000D01*
X188440000Y-71910000D02*
X189943000Y-71910000D01*
X188440000Y-71950000D02*
X189950000Y-71950000D01*
X188440000Y-71990000D02*
X189956000Y-71990000D01*
X188440000Y-72030000D02*
X189961000Y-72030000D01*
X188440000Y-72070000D02*
X189965000Y-72070000D01*
X188440000Y-72110000D02*
X189969000Y-72110000D01*
X190020000Y-72350000D02*
G75*
G02*
X184780000Y-72350000I-2620000J0D01*
G01*
X184780000Y-72350000D02*
G75*
G02*
X190020000Y-72350000I2620000J0D01*
G01*
X159225000Y-93960000D02*
X162085000Y-93960000D01*
X162085000Y-92040000D02*
X159225000Y-92040000D01*
X162085000Y-93960000D02*
X162085000Y-92040000D01*
X163065000Y-66098752D02*
X163065000Y-65576248D01*
X164535000Y-66098752D02*
X164535000Y-65576248D01*
X126376248Y-58085000D02*
X126898752Y-58085000D01*
X126376248Y-56615000D02*
X126898752Y-56615000D01*
X154827064Y-92265000D02*
X154372936Y-92265000D01*
X154827064Y-93735000D02*
X154372936Y-93735000D01*
X147461252Y-75665000D02*
X146938748Y-75665000D01*
X147461252Y-77135000D02*
X146938748Y-77135000D01*
X168177248Y-70754000D02*
X168699752Y-70754000D01*
X168177248Y-72224000D02*
X168699752Y-72224000D01*
X168627064Y-73065000D02*
X168172936Y-73065000D01*
X168627064Y-74535000D02*
X168172936Y-74535000D01*
M02*
