G04 #@! TF.GenerationSoftware,KiCad,Pcbnew,8.0.4*
G04 #@! TF.CreationDate,2024-12-17T15:55:11+02:00*
G04 #@! TF.ProjectId,core,636f7265-2e6b-4696-9361-645f70636258,1.0*
G04 #@! TF.SameCoordinates,Original*
G04 #@! TF.FileFunction,Profile,NP*
%FSLAX46Y46*%
G04 Gerber Fmt 4.6, Leading zero omitted, Abs format (unit mm)*
G04 Created by KiCad (PCBNEW 8.0.4) date 2024-12-17 15:55:11*
%MOMM*%
%LPD*%
G01*
G04 APERTURE LIST*
G04 #@! TA.AperFunction,Profile*
%ADD10C,0.050000*%
G04 #@! TD*
G04 APERTURE END LIST*
D10*
X184485000Y-94585000D02*
G75*
G02*
X183985000Y-94085000I0J500000D01*
G01*
X164815000Y-94100003D02*
G75*
G02*
X164315001Y-94600000I-500000J3D01*
G01*
X130600000Y-94100098D02*
G75*
G02*
X130100098Y-94600100I-500000J-2D01*
G01*
X150270001Y-94600021D02*
G75*
G02*
X149769979Y-94100021I-1J500021D01*
G01*
X149770000Y-89465000D02*
X149770000Y-94100021D01*
X121800000Y-51100000D02*
G75*
G02*
X124500000Y-48400000I2700000J0D01*
G01*
X124500531Y-94601200D02*
G75*
G02*
X121800000Y-91901201I-531J2700000D01*
G01*
X192385000Y-91885000D02*
G75*
G02*
X189685000Y-94585000I-2700000J0D01*
G01*
X189685000Y-48400000D02*
G75*
G02*
X192385000Y-51100000I0J-2700000D01*
G01*
X183985000Y-89450000D02*
X183985000Y-94085000D01*
X124500531Y-94601200D02*
X130100098Y-94600098D01*
X183985000Y-89450000D02*
X164815000Y-89450000D01*
X121800000Y-51100000D02*
X121800000Y-91901201D01*
X150270001Y-94600021D02*
X164315001Y-94600003D01*
X149770000Y-89465000D02*
X130600000Y-89465000D01*
X130600000Y-89465000D02*
X130600000Y-94100098D01*
X192385000Y-51100000D02*
X192385000Y-91885000D01*
X124500000Y-48400000D02*
X189685000Y-48400000D01*
X184485000Y-94585000D02*
X189685000Y-94585000D01*
X164815000Y-89450000D02*
X164815000Y-94100003D01*
M02*
