M48
; DRILL file {KiCad 8.0.4} date 2024-12-17T15:55:12+0200
; FORMAT={-:-/ absolute / inch / decimal}
; #@! TF.CreationDate,2024-12-17T15:55:12+02:00
; #@! TF.GenerationSoftware,Kicad,Pcbnew,8.0.4
; #@! TF.FileFunction,Plated,1,2,PTH
FMAT,2
INCH
; #@! TA.AperFunction,Plated,PTH,ViaDrill
T1C0.0138
; #@! TA.AperFunction,Plated,PTH,ComponentDrill
T2C0.0138
; #@! TA.AperFunction,Plated,PTH,ViaDrill
T3C0.0236
; #@! TA.AperFunction,Plated,PTH,ComponentDrill
T4C0.0236
; #@! TA.AperFunction,Plated,PTH,ComponentDrill
T5C0.0315
; #@! TA.AperFunction,Plated,PTH,ComponentDrill
T6C0.0354
; #@! TA.AperFunction,Plated,PTH,ComponentDrill
T7C0.0394
%
G90
G05
T1
X5.0512Y-2.6142
X5.2677Y-2.7579
X5.2756Y-2.122
X5.2933Y-2.9508
X5.315Y-2.122
X5.3543Y-3.2992
X5.374Y-2.1772
X5.4075Y-2.122
X5.437Y-2.1929
X5.4764Y-3.1575
X5.4902Y-2.1181
X5.5157Y-2.4685
X5.5157Y-2.685
X5.5236Y-3.1732
X5.5572Y-3.3367
X5.563Y-2.9016
X5.5906Y-3.2717
X5.5945Y-2.7165
X5.626Y-2.7953
X5.6339Y-2.5591
X5.6378Y-3.2441
X5.6605Y-2.4285
X5.6614Y-3.2264
X5.6692Y-2.4567
X5.6777Y-3.3164
X5.685Y-3.1732
X5.6949Y-2.9882
X5.6969Y-2.7854
X5.7062Y-3.3031
X5.7087Y-2.8425
X5.7142Y-2.415
X5.7189Y-3.2765
X5.7332Y-2.44
X5.8089Y-2.5739
X5.8297Y-2.5948
X5.8346Y-3.2992
X5.8524Y-3.1811
X5.874Y-2.9291
X5.8819Y-2.6142
X5.8819Y-2.9862
X5.8819Y-3.2795
X5.8858Y-2.876
X5.8976Y-3.3858
X5.8979Y-3.1594
X5.9055Y-2.9213
X5.9094Y-2.2193
X5.9134Y-2.0846
X5.9134Y-2.8484
X5.9154Y-2.6398
X5.9265Y-2.8996
X5.9348Y-3.1161
X5.9449Y-3.6654
X5.9454Y-2.8498
X5.9469Y-3.3839
X5.9606Y-3.2165
X5.9724Y-3.1732
X5.9843Y-2.8799
X5.9961Y-3.0906
X6.0Y-3.3937
X6.0236Y-2.8839
X6.0263Y-3.4154
X6.0787Y-3.3937
X6.1024Y-2.8425
X6.1063Y-3.252
X6.108Y-3.4156
X6.128Y-3.3839
X6.1929Y-2.6909
X6.2047Y-3.252
X6.2047Y-3.3858
X6.2165Y-2.4567
X6.2362Y-3.4055
X6.2441Y-3.1083
X6.252Y-3.3701
X6.2853Y-2.6742
X6.2854Y-3.0217
X6.2913Y-2.4567
X6.2953Y-3.4272
X6.2992Y-3.252
X6.3406Y-2.685
X6.3504Y-3.4173
X6.3701Y-2.7402
X6.4055Y-2.8484
X6.4097Y-3.4456
X6.4409Y-3.0079
X6.4528Y-2.8583
X6.4685Y-3.0394
X6.4685Y-3.1024
X6.4882Y-3.2598
X6.4961Y-2.748
X6.498Y-2.8585
X6.5Y-2.8031
X6.5Y-3.2126
X6.5177Y-2.6398
X6.5197Y-2.8819
X6.6102Y-3.2953
X6.6535Y-2.7244
X6.7441Y-3.1654
X6.8031Y-2.8819
X6.878Y-2.9094
X6.9134Y-2.7283
X7.002Y-2.5965
X7.1496Y-2.5827
X7.1594Y-3.439
X7.1654Y-3.2283
X7.189Y-2.4764
X7.2105Y-3.2693
X7.2244Y-2.4331
X7.2244Y-2.622
X7.2362Y-2.4646
X7.2539Y-2.5315
X7.2598Y-2.7323
X7.2618Y-2.4035
X7.2835Y-3.315
X7.2874Y-3.5827
X7.3031Y-3.0157
X7.3071Y-3.2677
X7.3209Y-2.4567
X7.4016Y-2.4488
X7.4091Y-3.2442
X7.4094Y-3.2913
X7.4803Y-2.2598
T2
X6.1452Y-2.8789
X6.1452Y-2.9291
X6.1452Y-2.9793
X6.1954Y-2.8789
X6.1954Y-2.9291
X6.1954Y-2.9793
X6.2456Y-2.8789
X6.2456Y-2.9291
X6.2456Y-2.9793
T3
X4.9528Y-3.1181
X4.9724Y-2.5984
X5.1102Y-2.4291
X5.4685Y-2.4134
X6.7323Y-2.5236
X6.9646Y-3.315
T5
X6.3681Y-2.2461
X6.3681Y-2.3563
X6.4508Y-2.2461
X6.5531Y-2.2461
X6.6358Y-2.2461
X6.6358Y-2.3563
X6.9724Y-2.937
X7.0709Y-2.937
X7.378Y-2.7992
X7.378Y-2.8976
X7.3858Y-2.5553
X7.3858Y-2.6537
T7
X7.2522Y-3.1265
X7.2522Y-3.2265
X7.357Y-3.1265
X7.357Y-3.2265
X7.357Y-3.3265
X7.457Y-3.1265
X7.457Y-3.2265
X7.457Y-3.3265
T4
G00X5.7354Y-1.9665
M15
G01X5.7354Y-1.9429
M16
G05
G00X5.7354Y-2.1409
M15
G01X5.7354Y-2.0976
M16
G05
G00X6.0756Y-1.9665
M15
G01X6.0756Y-1.9429
M16
G05
G00X6.0756Y-2.1409
M15
G01X6.0756Y-2.0976
M16
G05
T6
G00X4.8819Y-2.5213
M15
G01X4.8504Y-2.5213
M16
G05
G00X4.8819Y-3.0922
M15
G01X4.8504Y-3.0922
M16
G05
G00X5.1362Y-2.5213
M15
G01X5.0654Y-2.5213
M16
G05
G00X5.1362Y-3.0922
M15
G01X5.0654Y-3.0922
M16
G05
T7
G00X6.2323Y-2.1634
M15
G01X6.2323Y-2.1043
M16
G05
G00X6.5413Y-2.1024
M15
G01X6.4626Y-2.1024
M16
G05
G00X6.7717Y-2.1634
M15
G01X6.7717Y-2.1043
M16
G05
G00X7.0512Y-1.9606
M15
G01X7.0906Y-1.9606
M16
G05
G00X7.0512Y-2.2008
M15
G01X7.0906Y-2.2008
M16
G05
G00X7.0512Y-2.4173
M15
G01X7.0906Y-2.4173
M16
G05
G00X7.1299Y-2.0551
M15
G01X7.1693Y-2.0551
M16
G05
G00X7.1299Y-2.2717
M15
G01X7.1693Y-2.2717
M16
G05
M30
