G04 #@! TF.GenerationSoftware,KiCad,Pcbnew,8.0.4*
G04 #@! TF.CreationDate,2024-12-17T15:55:10+02:00*
G04 #@! TF.ProjectId,core,636f7265-2e6b-4696-9361-645f70636258,1.0*
G04 #@! TF.SameCoordinates,Original*
G04 #@! TF.FileFunction,Soldermask,Bot*
G04 #@! TF.FilePolarity,Negative*
%FSLAX46Y46*%
G04 Gerber Fmt 4.6, Leading zero omitted, Abs format (unit mm)*
G04 Created by KiCad (PCBNEW 8.0.4) date 2024-12-17 15:55:10*
%MOMM*%
%LPD*%
G01*
G04 APERTURE LIST*
G04 Aperture macros list*
%AMRoundRect*
0 Rectangle with rounded corners*
0 $1 Rounding radius*
0 $2 $3 $4 $5 $6 $7 $8 $9 X,Y pos of 4 corners*
0 Add a 4 corners polygon primitive as box body*
4,1,4,$2,$3,$4,$5,$6,$7,$8,$9,$2,$3,0*
0 Add four circle primitives for the rounded corners*
1,1,$1+$1,$2,$3*
1,1,$1+$1,$4,$5*
1,1,$1+$1,$6,$7*
1,1,$1+$1,$8,$9*
0 Add four rect primitives between the rounded corners*
20,1,$1+$1,$2,$3,$4,$5,0*
20,1,$1+$1,$4,$5,$6,$7,0*
20,1,$1+$1,$6,$7,$8,$9,0*
20,1,$1+$1,$8,$9,$2,$3,0*%
%AMFreePoly0*
4,1,19,0.500000,-0.750000,0.000000,-0.750000,0.000000,-0.744911,-0.071157,-0.744911,-0.207708,-0.704816,-0.327430,-0.627875,-0.420627,-0.520320,-0.479746,-0.390866,-0.500000,-0.250000,-0.500000,0.250000,-0.479746,0.390866,-0.420627,0.520320,-0.327430,0.627875,-0.207708,0.704816,-0.071157,0.744911,0.000000,0.744911,0.000000,0.750000,0.500000,0.750000,0.500000,-0.750000,0.500000,-0.750000,
$1*%
%AMFreePoly1*
4,1,19,0.000000,0.744911,0.071157,0.744911,0.207708,0.704816,0.327430,0.627875,0.420627,0.520320,0.479746,0.390866,0.500000,0.250000,0.500000,-0.250000,0.479746,-0.390866,0.420627,-0.520320,0.327430,-0.627875,0.207708,-0.704816,0.071157,-0.744911,0.000000,-0.744911,0.000000,-0.750000,-0.500000,-0.750000,-0.500000,0.750000,0.000000,0.750000,0.000000,0.744911,0.000000,0.744911,
$1*%
G04 Aperture macros list end*
%ADD10FreePoly0,270.000000*%
%ADD11FreePoly1,270.000000*%
%ADD12RoundRect,0.150000X-0.800000X-0.150000X0.800000X-0.150000X0.800000X0.150000X-0.800000X0.150000X0*%
%ADD13O,2.800000X1.800000*%
%ADD14R,1.846667X3.480000*%
%ADD15C,2.700000*%
%ADD16RoundRect,0.250000X-0.350000X-0.450000X0.350000X-0.450000X0.350000X0.450000X-0.350000X0.450000X0*%
%ADD17R,1.600000X1.600000*%
%ADD18C,1.600000*%
%ADD19O,1.000000X1.600000*%
%ADD20O,1.000000X2.100000*%
%ADD21C,0.650000*%
%ADD22O,2.000000X3.500000*%
%ADD23O,4.000000X2.000000*%
%ADD24O,1.700000X1.700000*%
%ADD25C,1.700000*%
%ADD26RoundRect,0.250000X0.337500X0.475000X-0.337500X0.475000X-0.337500X-0.475000X0.337500X-0.475000X0*%
%ADD27RoundRect,0.350000X-1.300000X0.350000X-1.300000X-0.350000X1.300000X-0.350000X1.300000X0.350000X0*%
%ADD28RoundRect,0.350000X-0.700000X0.350000X-0.700000X-0.350000X0.700000X-0.350000X0.700000X0.350000X0*%
%ADD29RoundRect,0.250000X0.350000X0.450000X-0.350000X0.450000X-0.350000X-0.450000X0.350000X-0.450000X0*%
%ADD30RoundRect,0.250000X-0.337500X-0.475000X0.337500X-0.475000X0.337500X0.475000X-0.337500X0.475000X0*%
%ADD31RoundRect,0.250000X0.325000X0.450000X-0.325000X0.450000X-0.325000X-0.450000X0.325000X-0.450000X0*%
G04 APERTURE END LIST*
D10*
X162800000Y-81600000D03*
D11*
X162800000Y-82900000D03*
D12*
X166300000Y-71810000D03*
X166300000Y-70540000D03*
X166300000Y-69270000D03*
X166300000Y-68000000D03*
X173300000Y-68000000D03*
X173300000Y-69270000D03*
X173300000Y-70540000D03*
X173300000Y-71810000D03*
X166300000Y-80305000D03*
X166300000Y-79035000D03*
X166300000Y-77765000D03*
X166300000Y-76495000D03*
X173300000Y-76495000D03*
X173300000Y-77765000D03*
X173300000Y-79035000D03*
X173300000Y-80305000D03*
D13*
X181600000Y-57700000D03*
X179600000Y-55900000D03*
X179600000Y-49800000D03*
X181600000Y-52200000D03*
X179600000Y-61400000D03*
D14*
X178555000Y-87300000D03*
X175785000Y-87300000D03*
X173015000Y-87300000D03*
X170245000Y-87300000D03*
X136045000Y-87300000D03*
X138815000Y-87300000D03*
X141585000Y-87300000D03*
X144355000Y-87300000D03*
D15*
X189400000Y-51400000D03*
D16*
X180600000Y-68600000D03*
X182600000Y-68600000D03*
D17*
X187600000Y-67405113D03*
D18*
X187600000Y-64905113D03*
D19*
X145680000Y-49650000D03*
D20*
X145680000Y-53830000D03*
D19*
X154320000Y-49650000D03*
D20*
X154320000Y-53830000D03*
D21*
X147110000Y-53300000D03*
X152890000Y-53300000D03*
D17*
X163850000Y-57050000D03*
D18*
X166450000Y-57050000D03*
D22*
X172000000Y-54200000D03*
D23*
X165150000Y-53400000D03*
D18*
X161750000Y-57050000D03*
D22*
X158300000Y-54200000D03*
D18*
X168550000Y-57050000D03*
X161750000Y-59850000D03*
X168550000Y-59850000D03*
D24*
X189409000Y-84492000D03*
X186869000Y-84492000D03*
X189409000Y-81952000D03*
X186869000Y-81952000D03*
X189409000Y-79412000D03*
D25*
X186869000Y-79412000D03*
D24*
X184206000Y-81953000D03*
D25*
X184206000Y-79413000D03*
D26*
X180562500Y-64580000D03*
X182637500Y-64580000D03*
D15*
X189400000Y-91600000D03*
D27*
X129560000Y-64041000D03*
D28*
X123600000Y-64041000D03*
X123600000Y-78541000D03*
D27*
X129560000Y-78541000D03*
D17*
X177100000Y-74600000D03*
D18*
X179600000Y-74600000D03*
D29*
X182600000Y-70600000D03*
X180600000Y-70600000D03*
D17*
X187400000Y-73600000D03*
D18*
X187400000Y-71100000D03*
D29*
X182600000Y-66600000D03*
X180600000Y-66600000D03*
D15*
X124800000Y-91850000D03*
X124800000Y-51400000D03*
D16*
X146200000Y-69400000D03*
X148200000Y-69400000D03*
D30*
X175762500Y-80800000D03*
X177837500Y-80800000D03*
D31*
X148225000Y-71400000D03*
X146175000Y-71400000D03*
D16*
X146200000Y-79400000D03*
X148200000Y-79400000D03*
D29*
X148200000Y-77400000D03*
X146200000Y-77400000D03*
D16*
X146200000Y-75400000D03*
X148200000Y-75400000D03*
D31*
X148225000Y-73473000D03*
X146175000Y-73473000D03*
M02*
